<?xml version="1.0" encoding="UTF-8"?>
<!DOCTYPE svg PUBLIC "-//W3C//DTD SVG 1.1//EN" "http://www.w3.org/Graphics/SVG/1.1/DTD/svg11.dtd">
<!-- Creator: CorelDRAW -->
<svg xmlns="http://www.w3.org/2000/svg" xml:space="preserve" width="250px" height="250px" version="1.1" style="shape-rendering:geometricPrecision; text-rendering:geometricPrecision; image-rendering:optimizeQuality; fill-rule:evenodd; clip-rule:evenodd"
viewBox="0 0 250 250"
 xmlns:xlink="http://www.w3.org/1999/xlink"
 xmlns:xodm="http://www.corel.com/coreldraw/odm/2003">
 <defs>
  <style type="text/css">
   <![CDATA[
    .fil1 {fill:url(#id0)}
    .fil0 {fill:url(#id1)}
   ]]>
  </style>
  <linearGradient id="id0" gradientUnits="userSpaceOnUse" x1="72.95" y1="82.14" x2="177.05" y2="167.86">
   <stop offset="0" style="stop-opacity:1; stop-color:#4CD137"/>
   <stop offset="1" style="stop-opacity:1; stop-color:#44BD32"/>
  </linearGradient>
  <linearGradient id="id1" gradientUnits="userSpaceOnUse" x1="45.27" y1="-61.54" x2="204.73" y2="311.54">
   <stop offset="0" style="stop-opacity:1; stop-color:#636E72"/>
   <stop offset="1" style="stop-opacity:1; stop-color:#2D3436"/>
  </linearGradient>
 </defs>
 <g id="Слой_x0020_1">
  <metadata id="CorelCorpID_0Corel-Layer"/>
  <path class="fil0" d="M125 0c69.04,0 125,55.96 125,125 0,69.04 -55.96,125 -125,125 -69.04,0 -125,-55.96 -125,-125 0,-69.04 55.96,-125 125,-125z"/>
  <path class="fil1" d="M83.64 96.65c1.35,-13.85 9.5,-25.7 21.06,-32.18l-7.03 -12.18c-0.42,-0.73 -0.17,-1.67 0.56,-2.09 0.74,-0.42 1.68,-0.16 2.1,0.57l7.1 12.3c5.34,-2.49 11.29,-3.89 17.57,-3.89 6.28,0 12.23,1.4 17.57,3.89l7.1 -12.3c0.42,-0.73 1.36,-0.99 2.1,-0.57 0.73,0.42 0.98,1.36 0.56,2.09l-7.03 12.18c11.56,6.48 19.71,18.33 21.06,32.18l-82.72 0zm0 4.8l82.72 0 0 60.18c0,3.3 -2.7,5.99 -6,5.99l-70.72 0c-3.3,0 -6,-2.69 -6,-5.99l0 -60.18zm52.39 70.98l13.79 0 0 22.06c0,3.03 -2.49,5.51 -5.52,5.51l-2.76 0c-3.03,0 -5.51,-2.48 -5.51,-5.51l0 -22.06zm-35.85 0l13.79 0 0 22.06c0,3.03 -2.48,5.51 -5.51,5.51l-2.76 0c-3.03,0 -5.52,-2.48 -5.52,-5.51l0 -22.06zm78.31 -70.98l2.76 0c3.03,0 5.52,2.48 5.52,5.51l0 44.12c0,3.04 -2.49,5.52 -5.52,5.52l-2.76 0c-3.03,0 -5.51,-2.48 -5.51,-5.52l0 -44.12c0,-3.03 2.48,-5.51 5.51,-5.51zm-109.74 0l2.76 0c3.03,0 5.51,2.48 5.51,5.51l0 44.12c0,3.04 -2.48,5.52 -5.51,5.52l-2.76 0c-3.03,0 -5.52,-2.48 -5.52,-5.52l0 -44.12c0,-3.03 2.49,-5.51 5.52,-5.51zm75.34 -23.4c-1.88,0 -3.41,1.53 -3.41,3.42 0,1.88 1.53,3.41 3.41,3.41 1.89,0 3.42,-1.53 3.42,-3.41 0,-1.89 -1.53,-3.42 -3.42,-3.42zm-38.18 0c1.88,0 3.41,1.53 3.41,3.42 0,1.88 -1.53,3.41 -3.41,3.41 -1.89,0 -3.42,-1.53 -3.42,-3.41 0,-1.89 1.53,-3.42 3.42,-3.42z"/>
 </g>
</svg>
