<?xml version="1.0" encoding="UTF-8"?>
<!DOCTYPE svg PUBLIC "-//W3C//DTD SVG 1.1//EN" "http://www.w3.org/Graphics/SVG/1.1/DTD/svg11.dtd">
<!-- Creator: CorelDRAW -->
<svg xmlns="http://www.w3.org/2000/svg" xml:space="preserve" width="250px" height="250px" version="1.1" style="shape-rendering:geometricPrecision; text-rendering:geometricPrecision; image-rendering:optimizeQuality; fill-rule:evenodd; clip-rule:evenodd"
viewBox="0 0 250 250"
 xmlns:xlink="http://www.w3.org/1999/xlink"
 xmlns:xodm="http://www.corel.com/coreldraw/odm/2003">
 <defs>
  <style type="text/css">
   <![CDATA[
    .fil1 {fill:url(#id0)}
    .fil2 {fill:url(#id1)}
    .fil0 {fill:url(#id2)}
    .fil3 {fill:url(#id3)}
    .fil4 {fill:url(#id4)}
    .fil5 {fill:url(#id5)}
   ]]>
  </style>
  <linearGradient id="id0" gradientUnits="userSpaceOnUse" x1="80.96" y1="101.51" x2="169.04" y2="148.49">
   <stop offset="0" style="stop-opacity:1; stop-color:#273C75"/>
   <stop offset="1" style="stop-opacity:1; stop-color:#192A56"/>
  </linearGradient>
  <linearGradient id="id1" gradientUnits="userSpaceOnUse" x1="85.4" y1="105.2" x2="164.6" y2="144.8">
   <stop offset="0" style="stop-opacity:1; stop-color:#487EB0"/>
   <stop offset="1" style="stop-opacity:1; stop-color:#40739E"/>
  </linearGradient>
  <linearGradient id="id2" gradientUnits="userSpaceOnUse" x1="45.27" y1="-61.54" x2="204.73" y2="311.54">
   <stop offset="0" style="stop-opacity:1; stop-color:#DFE6E9"/>
   <stop offset="1" style="stop-opacity:1; stop-color:#B2BEC3"/>
  </linearGradient>
  <linearGradient id="id3" gradientUnits="userSpaceOnUse" x1="143.79" y1="105.01" x2="186.21" y2="105.01">
   <stop offset="0" style="stop-opacity:1; stop-color:#FBC531"/>
   <stop offset="1" style="stop-opacity:1; stop-color:#E1B12C"/>
  </linearGradient>
  <linearGradient id="id4" gradientUnits="userSpaceOnUse" x1="133.68" y1="123.49" x2="166.32" y2="141.36">
   <stop offset="0" style="stop-opacity:1; stop-color:#E84118"/>
   <stop offset="1" style="stop-opacity:1; stop-color:#C23616"/>
  </linearGradient>
  <linearGradient id="id5" gradientUnits="userSpaceOnUse" xlink:href="#id0" x1="196.32" y1="123.49" x2="163.68" y2="141.36">
  </linearGradient>
 </defs>
 <g id="Слой_x0020_1">
  <metadata id="CorelCorpID_0Corel-Layer"/>
  <path class="fil0" d="M125 0c69.04,0 125,55.96 125,125 0,69.04 -55.96,125 -125,125 -69.04,0 -125,-55.96 -125,-125 0,-69.04 55.96,-125 125,-125z"/>
  <path class="fil1" d="M95 50l60 0c5.5,0 10,4.5 10,10l0 130c0,5.5 -4.5,10 -10,10l-60 0c-5.5,0 -10,-4.5 -10,-10l0 -130c0,-5.5 4.5,-10 10,-10z"/>
  <path class="fil2" d="M95 55l60 0c2.75,0 5,2.25 5,5l0 130c0,2.75 -2.25,5 -5,5l-60 0c-2.75,0 -5,-2.25 -5,-5l0 -130c0,-2.75 2.25,-5 5,-5z"/>
  <polygon class="fil3" points="135,105.01 165,85.6 195,105.01 165,124.43 "/>
  <polygon class="fil4" points="135,140.41 165,159.83 165,124.43 135,105.01 "/>
  <polygon class="fil5" points="195,140.41 165,159.83 165,124.43 195,105.01 "/>
 </g>
</svg>
