<?xml version="1.0" encoding="UTF-8"?>
<!DOCTYPE svg PUBLIC "-//W3C//DTD SVG 1.1//EN" "http://www.w3.org/Graphics/SVG/1.1/DTD/svg11.dtd">
<!-- Creator: CorelDRAW -->
<svg xmlns="http://www.w3.org/2000/svg" xml:space="preserve" width="250px" height="250px" version="1.1" style="shape-rendering:geometricPrecision; text-rendering:geometricPrecision; image-rendering:optimizeQuality; fill-rule:evenodd; clip-rule:evenodd"
viewBox="0 0 250 250"
 xmlns:xlink="http://www.w3.org/1999/xlink"
 xmlns:xodm="http://www.corel.com/coreldraw/odm/2003">
 <defs>
  <style type="text/css">
   <![CDATA[
    .fil8 {fill:url(#id0)}
    .fil0 {fill:url(#id1)}
    .fil1 {fill:url(#id2)}
    .fil6 {fill:url(#id3)}
    .fil4 {fill:url(#id4)}
    .fil2 {fill:url(#id5)}
    .fil7 {fill:url(#id6)}
    .fil5 {fill:url(#id7)}
    .fil3 {fill:url(#id8)}
   ]]>
  </style>
  <linearGradient id="id0" gradientUnits="objectBoundingBox" x1="49.3314%" y1="0%" x2="50.6686%" y2="120.042%">
   <stop offset="0" style="stop-opacity:1; stop-color:#F5F6FA"/>
   <stop offset="1" style="stop-opacity:1; stop-color:#DCDDE1"/>
  </linearGradient>
  <linearGradient id="id1" gradientUnits="userSpaceOnUse" x1="45.27" y1="-61.54" x2="204.73" y2="311.54">
   <stop offset="0" style="stop-opacity:1; stop-color:#FAB1A0"/>
   <stop offset="1" style="stop-opacity:1; stop-color:#E17055"/>
  </linearGradient>
  <linearGradient id="id2" gradientUnits="userSpaceOnUse" x1="53.53" y1="170.5" x2="70.57" y2="187.54">
   <stop offset="0" style="stop-opacity:1; stop-color:#353B48"/>
   <stop offset="1" style="stop-opacity:1; stop-color:#2F3640"/>
  </linearGradient>
  <linearGradient id="id3" gradientUnits="userSpaceOnUse" xlink:href="#id0" x1="92.61" y1="62.52" x2="92.71" y2="70.06">
  </linearGradient>
  <linearGradient id="id4" gradientUnits="userSpaceOnUse" xlink:href="#id0" x1="120.92" y1="152.98" x2="127.66" y2="185.9">
  </linearGradient>
  <linearGradient id="id5" gradientUnits="userSpaceOnUse" xlink:href="#id2" x1="172.51" y1="170.5" x2="189.55" y2="187.54">
  </linearGradient>
  <linearGradient id="id6" gradientUnits="userSpaceOnUse" xlink:href="#id0" x1="79.77" y1="60.34" x2="86.58" y2="67.16">
  </linearGradient>
  <linearGradient id="id7" gradientUnits="userSpaceOnUse" xlink:href="#id0" x1="73.7" y1="122.41" x2="80.34" y2="123.9">
  </linearGradient>
  <linearGradient id="id8" gradientUnits="userSpaceOnUse" xlink:href="#id0" x1="173.71" y1="156.04" x2="185.52" y2="179.31">
  </linearGradient>
 </defs>
 <g id="Слой_x0020_1">
  <metadata id="CorelCorpID_0Corel-Layer"/>
  <g id="_2556860237584">
   <path class="fil0" d="M125 0c69.04,0 125,55.96 125,125 0,69.04 -55.96,125 -125,125 -69.04,0 -125,-55.96 -125,-125 0,-69.04 55.96,-125 125,-125z"/>
   <path class="fil1" d="M62.05 166.97c6.66,0 12.05,5.39 12.05,12.05 0,6.65 -5.39,12.05 -12.05,12.05 -6.65,0 -12.05,-5.4 -12.05,-12.05 0,-6.66 5.4,-12.05 12.05,-12.05z"/>
   <path class="fil2" d="M181.03 166.97c6.66,0 12.05,5.39 12.05,12.05 0,6.65 -5.39,12.05 -12.05,12.05 -6.65,0 -12.05,-5.4 -12.05,-12.05 0,-6.66 5.4,-12.05 12.05,-12.05z"/>
   <path class="fil3" d="M159.23 178.03c0.08,-1.57 0.32,-3.12 0.72,-4.62l0.01 -0.01c1.44,-5.37 4.92,-10.18 10.09,-13.17 5.18,-2.98 11.09,-3.59 16.45,-2.16l0.01 0.01c5.37,1.44 10.18,4.92 13.17,10.09 0.66,1.15 0.27,2.63 -0.89,3.29 -1.15,0.67 -2.62,0.27 -3.29,-0.88 -2.33,-4.04 -6.07,-6.75 -10.23,-7.86l-0.01 -0.01c-4.16,-1.11 -8.76,-0.63 -12.8,1.7 -4.04,2.33 -6.75,6.07 -7.86,10.23l-0.01 0.01c-0.29,1.1 -0.48,2.23 -0.54,3.38l-4.82 0z"/>
   <path class="fil4" d="M181.03 176.47c1.41,0 2.55,1.14 2.55,2.55 0,1.41 -1.14,2.54 -2.55,2.54l-93.96 0c-0.76,0 -1.45,-0.33 -1.92,-0.86l-19.39 -19.04c-1,-0.98 -1.01,-2.59 -0.03,-3.59 0.98,-1 2.59,-1.01 3.59,-0.03l18.78 18.43 92.93 0z"/>
   <path class="fil5" d="M60.09 177.02l29.2 -108.97c0.2,-0.76 0.99,-1.21 1.74,-1.01l1.91 0.51c0.76,0.2 1.21,0.99 1.01,1.74l-29.2 108.98c-0.21,0.76 -0.99,1.21 -1.75,1l-1.9 -0.51c-0.76,-0.2 -1.21,-0.98 -1.01,-1.74z"/>
   <path class="fil6" d="M85.75 61.57l15.25 4.09c1.03,0.27 1.64,1.33 1.37,2.36l-0.44 1.63c-0.27,1.02 -1.33,1.64 -2.36,1.36l-15.25 -4.08c-1.02,-0.28 -1.64,-1.34 -1.36,-2.37l0.43 -1.63c0.28,-1.02 1.34,-1.63 2.36,-1.36z"/>
   <path class="fil7" d="M83.18 58.93c2.66,0 4.82,2.16 4.82,4.82 0,2.66 -2.16,4.82 -4.82,4.82 -2.66,0 -4.82,-2.16 -4.82,-4.82 0,-2.66 2.16,-4.82 4.82,-4.82z"/>
   <path class="fil8" d="M103.25 105.75c-1.38,0 -2.5,-1.12 -2.5,-2.5 0,-1.38 1.12,-2.5 2.5,-2.5l46.19 0c1.38,0 2.5,1.12 2.5,2.5 0,1.38 -1.12,2.5 -2.5,2.5l-46.19 0z"/>
   <path class="fil8" d="M114.13 124.11c-1.38,0 -2.5,-1.12 -2.5,-2.5 0,-1.38 1.12,-2.5 2.5,-2.5l68.35 0c1.38,0 2.5,1.12 2.5,2.5 0,1.38 -1.12,2.5 -2.5,2.5l-68.35 0z"/>
   <path class="fil8" d="M96.82 141.42c-1.38,0 -2.5,-1.12 -2.5,-2.5 0,-1.38 1.12,-2.5 2.5,-2.5l37.36 0c1.38,0 2.5,1.12 2.5,2.5 0,1.38 -1.12,2.5 -2.5,2.5l-37.36 0z"/>
  </g>
 </g>
</svg>
