<?xml version="1.0" encoding="UTF-8"?>
<!DOCTYPE svg PUBLIC "-//W3C//DTD SVG 1.1//EN" "http://www.w3.org/Graphics/SVG/1.1/DTD/svg11.dtd">
<!-- Creator: CorelDRAW -->
<svg xmlns="http://www.w3.org/2000/svg" xml:space="preserve" width="250px" height="250px" version="1.1" style="shape-rendering:geometricPrecision; text-rendering:geometricPrecision; image-rendering:optimizeQuality; fill-rule:evenodd; clip-rule:evenodd"
viewBox="0 0 250 250"
 xmlns:xlink="http://www.w3.org/1999/xlink"
 xmlns:xodm="http://www.corel.com/coreldraw/odm/2003">
 <defs>
  <style type="text/css">
   <![CDATA[
    .fil0 {fill:url(#id0)}
    .fil15 {fill:url(#id1)}
    .fil13 {fill:url(#id2)}
    .fil12 {fill:url(#id3)}
    .fil14 {fill:url(#id4)}
    .fil8 {fill:url(#id5)}
    .fil19 {fill:url(#id6)}
    .fil10 {fill:url(#id7)}
    .fil18 {fill:url(#id8)}
    .fil17 {fill:url(#id9)}
    .fil16 {fill:url(#id10)}
    .fil2 {fill:url(#id11)}
    .fil9 {fill:url(#id12)}
    .fil11 {fill:url(#id13)}
    .fil4 {fill:url(#id14)}
    .fil1 {fill:url(#id15)}
    .fil6 {fill:url(#id16)}
    .fil5 {fill:url(#id17)}
    .fil7 {fill:url(#id18)}
    .fil3 {fill:url(#id19)}
   ]]>
  </style>
  <linearGradient id="id0" gradientUnits="userSpaceOnUse" x1="45.27" y1="-61.54" x2="204.73" y2="311.54">
   <stop offset="0" style="stop-opacity:1; stop-color:#FFEAA7"/>
   <stop offset="1" style="stop-opacity:1; stop-color:#FDCB6E"/>
  </linearGradient>
  <linearGradient id="id1" gradientUnits="userSpaceOnUse" x1="77.43" y1="151.59" x2="88.85" y2="181.51">
   <stop offset="0" style="stop-opacity:1; stop-color:#4CD137"/>
   <stop offset="1" style="stop-opacity:1; stop-color:#44BD32"/>
  </linearGradient>
  <linearGradient id="id2" gradientUnits="userSpaceOnUse" x1="82.82" y1="171.45" x2="87.75" y2="176.37">
   <stop offset="0" style="stop-opacity:1; stop-color:#273C75"/>
   <stop offset="1" style="stop-opacity:1; stop-color:#192A56"/>
  </linearGradient>
  <linearGradient id="id3" gradientUnits="userSpaceOnUse" xlink:href="#id2" x1="163.64" y1="133.32" x2="167.74" y2="137.43">
  </linearGradient>
  <linearGradient id="id4" gradientUnits="userSpaceOnUse" x1="88.11" y1="129.82" x2="130.18" y2="147.04">
   <stop offset="0" style="stop-opacity:1; stop-color:#E84118"/>
   <stop offset="1" style="stop-opacity:1; stop-color:#C23616"/>
  </linearGradient>
  <linearGradient id="id5" gradientUnits="userSpaceOnUse" xlink:href="#id2" x1="115.12" y1="82.36" x2="121.69" y2="88.93">
  </linearGradient>
  <linearGradient id="id6" gradientUnits="userSpaceOnUse" xlink:href="#id2" x1="90.47" y1="140.24" x2="115.48" y2="161.9">
  </linearGradient>
  <linearGradient id="id7" gradientUnits="userSpaceOnUse" xlink:href="#id4" x1="51.36" y1="93.85" x2="57.93" y2="100.42">
  </linearGradient>
  <linearGradient id="id8" gradientUnits="userSpaceOnUse" xlink:href="#id2" x1="151.96" y1="181.97" x2="157.2" y2="196.76">
  </linearGradient>
  <linearGradient id="id9" gradientUnits="userSpaceOnUse" xlink:href="#id1" x1="146.36" y1="144.41" x2="172.61" y2="182.33">
  </linearGradient>
  <linearGradient id="id10" gradientUnits="userSpaceOnUse" x1="132.57" y1="127.29" x2="169.38" y2="152.69">
   <stop offset="0" style="stop-opacity:1; stop-color:#00A8FF"/>
   <stop offset="1" style="stop-opacity:1; stop-color:#0097E6"/>
  </linearGradient>
  <linearGradient id="id11" gradientUnits="userSpaceOnUse" xlink:href="#id4" x1="127.49" y1="56.11" x2="134.06" y2="62.68">
  </linearGradient>
  <linearGradient id="id12" gradientUnits="userSpaceOnUse" xlink:href="#id4" x1="188.08" y1="79.37" x2="194.65" y2="85.94">
  </linearGradient>
  <linearGradient id="id13" gradientUnits="userSpaceOnUse" xlink:href="#id4" x1="171.36" y1="173.57" x2="175.47" y2="177.68">
  </linearGradient>
  <linearGradient id="id14" gradientUnits="userSpaceOnUse" xlink:href="#id10" x1="71.28" y1="116.99" x2="78.81" y2="134.06">
  </linearGradient>
  <linearGradient id="id15" gradientUnits="userSpaceOnUse" xlink:href="#id10" x1="157.06" y1="66.94" x2="169.25" y2="85.15">
  </linearGradient>
  <linearGradient id="id16" gradientUnits="userSpaceOnUse" x1="190.4" y1="160.74" x2="196.47" y2="171.77">
   <stop offset="0" style="stop-opacity:1; stop-color:#9C88FF"/>
   <stop offset="1" style="stop-opacity:1; stop-color:#8C7AE6"/>
  </linearGradient>
  <linearGradient id="id17" gradientUnits="userSpaceOnUse" xlink:href="#id1" x1="183.57" y1="108.05" x2="193.95" y2="123.56">
  </linearGradient>
  <linearGradient id="id18" gradientUnits="userSpaceOnUse" xlink:href="#id1" x1="67.08" y1="76.02" x2="87.7" y2="84.03">
  </linearGradient>
  <linearGradient id="id19" gradientUnits="userSpaceOnUse" xlink:href="#id16" x1="131.55" y1="100.06" x2="139.04" y2="113.69">
  </linearGradient>
 </defs>
 <g id="Слой_x0020_1">
  <metadata id="CorelCorpID_0Corel-Layer"/>
  <g id="_2653694125136">
   <path class="fil0" d="M125 0c69.04,0 125,55.96 125,125 0,69.04 -55.96,125 -125,125 -69.04,0 -125,-55.96 -125,-125 0,-69.04 55.96,-125 125,-125z"/>
   <path class="fil1" d="M166.46 66.97l0.81 5.88 5.86 1.02c0.95,0.17 1.59,1.08 1.42,2.03 -0.1,0.58 -0.47,1.04 -0.96,1.28l0 0 -5.34 2.59 0.84 5.88c0.13,0.96 -0.54,1.85 -1.5,1.99 -0.63,0.09 -1.22,-0.17 -1.6,-0.62l-4.03 -4.19 -5.33 2.62c-0.87,0.42 -1.92,0.06 -2.35,-0.81 -0.26,-0.52 -0.23,-1.11 0.03,-1.59l-0.01 0 2.8 -5.24 -4.13 -4.27c-0.68,-0.69 -0.66,-1.81 0.04,-2.48 0.45,-0.45 1.08,-0.59 1.65,-0.45l5.73 1.02 2.77 -5.24c0.45,-0.86 1.52,-1.19 2.38,-0.74 0.52,0.28 0.84,0.78 0.92,1.32z"/>
   <path class="fil2" d="M130.77 54.75c2.57,0 4.65,2.08 4.65,4.65 0,2.57 -2.08,4.64 -4.65,4.64 -2.56,0 -4.64,-2.07 -4.64,-4.64 0,-2.57 2.08,-4.65 4.64,-4.65z"/>
   <path class="fil3" d="M138.19 100.66l0.21 4.21 4.08 1.08c0.66,0.18 1.06,0.87 0.88,1.53 -0.11,0.4 -0.4,0.7 -0.76,0.84l0 0 -3.93 1.51 0.22 4.2c0.04,0.69 -0.49,1.28 -1.18,1.32 -0.45,0.02 -0.85,-0.2 -1.09,-0.54l-2.59 -3.21 -3.93 1.52c-0.64,0.25 -1.36,-0.07 -1.61,-0.72 -0.15,-0.38 -0.09,-0.8 0.12,-1.12l-0.01 0 2.31 -3.53 -2.66 -3.27c-0.44,-0.54 -0.36,-1.32 0.18,-1.76 0.35,-0.28 0.81,-0.35 1.2,-0.21l3.98 1.08 2.29 -3.54c0.37,-0.58 1.14,-0.75 1.72,-0.37 0.35,0.22 0.55,0.6 0.57,0.98z"/>
   <path class="fil4" d="M79.15 118.4l-0.18 5.05 4.75 1.72c0.78,0.28 1.18,1.14 0.9,1.91 -0.17,0.47 -0.55,0.8 -1,0.93l0 0 -4.86 1.39 -0.17 5.05c-0.02,0.83 -0.72,1.48 -1.55,1.45 -0.53,-0.02 -1,-0.32 -1.24,-0.76l-2.76 -4.11 -4.86 1.41c-0.79,0.23 -1.62,-0.23 -1.85,-1.02 -0.14,-0.48 -0.03,-0.97 0.26,-1.34l-0.01 0 3.12 -3.98 -2.83 -4.18c-0.46,-0.69 -0.28,-1.62 0.4,-2.08 0.45,-0.3 1,-0.33 1.46,-0.13l4.64 1.7 3.11 -3.99c0.5,-0.65 1.44,-0.77 2.09,-0.26 0.4,0.3 0.6,0.77 0.58,1.24z"/>
   <path class="fil5" d="M191.57 108.08l0.69 5 4.98 0.87c0.82,0.14 1.36,0.92 1.22,1.73 -0.09,0.49 -0.41,0.88 -0.82,1.09l0 0 -4.55 2.21 0.72 5c0.11,0.82 -0.46,1.58 -1.28,1.69 -0.53,0.08 -1.04,-0.14 -1.36,-0.52l-3.43 -3.57 -4.54 2.23c-0.74,0.36 -1.64,0.05 -2,-0.69 -0.22,-0.44 -0.19,-0.95 0.02,-1.36l0 0 2.38 -4.46 -3.51 -3.63c-0.58,-0.59 -0.57,-1.54 0.03,-2.12 0.38,-0.37 0.92,-0.49 1.41,-0.37l4.87 0.87 2.36 -4.47c0.39,-0.73 1.29,-1.01 2.02,-0.62 0.45,0.23 0.73,0.65 0.79,1.12z"/>
   <path class="fil6" d="M195.78 161.23l0.17 3.4 3.3 0.88c0.54,0.14 0.86,0.7 0.72,1.24 -0.09,0.32 -0.33,0.56 -0.62,0.68l0 0 -3.19 1.22 0.19 3.4c0.03,0.56 -0.4,1.04 -0.96,1.06 -0.36,0.02 -0.69,-0.15 -0.88,-0.43l-2.1 -2.6 -3.18 1.23c-0.52,0.2 -1.1,-0.06 -1.3,-0.58 -0.12,-0.31 -0.08,-0.65 0.09,-0.91l0 0 1.86 -2.86 -2.15 -2.64c-0.35,-0.44 -0.28,-1.07 0.15,-1.43 0.28,-0.23 0.65,-0.28 0.97,-0.17l3.22 0.87 1.85 -2.86c0.3,-0.47 0.93,-0.61 1.4,-0.3 0.28,0.18 0.44,0.48 0.46,0.8z"/>
   <path class="fil7" d="M74.86 70.61l4.08 4.38 5.43 -2.54c0.89,-0.41 1.94,-0.03 2.36,0.86 0.25,0.54 0.21,1.13 -0.06,1.61l0.01 0 -2.92 5.24 4.1 4.38c0.67,0.71 0.63,1.84 -0.09,2.5 -0.47,0.44 -1.11,0.57 -1.68,0.42l-5.76 -1.13 -2.9 5.25c-0.47,0.86 -1.55,1.17 -2.4,0.69 -0.52,-0.28 -0.84,-0.79 -0.9,-1.33l-0.01 0 -0.72 -5.95 -5.88 -1.14c-0.97,-0.18 -1.6,-1.11 -1.41,-2.08 0.12,-0.62 0.56,-1.11 1.11,-1.32l5.32 -2.47 -0.74 -5.95c-0.12,-0.97 0.57,-1.86 1.54,-1.98 0.59,-0.07 1.15,0.15 1.52,0.56z"/>
   <path class="fil8" d="M118.4 81c2.57,0 4.65,2.08 4.65,4.64 0,2.57 -2.08,4.65 -4.65,4.65 -2.56,0 -4.64,-2.08 -4.64,-4.65 0,-2.56 2.08,-4.64 4.64,-4.64z"/>
   <path class="fil9" d="M191.36 78.01c2.57,0 4.65,2.08 4.65,4.65 0,2.56 -2.08,4.64 -4.65,4.64 -2.56,0 -4.64,-2.08 -4.64,-4.64 0,-2.57 2.08,-4.65 4.64,-4.65z"/>
   <path class="fil10" d="M54.65 92.49c2.56,0 4.64,2.08 4.64,4.65 0,2.57 -2.08,4.64 -4.64,4.64 -2.57,0 -4.65,-2.07 -4.65,-4.64 0,-2.57 2.08,-4.65 4.65,-4.65z"/>
   <path class="fil11" d="M173.42 172.72c1.6,0 2.9,1.3 2.9,2.91 0,1.6 -1.3,2.9 -2.9,2.9 -1.61,0 -2.91,-1.3 -2.91,-2.9 0,-1.61 1.3,-2.91 2.91,-2.91z"/>
   <path class="fil12" d="M165.69 132.47c1.6,0 2.9,1.3 2.9,2.91 0,1.6 -1.3,2.9 -2.9,2.9 -1.6,0 -2.9,-1.3 -2.9,-2.9 0,-1.61 1.3,-2.91 2.9,-2.91z"/>
   <path class="fil13" d="M85.28 170.43c1.93,0 3.49,1.56 3.49,3.48 0,1.92 -1.56,3.48 -3.49,3.48 -1.92,0 -3.48,-1.56 -3.48,-3.48 0,-1.92 1.56,-3.48 3.48,-3.48z"/>
   <path class="fil14" d="M93.33 102.38c-1.59,-1.06 -2.03,-3.22 -0.97,-4.82 1.05,-1.6 3.21,-2.04 4.81,-0.98 26.56,17.53 30.8,63.69 28.97,84.28 -1.23,-18.09 -3.1,-58.88 -32.81,-78.48z"/>
   <path class="fil15" d="M55.36 161.83c-1.9,0.27 -3.66,-1.04 -3.94,-2.94 -0.28,-1.9 1.04,-3.67 2.94,-3.95 17.07,-2.51 46.31,4 60.53,23.73 -12.81,-11.84 -27.74,-21.52 -59.53,-16.84z"/>
   <path class="fil16" d="M131.77 167.84c1.5,-19.47 13.89,-46.85 33.55,-55.41 1.76,-0.76 3.81,0.04 4.57,1.8 0.77,1.76 -0.04,3.81 -1.79,4.57 -24.25,10.56 -33.02,35.63 -36.33,49.04z"/>
   <path class="fil17" d="M130.84 183.2c9.33,-19.63 36.48,-38.52 53.59,-39.65 1.92,-0.12 3.57,1.33 3.69,3.25 0.12,1.92 -1.34,3.57 -3.25,3.69 -28.96,1.91 -46.65,22.63 -54.03,32.71z"/>
   <path class="fil18" d="M137.97 187.86c7.67,-5.63 23.96,-6.53 32.16,1.42 1.37,1.34 1.4,3.54 0.07,4.92 -1.34,1.37 -3.54,1.4 -4.91,0.06 -10.83,-10.49 -21.14,-7.8 -27.32,-6.4z"/>
   <path class="fil19" d="M90.14 140.06c-1.87,-0.47 -3,-2.36 -2.53,-4.22 0.46,-1.86 2.35,-3 4.21,-2.53 15.01,3.8 26.04,24.07 26.63,35.62 -2.15,-2.38 -7.01,-23.48 -28.31,-28.87z"/>
  </g>
 </g>
</svg>
