<?xml version="1.0" encoding="UTF-8"?>
<!DOCTYPE svg PUBLIC "-//W3C//DTD SVG 1.1//EN" "http://www.w3.org/Graphics/SVG/1.1/DTD/svg11.dtd">
<!-- Creator: CorelDRAW -->
<svg xmlns="http://www.w3.org/2000/svg" xml:space="preserve" width="250px" height="250px" version="1.1" style="shape-rendering:geometricPrecision; text-rendering:geometricPrecision; image-rendering:optimizeQuality; fill-rule:evenodd; clip-rule:evenodd"
viewBox="0 0 250 250"
 xmlns:xlink="http://www.w3.org/1999/xlink"
 xmlns:xodm="http://www.corel.com/coreldraw/odm/2003">
 <defs>
  <style type="text/css">
   <![CDATA[
    .fil1 {fill:url(#id0)}
    .fil4 {fill:url(#id1)}
    .fil2 {fill:url(#id2)}
    .fil0 {fill:url(#id3)}
    .fil3 {fill:url(#id4)}
   ]]>
  </style>
  <linearGradient id="id0" gradientUnits="userSpaceOnUse" x1="83.61" y1="73.26" x2="166.39" y2="176.74">
   <stop offset="0" style="stop-opacity:1; stop-color:#273C75"/>
   <stop offset="1" style="stop-opacity:1; stop-color:#192A56"/>
  </linearGradient>
  <linearGradient id="id1" gradientUnits="userSpaceOnUse" xlink:href="#id0" x1="104.16" y1="89.53" x2="145.84" y2="159.52">
  </linearGradient>
  <linearGradient id="id2" gradientUnits="userSpaceOnUse" x1="87.21" y1="76.91" x2="162.79" y2="173.09">
   <stop offset="0" style="stop-opacity:1; stop-color:#F5F6FA"/>
   <stop offset="1" style="stop-opacity:1; stop-color:#DCDDE1"/>
  </linearGradient>
  <linearGradient id="id3" gradientUnits="userSpaceOnUse" x1="45.27" y1="-61.54" x2="204.73" y2="311.54">
   <stop offset="0" style="stop-opacity:1; stop-color:#FD79A8"/>
   <stop offset="1" style="stop-opacity:1; stop-color:#E84393"/>
  </linearGradient>
  <linearGradient id="id4" gradientUnits="userSpaceOnUse" xlink:href="#id2" x1="195.23" y1="102.58" x2="124.77" y2="147.42">
  </linearGradient>
 </defs>
 <g id="Слой_x0020_1">
  <metadata id="CorelCorpID_0Corel-Layer"/>
  <g id="_2256799050080">
   <path class="fil0" d="M125 0c69.04,0 125,55.96 125,125 0,69.04 -55.96,125 -125,125 -69.04,0 -125,-55.96 -125,-125 0,-69.04 55.96,-125 125,-125z"/>
   <path class="fil1" d="M60 65l130 0c5.5,0 10,4.5 10,10l0 100c0,5.5 -4.5,10 -10,10l-130 0c-5.5,0 -10,-4.5 -10,-10l0 -100c0,-5.5 4.5,-10 10,-10z"/>
   <path class="fil2" d="M60 70l130 0c2.75,0 5,2.25 5,5l0 100c0,2.75 -2.25,5 -5,5l-130 0c-2.75,0 -5,-2.25 -5,-5l0 -100c0,-2.75 2.25,-5 5,-5z"/>
   <path class="fil3" d="M190 70l-65 0 0 110 65 0c2.75,0 5,-2.25 5,-5l0 -100c0,-2.75 -2.25,-5 -5,-5z"/>
   <path class="fil4" d="M177.29 150.04c2.21,0 4,1.79 4,4 0,2.21 -1.79,4 -4,4l-38.76 0c-2.21,0 -4,-1.79 -4,-4 0,-2.21 1.79,-4 4,-4l38.76 0zm-19.38 -59.04c2.21,0 4,1.79 4,4 0,2.21 -1.79,4 -4,4 -2.21,0 -4,-1.79 -4,-4 0,-2.21 1.79,-4 4,-4zm-4 15.36c0,-2.21 1.79,-4 4,-4 2.21,0 4,1.79 4,4l0 18.64c0,2.21 -1.79,4 -4,4 -2.21,0 -4,-1.79 -4,-4l0 -18.64zm-81.2 -7.36c-2.21,0 -4,-1.79 -4,-4 0,-2.21 1.79,-4 4,-4l38.76 0c2.21,0 4,1.79 4,4 0,2.21 -1.79,4 -4,4l-38.76 0zm0 45c-2.21,0 -4,-1.79 -4,-4 0,-2.21 1.79,-4 4,-4l38.76 0c2.21,0 4,1.79 4,4 0,2.21 -1.79,4 -4,4l-38.76 0zm0 14.04c-2.21,0 -4,-1.79 -4,-4 0,-2.21 1.79,-4 4,-4l38.76 0c2.21,0 4,1.79 4,4 0,2.21 -1.79,4 -4,4l-38.76 0zm38.76 -52.04c2.21,0 4,1.79 4,4 0,2.21 -1.79,4 -4,4l-38.76 0c-2.21,0 -4,-1.79 -4,-4 0,-2.21 1.79,-4 4,-4l38.76 0zm0 15c2.21,0 4,1.79 4,4 0,2.21 -1.79,4 -4,4l-38.76 0c-2.21,0 -4,-1.79 -4,-4 0,-2.21 1.79,-4 4,-4l38.76 0zm65.82 15c2.21,0 4,1.79 4,4 0,2.21 -1.79,4 -4,4l-38.76 0c-2.21,0 -4,-1.79 -4,-4 0,-2.21 1.79,-4 4,-4l38.76 0z"/>
  </g>
 </g>
</svg>
