<?xml version="1.0" encoding="UTF-8"?>
<!DOCTYPE svg PUBLIC "-//W3C//DTD SVG 1.1//EN" "http://www.w3.org/Graphics/SVG/1.1/DTD/svg11.dtd">
<!-- Creator: CorelDRAW -->
<svg xmlns="http://www.w3.org/2000/svg" xml:space="preserve" width="250px" height="250px" version="1.1" style="shape-rendering:geometricPrecision; text-rendering:geometricPrecision; image-rendering:optimizeQuality; fill-rule:evenodd; clip-rule:evenodd"
viewBox="0 0 250 250"
 xmlns:xlink="http://www.w3.org/1999/xlink"
 xmlns:xodm="http://www.corel.com/coreldraw/odm/2003">
 <defs>
  <style type="text/css">
   <![CDATA[
    .fil4 {fill:#FBC531}
    .fil10 {fill:url(#id0)}
    .fil0 {fill:url(#id1)}
    .fil2 {fill:url(#id2)}
    .fil5 {fill:url(#id3)}
    .fil6 {fill:url(#id4)}
    .fil7 {fill:url(#id5)}
    .fil9 {fill:url(#id6)}
    .fil8 {fill:url(#id7)}
    .fil1 {fill:url(#id8)}
    .fil3 {fill:url(#id9)}
   ]]>
  </style>
  <linearGradient id="id0" gradientUnits="userSpaceOnUse" x1="96.13" y1="56.32" x2="165.78" y2="145.1">
   <stop offset="0" style="stop-opacity:1; stop-color:#F5F6FA"/>
   <stop offset="1" style="stop-opacity:1; stop-color:#DCDDE1"/>
  </linearGradient>
  <linearGradient id="id1" gradientUnits="userSpaceOnUse" x1="45.27" y1="-61.54" x2="204.73" y2="311.54">
   <stop offset="0" style="stop-opacity:1; stop-color:#74B9FF"/>
   <stop offset="1" style="stop-opacity:1; stop-color:#0984E3"/>
  </linearGradient>
  <linearGradient id="id2" gradientUnits="userSpaceOnUse" x1="127.06" y1="151.39" x2="150.83" y2="138.18">
   <stop offset="0" style="stop-opacity:1; stop-color:#353B48"/>
   <stop offset="1" style="stop-opacity:1; stop-color:#2F3640"/>
  </linearGradient>
  <linearGradient id="id3" gradientUnits="userSpaceOnUse" x1="147.29" y1="120.55" x2="155.58" y2="120.55">
   <stop offset="0" style="stop-opacity:1; stop-color:#4CD137"/>
   <stop offset="1" style="stop-opacity:1; stop-color:#44BD32"/>
  </linearGradient>
  <linearGradient id="id4" gradientUnits="objectBoundingBox" x1="8.56917%" y1="50.0017%" x2="91.4343%" y2="50.0017%">
   <stop offset="0" style="stop-opacity:1; stop-color:#9C88FF"/>
   <stop offset="1" style="stop-opacity:1; stop-color:#8C7AE6"/>
  </linearGradient>
  <linearGradient id="id5" gradientUnits="userSpaceOnUse" x1="60.07" y1="112.93" x2="68.36" y2="112.93">
   <stop offset="0" style="stop-opacity:1; stop-color:#E84118"/>
   <stop offset="1" style="stop-opacity:1; stop-color:#C23616"/>
  </linearGradient>
  <linearGradient id="id6" gradientUnits="userSpaceOnUse" xlink:href="#id3" x1="69" y1="138.14" x2="73.95" y2="143.09">
  </linearGradient>
  <linearGradient id="id7" gradientUnits="userSpaceOnUse" xlink:href="#id5" x1="154.16" y1="93.06" x2="159.11" y2="98.01">
  </linearGradient>
  <linearGradient id="id8" gradientUnits="userSpaceOnUse" xlink:href="#id0" x1="92.05" y1="111.74" x2="115.13" y2="107.12">
  </linearGradient>
  <linearGradient id="id9" gradientUnits="userSpaceOnUse" xlink:href="#id0" x1="162.76" y1="182.45" x2="185.84" y2="177.83">
  </linearGradient>
 </defs>
 <g id="Слой_x0020_1">
  <metadata id="CorelCorpID_0Corel-Layer"/>
  <g id="_2220854453088">
   <path class="fil0" d="M125 0c69.04,0 125,55.96 125,125 0,69.04 -55.96,125 -125,125 -69.04,0 -125,-55.96 -125,-125 0,-69.04 55.96,-125 125,-125z"/>
   <path class="fil1" d="M89.45 102.36l7.07 -7.07c1.94,-1.95 5.12,-1.95 7.07,0l17.68 17.68 -14.14 14.14 -17.68 -17.68c-1.95,-1.94 -1.95,-5.12 0,-7.07z"/>
   <polygon class="fil2" points="107.13,127.11 121.27,112.97 170.77,162.46 156.62,176.61 "/>
   <path class="fil3" d="M156.62 176.61l14.14 -14.15 17.68 17.68c1.95,1.95 1.95,5.13 0,7.07l-7.07 7.07c-1.94,1.95 -5.13,1.95 -7.07,0l-17.68 -17.67z"/>
   <path class="fil4" d="M130.33 71.68l-0.91 4.25 3.77 2.17c0.62,0.36 0.83,1.14 0.47,1.76 -0.21,0.37 -0.58,0.59 -0.98,0.64l0 0 -4.33 0.45 -0.9 4.26c-0.14,0.69 -0.83,1.14 -1.53,0.99 -0.45,-0.1 -0.8,-0.42 -0.94,-0.83l-1.73 -3.89 -4.33 0.46c-0.7,0.08 -1.34,-0.44 -1.41,-1.14 -0.05,-0.43 0.12,-0.83 0.42,-1.09l-0.01 -0.01 3.24 -2.9 -1.77 -3.98c-0.3,-0.65 0,-1.41 0.65,-1.7 0.42,-0.19 0.89,-0.13 1.25,0.11l3.69 2.14 3.22 -2.92c0.53,-0.48 1.35,-0.44 1.82,0.09 0.29,0.32 0.39,0.74 0.31,1.14z"/>
   <path class="fil4" d="M98.55 146.01l0.22 4.35 4.21 1.12c0.69,0.18 1.09,0.89 0.91,1.58 -0.11,0.41 -0.41,0.72 -0.78,0.87l0 0 -4.07 1.55 0.24 4.35c0.03,0.71 -0.51,1.32 -1.22,1.35 -0.47,0.03 -0.89,-0.19 -1.13,-0.55l-2.68 -3.31 -4.06 1.56c-0.66,0.26 -1.41,-0.07 -1.66,-0.74 -0.16,-0.4 -0.1,-0.82 0.12,-1.16l-0.01 0 2.38 -3.65 -2.74 -3.37c-0.45,-0.56 -0.37,-1.37 0.19,-1.82 0.36,-0.29 0.82,-0.36 1.23,-0.22l4.12 1.11 2.36 -3.65c0.38,-0.6 1.18,-0.77 1.78,-0.39 0.36,0.24 0.57,0.62 0.59,1.02z"/>
   <path class="fil5" d="M147.04 119.09l2.93 -2.93c0.81,-0.81 2.13,-0.81 2.93,0l2.93 2.93c0.81,0.8 0.81,2.12 0,2.93l-2.93 2.93c-0.8,0.8 -2.12,0.8 -2.93,0l-2.93 -2.93c-0.8,-0.81 -0.8,-2.13 0,-2.93z"/>
   <path class="fil6" d="M117.43 164.72l2.93 -2.93c0.8,-0.8 2.12,-0.8 2.93,0l2.93 2.93c0.8,0.81 0.8,2.13 0,2.93l-2.93 2.93c-0.81,0.81 -2.13,0.81 -2.93,0l-2.93 -2.93c-0.81,-0.8 -0.81,-2.12 0,-2.93z"/>
   <path class="fil7" d="M59.82 111.46l2.93 -2.93c0.8,-0.8 2.12,-0.8 2.93,0l2.93 2.93c0.8,0.81 0.8,2.13 0,2.93l-2.93 2.93c-0.81,0.81 -2.13,0.81 -2.93,0l-2.93 -2.93c-0.81,-0.8 -0.81,-2.12 0,-2.93z"/>
   <path class="fil6" d="M79.87 81.15l2.93 -2.93c0.81,-0.8 2.12,-0.8 2.93,0l2.93 2.93c0.81,0.81 0.81,2.13 0,2.93l-2.93 2.93c-0.81,0.81 -2.12,0.81 -2.93,0l-2.93 -2.93c-0.81,-0.8 -0.81,-2.12 0,-2.93z"/>
   <path class="fil8" d="M156.64 92.04c1.93,0 3.5,1.57 3.5,3.5 0,1.93 -1.57,3.5 -3.5,3.5 -1.94,0 -3.5,-1.57 -3.5,-3.5 0,-1.93 1.56,-3.5 3.5,-3.5z"/>
   <path class="fil9" d="M71.47 137.11c1.94,0 3.5,1.57 3.5,3.51 0,1.93 -1.56,3.5 -3.5,3.5 -1.93,0 -3.5,-1.57 -3.5,-3.5 0,-1.94 1.57,-3.51 3.5,-3.51z"/>
   <path class="fil10" d="M75.21 81.46c-4.22,5.03 -11.87,-1.38 -7.66,-6.4 51.16,-60.99 150.87,-0.34 123.32,71.76 -2.66,6.96 -5.25,5.3 -3.23,-0.25 23.78,-65.42 -65.13,-121.5 -112.43,-65.11z"/>
  </g>
 </g>
</svg>
