<?xml version="1.0" encoding="UTF-8"?>
<!DOCTYPE svg PUBLIC "-//W3C//DTD SVG 1.1//EN" "http://www.w3.org/Graphics/SVG/1.1/DTD/svg11.dtd">
<!-- Creator: CorelDRAW -->
<svg xmlns="http://www.w3.org/2000/svg" xml:space="preserve" width="250px" height="250px" version="1.1" style="shape-rendering:geometricPrecision; text-rendering:geometricPrecision; image-rendering:optimizeQuality; fill-rule:evenodd; clip-rule:evenodd"
viewBox="0 0 250 250"
 xmlns:xlink="http://www.w3.org/1999/xlink"
 xmlns:xodm="http://www.corel.com/coreldraw/odm/2003">
 <defs>
  <style type="text/css">
   <![CDATA[
    .fil8 {fill:url(#id0)}
    .fil9 {fill:url(#id1)}
    .fil1 {fill:url(#id2)}
    .fil2 {fill:url(#id3)}
    .fil0 {fill:url(#id4)}
    .fil3 {fill:url(#id5)}
    .fil5 {fill:url(#id6)}
    .fil7 {fill:url(#id7)}
    .fil6 {fill:url(#id8)}
    .fil4 {fill:url(#id9)}
   ]]>
  </style>
  <linearGradient id="id0" gradientUnits="userSpaceOnUse" x1="120.93" y1="75.9" x2="129.07" y2="84.03">
   <stop offset="0" style="stop-opacity:1; stop-color:#4CD137"/>
   <stop offset="1" style="stop-opacity:1; stop-color:#44BD32"/>
  </linearGradient>
  <linearGradient id="id1" gradientUnits="userSpaceOnUse" x1="124.6" y1="104.6" x2="125.4" y2="108.13">
   <stop offset="0" style="stop-opacity:1; stop-color:#E84118"/>
   <stop offset="1" style="stop-opacity:1; stop-color:#C23616"/>
  </linearGradient>
  <linearGradient id="id2" gradientUnits="userSpaceOnUse" x1="80.96" y1="101.51" x2="169.04" y2="148.49">
   <stop offset="0" style="stop-opacity:1; stop-color:#273C75"/>
   <stop offset="1" style="stop-opacity:1; stop-color:#192A56"/>
  </linearGradient>
  <linearGradient id="id3" gradientUnits="userSpaceOnUse" x1="85.4" y1="105.2" x2="164.6" y2="144.8">
   <stop offset="0" style="stop-opacity:1; stop-color:#F5F6FA"/>
   <stop offset="1" style="stop-opacity:1; stop-color:#DCDDE1"/>
  </linearGradient>
  <linearGradient id="id4" gradientUnits="userSpaceOnUse" x1="45.27" y1="-61.54" x2="204.73" y2="311.54">
   <stop offset="0" style="stop-opacity:1; stop-color:#55EFC4"/>
   <stop offset="1" style="stop-opacity:1; stop-color:#00B894"/>
  </linearGradient>
  <linearGradient id="id5" gradientUnits="userSpaceOnUse" x1="121.96" y1="158.1" x2="128.04" y2="177.05">
   <stop offset="0" style="stop-opacity:1; stop-color:#00A8FF"/>
   <stop offset="1" style="stop-opacity:1; stop-color:#0097E6"/>
  </linearGradient>
  <linearGradient id="id6" gradientUnits="userSpaceOnUse" x1="122.72" y1="125.88" x2="130.59" y2="136.81">
   <stop offset="0" style="stop-opacity:1; stop-color:#FBC531"/>
   <stop offset="1" style="stop-opacity:1; stop-color:#E1B12C"/>
  </linearGradient>
  <linearGradient id="id7" gradientUnits="userSpaceOnUse" xlink:href="#id0" x1="112.71" y1="76.85" x2="123.59" y2="83.09">
  </linearGradient>
  <linearGradient id="id8" gradientUnits="userSpaceOnUse" xlink:href="#id1" x1="112.71" y1="103.25" x2="123.59" y2="109.49">
  </linearGradient>
  <linearGradient id="id9" gradientUnits="userSpaceOnUse" xlink:href="#id6" x1="112.71" y1="129.65" x2="123.59" y2="135.89">
  </linearGradient>
 </defs>
 <g id="Слой_x0020_1">
  <metadata id="CorelCorpID_0Corel-Layer"/>
  <g id="_2653689094128">
   <path class="fil0" d="M125 0c69.04,0 125,55.96 125,125 0,69.04 -55.96,125 -125,125 -69.04,0 -125,-55.96 -125,-125 0,-69.04 55.96,-125 125,-125z"/>
   <path class="fil1" d="M95 50l60 0c5.5,0 10,4.5 10,10l0 130c0,5.5 -4.5,10 -10,10l-60 0c-5.5,0 -10,-4.5 -10,-10l0 -130c0,-5.5 4.5,-10 10,-10z"/>
   <path class="fil2" d="M95 55l60 0c2.75,0 5,2.25 5,5l0 130c0,2.75 -2.25,5 -5,5l-60 0c-2.75,0 -5,-2.25 -5,-5l0 -130c0,-2.75 2.25,-5 5,-5z"/>
   <path class="fil3" d="M135.31 174.96c-0.73,0 -1.32,-0.59 -1.32,-1.31 0,-0.73 0.59,-1.32 1.32,-1.32l11.38 0c0.73,0 1.32,0.59 1.32,1.32 0,0.72 -0.59,1.31 -1.32,1.31l-11.38 0zm-32 -12.14c-0.73,0 -1.32,-0.59 -1.32,-1.32 0,-0.72 0.59,-1.31 1.32,-1.31l18.33 0c0.73,0 1.32,0.59 1.32,1.31 0,0.73 -0.59,1.32 -1.32,1.32l-18.33 0zm23.82 0c-0.73,0 -1.32,-0.59 -1.32,-1.32 0,-0.72 0.59,-1.31 1.32,-1.31l9 0c0.73,0 1.32,0.59 1.32,1.31 0,0.73 -0.59,1.32 -1.32,1.32l-9 0zm14.49 0c-0.73,0 -1.32,-0.59 -1.32,-1.32 0,-0.72 0.59,-1.31 1.32,-1.31l5.07 0c0.73,0 1.32,0.59 1.32,1.31 0,0.73 -0.59,1.32 -1.32,1.32l-5.07 0zm-22.21 6.07c-0.73,0 -1.31,-0.59 -1.31,-1.32 0,-0.72 0.58,-1.31 1.31,-1.31l11.39 0c0.72,0 1.31,0.59 1.31,1.31 0,0.73 -0.59,1.32 -1.31,1.32l-11.39 0zm-16.1 0c-0.73,0 -1.32,-0.59 -1.32,-1.32 0,-0.72 0.59,-1.31 1.32,-1.31l5.07 0c0.73,0 1.32,0.59 1.32,1.31 0,0.73 -0.59,1.32 -1.32,1.32l-5.07 0zm32 0c-0.73,0 -1.32,-0.59 -1.32,-1.32 0,-0.72 0.59,-1.31 1.32,-1.31l11.38 0c0.73,0 1.32,0.59 1.32,1.31 0,0.73 -0.59,1.32 -1.32,1.32l-11.38 0zm-22.42 0c-0.73,0 -1.32,-0.59 -1.32,-1.32 0,-0.72 0.59,-1.31 1.32,-1.31l2.01 0c0.73,0 1.32,0.59 1.32,1.31 0,0.73 -0.59,1.32 -1.32,1.32l-2.01 0zm-9.58 6.07c-0.73,0 -1.32,-0.59 -1.32,-1.31 0,-0.73 0.59,-1.32 1.32,-1.32l11.38 0c0.73,0 1.32,0.59 1.32,1.32 0,0.72 -0.59,1.31 -1.32,1.31l-11.38 0zm16 0c-0.73,0 -1.32,-0.59 -1.32,-1.31 0,-0.73 0.59,-1.32 1.32,-1.32l11.38 0c0.73,0 1.32,0.59 1.32,1.32 0,0.72 -0.59,1.31 -1.32,1.31l-11.38 0z"/>
   <path class="fil4" d="M121.94 123.86c0.73,0 1.32,0.59 1.32,1.32 0,0.73 -0.59,1.32 -1.32,1.32l-6.27 0 0 12.55 6.27 0c0.73,0 1.32,0.59 1.32,1.31 0,0.73 -0.59,1.32 -1.32,1.32l-7.59 0c-0.72,0 -1.31,-0.59 -1.31,-1.32l0 -15.18c0,-0.73 0.59,-1.32 1.31,-1.32l7.59 0z"/>
   <path class="fil5" d="M118.89 132.27c-0.51,-0.51 -0.51,-1.34 0,-1.86 0.52,-0.51 1.35,-0.51 1.86,0l3.63 3.63 8.18 -8.18c0.51,-0.51 1.34,-0.51 1.85,0 0.52,0.51 0.52,1.35 0,1.86l-9.1 9.11c-0.52,0.51 -1.35,0.51 -1.86,0l-4.56 -4.56z"/>
   <path class="fil6" d="M121.94 97.46c0.73,0 1.32,0.59 1.32,1.32 0,0.72 -0.59,1.31 -1.32,1.31l-6.27 0 0 12.55 6.27 0c0.73,0 1.32,0.59 1.32,1.32 0,0.72 -0.59,1.31 -1.32,1.31l-7.59 0c-0.72,0 -1.31,-0.59 -1.31,-1.31l0 -15.18c0,-0.73 0.59,-1.32 1.31,-1.32l7.59 0z"/>
   <path class="fil7" d="M121.94 71.06c0.73,0 1.32,0.59 1.32,1.32 0,0.72 -0.59,1.31 -1.32,1.31l-6.27 0 0 12.55 6.27 0c0.73,0 1.32,0.59 1.32,1.32 0,0.72 -0.59,1.31 -1.32,1.31l-7.59 0c-0.72,0 -1.31,-0.59 -1.31,-1.31l0 -15.18c0,-0.73 0.59,-1.32 1.31,-1.32l7.59 0z"/>
   <path class="fil8" d="M120.56 81.28l3.13 0 0 3.12c0,0.73 0.58,1.32 1.31,1.32 0.73,0 1.32,-0.59 1.32,-1.32l0 -3.12 3.12 0c0.72,0 1.31,-0.59 1.31,-1.31 0,-0.73 -0.59,-1.32 -1.31,-1.32l-3.12 0 0 -3.12c0,-0.73 -0.59,-1.32 -1.32,-1.32 -0.73,0 -1.31,0.59 -1.31,1.32l0 3.12 -3.13 0c-0.72,0 -1.31,0.59 -1.31,1.32 0,0.72 0.59,1.31 1.31,1.31z"/>
   <path class="fil9" d="M120.56 107.68l8.88 0c0.72,0 1.31,-0.59 1.31,-1.31 0,-0.73 -0.59,-1.32 -1.31,-1.32l-8.88 0c-0.72,0 -1.31,0.59 -1.31,1.32 0,0.72 0.59,1.31 1.31,1.31z"/>
  </g>
 </g>
</svg>
