<?xml version="1.0" encoding="UTF-8"?>
<!DOCTYPE svg PUBLIC "-//W3C//DTD SVG 1.1//EN" "http://www.w3.org/Graphics/SVG/1.1/DTD/svg11.dtd">
<!-- Creator: CorelDRAW -->
<svg xmlns="http://www.w3.org/2000/svg" xml:space="preserve" width="250px" height="250px" version="1.1" style="shape-rendering:geometricPrecision; text-rendering:geometricPrecision; image-rendering:optimizeQuality; fill-rule:evenodd; clip-rule:evenodd"
viewBox="0 0 250 250"
 xmlns:xlink="http://www.w3.org/1999/xlink"
 xmlns:xodm="http://www.corel.com/coreldraw/odm/2003">
 <defs>
  <style type="text/css">
   <![CDATA[
    .fil1 {fill:url(#id0)}
    .fil2 {fill:url(#id1)}
    .fil0 {fill:url(#id2)}
    .fil3 {fill:url(#id3)}
    .fil4 {fill:url(#id4)}
   ]]>
  </style>
  <linearGradient id="id0" gradientUnits="userSpaceOnUse" x1="96.19" y1="90.16" x2="153.81" y2="156.22">
   <stop offset="0" style="stop-opacity:1; stop-color:#273C75"/>
   <stop offset="1" style="stop-opacity:1; stop-color:#192A56"/>
  </linearGradient>
  <linearGradient id="id1" gradientUnits="userSpaceOnUse" xlink:href="#id0" x1="123.98" y1="150.16" x2="126.02" y2="170.91">
  </linearGradient>
  <linearGradient id="id2" gradientUnits="userSpaceOnUse" x1="45.27" y1="-61.54" x2="204.73" y2="311.54">
   <stop offset="0" style="stop-opacity:1; stop-color:#DFE6E9"/>
   <stop offset="1" style="stop-opacity:1; stop-color:#B2BEC3"/>
  </linearGradient>
  <linearGradient id="id3" gradientUnits="userSpaceOnUse" xlink:href="#id0" x1="134.48" y1="96.95" x2="157.29" y2="115.42">
  </linearGradient>
  <linearGradient id="id4" gradientUnits="userSpaceOnUse" xlink:href="#id0" x1="92.71" y1="96.95" x2="115.52" y2="115.42">
  </linearGradient>
 </defs>
 <g id="Слой_x0020_1">
  <metadata id="CorelCorpID_0Corel-Layer"/>
  <g id="_2220854439504">
   <path class="fil0" d="M125 0c69.04,0 125,55.96 125,125 0,69.04 -55.96,125 -125,125 -69.04,0 -125,-55.96 -125,-125 0,-69.04 55.96,-125 125,-125z"/>
   <path class="fil1" d="M125 84.41c6,0 17.83,-2.35 24.08,-2.35 13.47,0 20.26,27.6 23.07,77.8l-47.15 4.46 -47.15 -4.46c2.81,-50.2 9.6,-77.8 23.07,-77.8 6.25,0 18.08,2.35 24.08,2.35z"/>
   <path class="fil2" d="M125 167.94c-18.5,0 -33.41,-2.67 -45.64,-4.85 -10.37,-1.85 -18.75,-3.35 -25.28,-2.48 -1.98,0.26 -3.79,-1.13 -4.05,-3.11 -0.26,-1.98 1.14,-3.78 3.11,-4.05 7.71,-1.02 16.55,0.55 27.49,2.51 11.95,2.13 26.51,4.74 44.37,4.74 17.86,0 32.42,-2.61 44.37,-4.74 10.94,-1.96 19.78,-3.53 27.49,-2.51 1.97,0.27 3.37,2.07 3.11,4.05 -0.26,1.98 -2.07,3.37 -4.05,3.11 -6.53,-0.87 -14.91,0.63 -25.28,2.48 -12.23,2.18 -27.14,4.85 -45.64,4.85z"/>
   <path class="fil3" d="M135.23 92.17c3.25,-2.61 16.07,-3.36 19.69,-1.26 6.14,3.56 4.56,19.02 2.38,24.51 -4.18,10.52 -13.41,8.61 -19.15,0.62 -3.58,-4.97 -8.9,-19.09 -2.92,-23.87z"/>
   <path class="fil4" d="M114.77 92.17c-3.25,-2.61 -16.07,-3.36 -19.69,-1.26 -6.14,3.56 -4.56,19.02 -2.38,24.51 4.18,10.52 13.41,8.61 19.15,0.62 3.58,-4.97 8.9,-19.09 2.92,-23.87z"/>
  </g>
 </g>
</svg>
