<?xml version="1.0" encoding="UTF-8"?>
<!DOCTYPE svg PUBLIC "-//W3C//DTD SVG 1.1//EN" "http://www.w3.org/Graphics/SVG/1.1/DTD/svg11.dtd">
<!-- Creator: CorelDRAW -->
<svg xmlns="http://www.w3.org/2000/svg" xml:space="preserve" width="250px" height="250px" version="1.1" style="shape-rendering:geometricPrecision; text-rendering:geometricPrecision; image-rendering:optimizeQuality; fill-rule:evenodd; clip-rule:evenodd"
viewBox="0 0 250 250"
 xmlns:xlink="http://www.w3.org/1999/xlink"
 xmlns:xodm="http://www.corel.com/coreldraw/odm/2003">
 <defs>
  <style type="text/css">
   <![CDATA[
    .fil7 {fill:#FF6900;fill-rule:nonzero}
    .fil1 {fill:url(#id0)}
    .fil0 {fill:url(#id1)}
    .fil6 {fill:url(#id2)}
    .fil5 {fill:url(#id3)}
    .fil2 {fill:url(#id4)}
    .fil3 {fill:url(#id5)}
    .fil4 {fill:url(#id6)}
   ]]>
  </style>
  <linearGradient id="id0" gradientUnits="userSpaceOnUse" x1="112.59" y1="168.59" x2="137.41" y2="177.87">
   <stop offset="0" style="stop-opacity:1; stop-color:#FBC531"/>
   <stop offset="1" style="stop-opacity:1; stop-color:#E1B12C"/>
  </linearGradient>
  <linearGradient id="id1" gradientUnits="userSpaceOnUse" x1="45.27" y1="-61.54" x2="204.73" y2="311.54">
   <stop offset="0" style="stop-opacity:1; stop-color:#74B9FF"/>
   <stop offset="1" style="stop-opacity:1; stop-color:#0984E3"/>
  </linearGradient>
  <linearGradient id="id2" gradientUnits="userSpaceOnUse" x1="76.27" y1="164.43" x2="77.68" y2="172.49">
   <stop offset="0" style="stop-opacity:1; stop-color:#F5F6FA"/>
   <stop offset="1" style="stop-opacity:1; stop-color:#DCDDE1"/>
  </linearGradient>
  <linearGradient id="id3" gradientUnits="userSpaceOnUse" x1="74.01" y1="165.74" x2="91.43" y2="197.02">
   <stop offset="0" style="stop-opacity:1; stop-color:#7F8FA6"/>
   <stop offset="1" style="stop-opacity:1; stop-color:#718093"/>
  </linearGradient>
  <linearGradient id="id4" gradientUnits="userSpaceOnUse" xlink:href="#id2" x1="92.5" y1="60.51" x2="157.5" y2="131.8">
  </linearGradient>
  <linearGradient id="id5" gradientUnits="userSpaceOnUse" x1="120.66" y1="91.42" x2="129.34" y2="118.68">
   <stop offset="0" style="stop-opacity:1; stop-color:#273C75"/>
   <stop offset="1" style="stop-opacity:1; stop-color:#192A56"/>
  </linearGradient>
  <linearGradient id="id6" gradientUnits="userSpaceOnUse" xlink:href="#id5" x1="158.66" y1="168.05" x2="160.02" y2="174.85">
  </linearGradient>
 </defs>
 <g id="Слой_x0020_1">
  <metadata id="CorelCorpID_0Corel-Layer"/>
  <g id="_2556870356944">
   <path class="fil0" d="M125 0c69.04,0 125,55.96 125,125 0,69.04 -55.96,125 -125,125 -69.04,0 -125,-55.96 -125,-125 0,-69.04 55.96,-125 125,-125z"/>
   <path class="fil1" d="M125 200c-0.83,0 -1.5,-0.6 -2.24,-1.34 -2.21,-2.21 -4.42,-4.43 -6.64,-6.64 -0.85,-0.85 -1.46,-1.65 -0.91,-4.6 1.34,-7.26 2.71,-14.53 4.05,-21.79 0.51,-2.71 0.24,-3.44 -0.88,-5.23 -0.84,-1.33 -1.73,-2.61 -2.51,-3.97 -0.76,-1.31 -1.06,-2.09 -0.09,-3.76 0.98,-1.7 2.11,-3.32 3.16,-4.97 0.73,-1.14 1.27,-1.24 3.07,-1.24l5.98 0c1.8,0 2.35,0.1 3.07,1.24 1.06,1.65 2.18,3.27 3.17,4.97 0.96,1.67 0.66,2.45 -0.1,3.76 -0.78,1.36 -1.67,2.64 -2.51,3.97 -1.12,1.79 -1.39,2.52 -0.88,5.23 1.34,7.26 2.71,14.53 4.05,21.79 0.55,2.95 -0.06,3.75 -0.91,4.6 -2.21,2.21 -4.42,4.43 -6.64,6.64 -0.74,0.74 -1.41,1.34 -2.24,1.34z"/>
   <path class="fil2" d="M157.51 73.76c5.07,-2.18 8.91,-5.14 13.19,-8.24 8.9,-6.47 4.98,-19.51 -5.7,-14.32 -6.89,3.34 -11.18,10.32 -15.48,16.82 -16.32,-9.42 -32.75,-9.43 -49.03,-0.03 -4.95,-6.73 -8.04,-13.18 -15.48,-16.79 -10.65,-5.18 -14.63,7.73 -5.71,14.32 4.5,3.33 7.97,5.73 13.18,8.27 -5.31,7 -8,17.28 -6.51,25.9 -2.63,3.05 -2.4,3.41 1.09,5.09 -1.34,9.26 -7,21.11 0.08,22.6 4.97,1.05 4.36,-1.38 6.5,-3.31 3.73,12.54 19.13,18.31 31.54,18.23 12.19,-0.07 27.59,-5.8 31.16,-18.23 2.16,1.99 1.8,4.56 6.83,3.24 6.62,-1.75 0.99,-13.56 -0.23,-22.53 3.39,-1.62 3.76,-2.06 1.11,-5.04 1.12,-11.13 -0.71,-16.7 -6.54,-25.98z"/>
   <path class="fil3" d="M120.84 96.07c-9.18,-1.36 -15.08,-2.1 -24.61,-1.31 -2.39,0.19 -3.42,0.37 -3.94,0.6 -0.86,0.37 -0.61,2.25 -0.48,3.03 0.2,1.24 1.6,1.53 2.04,3.11 1.23,4.34 0.77,10.32 5.62,12.75 2.99,1.49 8.7,1.67 11.96,1.17 7,-1.08 9.3,-7.69 11.36,-13.5 0.38,-1.08 0.58,-1.12 0.91,-1.16 0.93,-0.08 1.67,-0.08 2.6,0 0.33,0.04 0.53,0.08 0.91,1.16 2.06,5.81 4.36,12.42 11.36,13.5 3.26,0.5 8.97,0.32 11.96,-1.17 4.85,-2.43 4.39,-8.41 5.62,-12.75 0.44,-1.58 1.84,-1.87 2.04,-3.11 0.13,-0.78 0.38,-2.66 -0.48,-3.03 -0.52,-0.23 -1.55,-0.41 -3.94,-0.6 -9.53,-0.79 -15.43,-0.05 -24.61,1.31 -2.63,0.39 -5.69,0.39 -8.32,0z"/>
   <path class="fil4" d="M148.84 173.95l21 0c1.1,0 2,-0.89 2,-2l0 -1c0,-1.1 -0.9,-2 -2,-2l-21 0c-1.1,0 -2,0.9 -2,2l0 1c0,1.11 0.9,2 2,2z"/>
   <path class="fil5" d="M105.37 195.01c-5.23,-2.37 -10.59,-2.93 -16.03,-1.47 -2.47,0.66 -3.28,0.35 -4.6,-1.23 -7.19,-8.66 -15.99,-16.17 -26.53,-22.25 -1.65,-0.95 -3.02,-2.36 1.96,-2.82 8.54,-0.79 16.73,0.05 24.59,2.54 4.22,1.33 3.88,0.65 6.96,-2 4.39,-3.78 9.91,4.5 16.51,24.86 1.21,3.72 0.3,3.8 -2.86,2.37z"/>
   <path class="fil6" d="M93.79 166.89l-0.15 0.01 -0.01 0 -0.21 0.03 -0.01 0c-0.21,0.03 -0.41,0.09 -0.61,0.17l-0.03 0.01 0 0 -0.19 0.09 -0.02 0.01c-0.14,0.07 -0.28,0.15 -0.42,0.25l0 0 -0.21 0.15 0 0 -0.21 0.17 -0.01 0.01 -0.07 0.06c-2.94,2.56 -2.7,3.23 -6.68,1.99l-0.05 -0.02 -0.15 -0.04 -0.29 -0.09 -0.44 -0.14 0 0 -0.37 -0.11 -0.07 -0.02 -0.3 -0.09 -0.14 -0.04 -0.23 -0.06 -0.22 -0.06 -0.15 -0.05 -0.29 -0.08 -0.09 -0.02 -0.35 -0.09 -0.02 -0.01 -0.37 -0.09 -0.06 -0.02 -0.32 -0.08c-6.72,-1.66 -13.69,-2.16 -20.89,-1.49 2.49,-0.83 20.89,-3.21 33.63,-0.35z"/>
   <path class="fil7" d="M89.09 168c-0.1,0.12 -0.22,0.25 -0.35,0.37 -0.35,0.32 -0.78,0.41 -1.22,0.27 -0.16,-0.05 -0.31,-0.12 -0.46,-0.19 -0.38,-0.2 -0.44,-0.5 -0.16,-0.85 0.11,-0.13 0.23,-0.25 0.36,-0.37 0.35,-0.32 0.78,-0.42 1.22,-0.27 0.16,0.05 0.31,0.11 0.45,0.19 0.39,0.2 0.45,0.5 0.16,0.85zm-1.06 -0.12l0.17 0.07c0.01,0.01 0.02,0 0.02,0l0.34 -0.36c0,-0.01 0,-0.01 0,-0.01l-0.17 -0.08c-0.01,0 -0.02,0 -0.02,0.01l-0.34 0.36c-0.01,0 0,0.01 0,0.01zm-0.88 -0.04l0.16 0.07c0.01,0 0.02,0 0.02,-0.01l0.56 -0.59c0.01,0 0.01,-0.01 0,-0.01l-0.16 -0.07c-0.01,0 -0.02,0 -0.02,0l-0.56 0.6c-0.01,0 -0.01,0.01 0,0.01zm0.55 0.23l0.61 0.26c0,0 0.01,0 0.02,-0.01l0.56 -0.59c0,-0.01 0,-0.02 0,-0.02l-0.16 -0.06c-0.01,-0.01 -0.02,0 -0.03,0l-0.44 0.47c0,0 -0.01,0 -0.02,0l-0.34 -0.14c-0.1,-0.04 -0.07,-0.12 -0.03,-0.15l0.35 -0.38c0.01,-0.01 0.01,-0.01 0,-0.02l-0.16 -0.06c-0.01,0 -0.02,0 -0.02,0l-0.4 0.42c-0.03,0.04 -0.07,0.09 -0.06,0.16 0.01,0.07 0.06,0.1 0.12,0.12z"/>
  </g>
 </g>
</svg>
