<?xml version="1.0" encoding="UTF-8"?>
<!DOCTYPE svg PUBLIC "-//W3C//DTD SVG 1.1//EN" "http://www.w3.org/Graphics/SVG/1.1/DTD/svg11.dtd">
<!-- Creator: CorelDRAW -->
<svg xmlns="http://www.w3.org/2000/svg" xml:space="preserve" width="250px" height="250px" version="1.1" style="shape-rendering:geometricPrecision; text-rendering:geometricPrecision; image-rendering:optimizeQuality; fill-rule:evenodd; clip-rule:evenodd"
viewBox="0 0 250 250"
 xmlns:xlink="http://www.w3.org/1999/xlink"
 xmlns:xodm="http://www.corel.com/coreldraw/odm/2003">
 <defs>
  <style type="text/css">
   <![CDATA[
    .fil0 {fill:url(#id0)}
    .fil2 {fill:url(#id1)}
    .fil5 {fill:url(#id2)}
    .fil4 {fill:url(#id3)}
    .fil6 {fill:url(#id4)}
    .fil1 {fill:url(#id5)}
    .fil3 {fill:url(#id6)}
   ]]>
  </style>
  <linearGradient id="id0" gradientUnits="userSpaceOnUse" x1="45.27" y1="-61.54" x2="204.73" y2="311.54">
   <stop offset="0" style="stop-opacity:1; stop-color:#81ECEC"/>
   <stop offset="1" style="stop-opacity:1; stop-color:#00CEC9"/>
  </linearGradient>
  <linearGradient id="id1" gradientUnits="userSpaceOnUse" x1="162.42" y1="121.76" x2="168.35" y2="140.41">
   <stop offset="0" style="stop-opacity:1; stop-color:#273C75"/>
   <stop offset="1" style="stop-opacity:1; stop-color:#192A56"/>
  </linearGradient>
  <linearGradient id="id2" gradientUnits="userSpaceOnUse" x1="92.5" y1="89.36" x2="157.5" y2="160.64">
   <stop offset="0" style="stop-opacity:1; stop-color:#F5F6FA"/>
   <stop offset="1" style="stop-opacity:1; stop-color:#DCDDE1"/>
  </linearGradient>
  <linearGradient id="id3" gradientUnits="userSpaceOnUse" xlink:href="#id1" x1="81.65" y1="121.76" x2="87.58" y2="140.41">
  </linearGradient>
  <linearGradient id="id4" gradientUnits="userSpaceOnUse" x1="120.66" y1="120.27" x2="129.34" y2="147.53">
   <stop offset="0" style="stop-opacity:1; stop-color:#00A8FF"/>
   <stop offset="1" style="stop-opacity:1; stop-color:#0097E6"/>
  </linearGradient>
  <linearGradient id="id5" gradientUnits="userSpaceOnUse" x1="143.17" y1="100.63" x2="187.6" y2="149.37">
   <stop offset="0" style="stop-opacity:1; stop-color:#7F8FA6"/>
   <stop offset="1" style="stop-opacity:1; stop-color:#718093"/>
  </linearGradient>
  <linearGradient id="id6" gradientUnits="userSpaceOnUse" xlink:href="#id5" x1="62.4" y1="100.63" x2="106.83" y2="149.37">
  </linearGradient>
 </defs>
 <g id="Слой_x0020_1">
  <metadata id="CorelCorpID_0Corel-Layer"/>
  <g id="_2556538831344">
   <path class="fil0" d="M125 0c69.04,0 125,55.96 125,125 0,69.04 -55.96,125 -125,125 -69.04,0 -125,-55.96 -125,-125 0,-69.04 55.96,-125 125,-125z"/>
   <path class="fil1" d="M187.61 109.69c3.47,-1.49 6.09,-3.51 9.02,-5.64 6.09,-4.42 3.41,-13.34 -3.9,-9.79 -4.7,2.29 -7.64,7.06 -10.58,11.5 -11.16,-6.43 -22.39,-6.44 -33.52,-0.01 -3.39,-4.61 -5.5,-9.02 -10.59,-11.49 -7.28,-3.54 -10,5.29 -3.91,9.8 3.09,2.27 5.46,3.92 9.02,5.65 -3.63,4.78 -5.47,11.82 -4.45,17.71 -1.8,2.09 -1.64,2.33 0.74,3.48 -0.92,6.33 -4.78,14.43 0.06,15.45 3.39,0.72 2.98,-0.94 4.44,-2.26 2.55,8.57 13.08,12.52 21.57,12.47 8.33,-0.05 18.86,-3.97 21.31,-12.47 1.47,1.36 1.22,3.12 4.67,2.21 4.52,-1.19 0.67,-9.27 -0.16,-15.4 2.32,-1.11 2.57,-1.41 0.75,-3.45 0.77,-7.61 -0.48,-11.42 -4.47,-17.76z"/>
   <path class="fil2" d="M162.54 124.94c-6.28,-0.93 -10.31,-1.43 -16.83,-0.9 -1.63,0.14 -2.33,0.26 -2.69,0.42 -0.59,0.25 -0.42,1.54 -0.33,2.07 0.14,0.85 1.09,1.05 1.4,2.12 0.84,2.98 0.52,7.06 3.84,8.72 2.04,1.02 5.95,1.14 8.17,0.8 4.8,-0.73 6.37,-5.25 7.77,-9.22 0.26,-0.74 0.4,-0.78 0.63,-0.8 0.63,-0.06 1.14,-0.06 1.77,0 0.23,0.02 0.37,0.06 0.63,0.8 1.4,3.97 2.97,8.49 7.77,9.22 2.22,0.34 6.13,0.22 8.17,-0.8 3.32,-1.66 3,-5.74 3.84,-8.72 0.31,-1.07 1.26,-1.27 1.4,-2.12 0.09,-0.53 0.26,-1.82 -0.33,-2.07 -0.36,-0.16 -1.06,-0.28 -2.69,-0.42 -6.52,-0.53 -10.55,-0.03 -16.83,0.9 -1.8,0.27 -3.89,0.27 -5.69,0z"/>
   <path class="fil3" d="M106.85 109.69c3.46,-1.49 6.09,-3.51 9.01,-5.64 6.09,-4.42 3.41,-13.34 -3.9,-9.79 -4.7,2.29 -7.64,7.06 -10.58,11.5 -11.16,-6.43 -22.39,-6.44 -33.52,-0.01 -3.39,-4.61 -5.5,-9.02 -10.59,-11.49 -7.28,-3.54 -10,5.29 -3.9,9.8 3.08,2.27 5.45,3.92 9.01,5.65 -3.63,4.78 -5.47,11.82 -4.45,17.71 -1.8,2.09 -1.64,2.33 0.74,3.48 -0.92,6.33 -4.78,14.43 0.06,15.45 3.39,0.72 2.98,-0.94 4.45,-2.26 2.54,8.57 13.07,12.52 21.56,12.47 8.33,-0.05 18.86,-3.97 21.31,-12.47 1.47,1.36 1.22,3.12 4.67,2.21 4.52,-1.19 0.67,-9.27 -0.16,-15.4 2.32,-1.11 2.57,-1.41 0.75,-3.45 0.77,-7.61 -0.48,-11.42 -4.46,-17.76z"/>
   <path class="fil4" d="M81.77 124.94c-6.28,-0.93 -10.31,-1.43 -16.83,-0.9 -1.63,0.14 -2.33,0.26 -2.69,0.42 -0.59,0.25 -0.42,1.54 -0.33,2.07 0.14,0.85 1.09,1.05 1.4,2.12 0.84,2.98 0.52,7.06 3.84,8.72 2.04,1.02 5.95,1.14 8.18,0.8 4.79,-0.73 6.36,-5.25 7.76,-9.22 0.26,-0.74 0.4,-0.77 0.63,-0.8 0.63,-0.06 1.14,-0.06 1.77,0 0.23,0.03 0.37,0.06 0.63,0.8 1.4,3.97 2.98,8.49 7.77,9.22 2.22,0.34 6.13,0.22 8.17,-0.8 3.32,-1.66 3,-5.74 3.84,-8.72 0.31,-1.07 1.26,-1.27 1.4,-2.12 0.09,-0.53 0.26,-1.82 -0.33,-2.07 -0.36,-0.16 -1.06,-0.28 -2.69,-0.42 -6.52,-0.53 -10.55,-0.03 -16.83,0.9 -1.8,0.27 -3.89,0.27 -5.69,0z"/>
   <path class="fil5" d="M157.51 102.61c5.07,-2.19 8.91,-5.14 13.19,-8.25 8.9,-6.46 4.98,-19.51 -5.7,-14.32 -6.89,3.35 -11.18,10.32 -15.48,16.82 -16.32,-9.41 -32.75,-9.42 -49.03,-0.02 -4.95,-6.74 -8.04,-13.18 -15.48,-16.8 -10.65,-5.17 -14.63,7.74 -5.71,14.33 4.5,3.33 7.97,5.73 13.18,8.26 -5.31,7 -8,17.29 -6.51,25.91 -2.63,3.05 -2.4,3.41 1.09,5.09 -1.34,9.25 -7,21.11 0.08,22.6 4.97,1.04 4.36,-1.38 6.5,-3.31 3.73,12.54 19.13,18.3 31.54,18.23 12.19,-0.07 27.59,-5.8 31.16,-18.23 2.16,1.98 1.8,4.56 6.83,3.23 6.62,-1.74 0.99,-13.56 -0.23,-22.52 3.39,-1.63 3.76,-2.06 1.11,-5.04 1.12,-11.14 -0.71,-16.71 -6.54,-25.98z"/>
   <path class="fil6" d="M120.84 124.92c-9.18,-1.37 -15.08,-2.1 -24.61,-1.32 -2.39,0.2 -3.42,0.38 -3.94,0.61 -0.86,0.37 -0.61,2.25 -0.48,3.03 0.2,1.24 1.6,1.53 2.04,3.1 1.23,4.35 0.77,10.33 5.62,12.75 2.99,1.5 8.7,1.67 11.96,1.18 7,-1.08 9.3,-7.69 11.36,-13.5 0.38,-1.08 0.58,-1.13 0.91,-1.16 0.93,-0.09 1.67,-0.09 2.6,0 0.33,0.03 0.53,0.08 0.91,1.16 2.06,5.81 4.36,12.42 11.36,13.5 3.26,0.49 8.97,0.32 11.96,-1.18 4.85,-2.42 4.39,-8.4 5.62,-12.75 0.44,-1.57 1.84,-1.86 2.04,-3.1 0.13,-0.78 0.38,-2.66 -0.48,-3.03 -0.52,-0.23 -1.55,-0.41 -3.94,-0.61 -9.53,-0.78 -15.43,-0.05 -24.61,1.32 -2.63,0.39 -5.69,0.39 -8.32,0z"/>
  </g>
 </g>
</svg>
