<?xml version="1.0" encoding="UTF-8"?>
<!DOCTYPE svg PUBLIC "-//W3C//DTD SVG 1.1//EN" "http://www.w3.org/Graphics/SVG/1.1/DTD/svg11.dtd">
<!-- Creator: CorelDRAW -->
<svg xmlns="http://www.w3.org/2000/svg" xml:space="preserve" width="250px" height="250px" version="1.1" style="shape-rendering:geometricPrecision; text-rendering:geometricPrecision; image-rendering:optimizeQuality; fill-rule:evenodd; clip-rule:evenodd"
viewBox="0 0 250 250"
 xmlns:xlink="http://www.w3.org/1999/xlink"
 xmlns:xodm="http://www.corel.com/coreldraw/odm/2003">
 <defs>
  <style type="text/css">
   <![CDATA[
    .fil3 {fill:#40739E}
    .fil1 {fill:url(#id0)}
    .fil2 {fill:url(#id1)}
    .fil4 {fill:url(#id2)}
    .fil0 {fill:url(#id3)}
   ]]>
  </style>
  <linearGradient id="id0" gradientUnits="userSpaceOnUse" x1="83.61" y1="88.26" x2="166.39" y2="191.74">
   <stop offset="0" style="stop-opacity:1; stop-color:#273C75"/>
   <stop offset="1" style="stop-opacity:1; stop-color:#192A56"/>
  </linearGradient>
  <linearGradient id="id1" gradientUnits="userSpaceOnUse" x1="56.91" y1="92.21" x2="153.09" y2="167.79">
   <stop offset="0" style="stop-opacity:1; stop-color:#487EB0"/>
   <stop offset="1" style="stop-opacity:1; stop-color:#40739E"/>
  </linearGradient>
  <linearGradient id="id2" gradientUnits="objectBoundingBox" x1="14.6447%" y1="14.6447%" x2="85.3553%" y2="85.3553%">
   <stop offset="0" style="stop-opacity:1; stop-color:#DCDDE1"/>
   <stop offset="1" style="stop-opacity:1; stop-color:#B0B0B0"/>
  </linearGradient>
  <linearGradient id="id3" gradientUnits="userSpaceOnUse" x1="45.27" y1="-61.54" x2="204.73" y2="311.54">
   <stop offset="0" style="stop-opacity:1; stop-color:#81ECEC"/>
   <stop offset="1" style="stop-opacity:1; stop-color:#00CEC9"/>
  </linearGradient>
 </defs>
 <g id="Слой_x0020_1">
  <metadata id="CorelCorpID_0Corel-Layer"/>
  <path class="fil0" d="M125 0c69.04,0 125,55.96 125,125 0,69.04 -55.96,125 -125,125 -69.04,0 -125,-55.96 -125,-125 0,-69.04 55.96,-125 125,-125z"/>
  <path class="fil1" d="M50 80l144 0c3.3,0 6,2.7 6,6l0 94c0,11 -9,20 -20,20l-110 0c-11,0 -20,-9 -20,-20l0 -100z"/>
  <path class="fil2" d="M56 60l98 0c3.3,0 6,2.7 6,6l0 134 -90 0c-11,0 -20,-9 -20,-20l0 -114c0,-3.3 2.7,-6 6,-6z"/>
  <path class="fil3" d="M180 200l-20 0 0 -19.91c0.05,11 8.98,19.91 20,19.91z"/>
  <path class="fil4" d="M62.23 68.23l38.2 0c2.2,0 4,1.8 4,4l0 38.2c0,2.21 -1.8,4 -4,4l-38.2 0c-2.2,0 -4,-1.79 -4,-4l0 -38.2c0,-2.2 1.8,-4 4,-4z"/>
  <path class="fil4" d="M116 81c-2.21,0 -4,-1.79 -4,-4 0,-2.21 1.79,-4 4,-4l32 0c2.21,0 4,1.79 4,4 0,2.21 -1.79,4 -4,4l-32 0z"/>
  <path class="fil4" d="M116 95c-2.21,0 -4,-1.79 -4,-4 0,-2.21 1.79,-4 4,-4l32 0c2.21,0 4,1.79 4,4 0,2.21 -1.79,4 -4,4l-32 0z"/>
  <path class="fil4" d="M116 109c-2.21,0 -4,-1.79 -4,-4 0,-2.21 1.79,-4 4,-4l32 0c2.21,0 4,1.79 4,4 0,2.21 -1.79,4 -4,4l-32 0z"/>
  <path class="fil4" d="M60.86 135c-2.21,0 -4,-1.79 -4,-4 0,-2.21 1.79,-4 4,-4l87.14 0c2.21,0 4,1.79 4,4 0,2.21 -1.79,4 -4,4l-87.14 0z"/>
  <path class="fil4" d="M60.86 149c-2.21,0 -4,-1.79 -4,-4 0,-2.21 1.79,-4 4,-4l87.14 0c2.21,0 4,1.79 4,4 0,2.21 -1.79,4 -4,4l-87.14 0z"/>
  <path class="fil4" d="M60.86 163c-2.21,0 -4,-1.79 -4,-4 0,-2.21 1.79,-4 4,-4l87.14 0c2.21,0 4,1.79 4,4 0,2.21 -1.79,4 -4,4l-87.14 0z"/>
 </g>
</svg>
