<?xml version="1.0" encoding="UTF-8"?>
<!DOCTYPE svg PUBLIC "-//W3C//DTD SVG 1.1//EN" "http://www.w3.org/Graphics/SVG/1.1/DTD/svg11.dtd">
<!-- Creator: CorelDRAW -->
<svg xmlns="http://www.w3.org/2000/svg" xml:space="preserve" width="250px" height="250px" version="1.1" style="shape-rendering:geometricPrecision; text-rendering:geometricPrecision; image-rendering:optimizeQuality; fill-rule:evenodd; clip-rule:evenodd"
viewBox="0 0 250 250"
 xmlns:xlink="http://www.w3.org/1999/xlink"
 xmlns:xodm="http://www.corel.com/coreldraw/odm/2003">
 <defs>
  <style type="text/css">
   <![CDATA[
    .fil11 {fill:white;fill-rule:nonzero}
    .fil0 {fill:url(#id0)}
    .fil10 {fill:url(#id1)}
    .fil6 {fill:url(#id2)}
    .fil9 {fill:url(#id3)}
    .fil7 {fill:url(#id4)}
    .fil1 {fill:url(#id5)}
    .fil8 {fill:url(#id6)}
    .fil2 {fill:url(#id7)}
    .fil3 {fill:url(#id8)}
    .fil4 {fill:url(#id9)}
    .fil5 {fill:url(#id10)}
   ]]>
  </style>
  <linearGradient id="id0" gradientUnits="userSpaceOnUse" x1="45.27" y1="-61.54" x2="204.73" y2="311.54">
   <stop offset="0" style="stop-opacity:1; stop-color:#A29BFE"/>
   <stop offset="1" style="stop-opacity:1; stop-color:#6C5CE7"/>
  </linearGradient>
  <linearGradient id="id1" gradientUnits="userSpaceOnUse" x1="143.46" y1="185.06" x2="155.65" y2="189.94">
   <stop offset="0" style="stop-opacity:1; stop-color:#273C75"/>
   <stop offset="1" style="stop-opacity:1; stop-color:#192A56"/>
  </linearGradient>
  <linearGradient id="id2" gradientUnits="userSpaceOnUse" x1="116.88" y1="60.51" x2="181.87" y2="131.8">
   <stop offset="0" style="stop-opacity:1; stop-color:#F5F6FA"/>
   <stop offset="1" style="stop-opacity:1; stop-color:#DCDDE1"/>
  </linearGradient>
  <linearGradient id="id3" gradientUnits="userSpaceOnUse" x1="146.55" y1="164.34" x2="152.2" y2="175.66">
   <stop offset="0" style="stop-opacity:1; stop-color:#E84118"/>
   <stop offset="1" style="stop-opacity:1; stop-color:#C23616"/>
  </linearGradient>
  <linearGradient id="id4" gradientUnits="userSpaceOnUse" xlink:href="#id1" x1="145.03" y1="91.42" x2="153.72" y2="118.68">
  </linearGradient>
  <linearGradient id="id5" gradientUnits="userSpaceOnUse" xlink:href="#id1" x1="64.65" y1="89.64" x2="135.36" y2="160.35">
  </linearGradient>
  <linearGradient id="id6" gradientUnits="userSpaceOnUse" x1="140.72" y1="145.75" x2="158.39" y2="163.43">
   <stop offset="0" style="stop-opacity:1; stop-color:#FBC531"/>
   <stop offset="1" style="stop-opacity:1; stop-color:#E1B12C"/>
  </linearGradient>
  <linearGradient id="id7" gradientUnits="userSpaceOnUse" x1="82.81" y1="87.18" x2="128.58" y2="150.53">
   <stop offset="0" style="stop-opacity:1; stop-color:#4CD137"/>
   <stop offset="1" style="stop-opacity:1; stop-color:#44BD32"/>
  </linearGradient>
  <linearGradient id="id8" gradientUnits="userSpaceOnUse" xlink:href="#id7" x1="54.59" y1="132.47" x2="90.86" y2="164.56">
  </linearGradient>
  <linearGradient id="id9" gradientUnits="userSpaceOnUse" xlink:href="#id2" x1="90.45" y1="68.85" x2="94.23" y2="87.87">
  </linearGradient>
  <linearGradient id="id10" gradientUnits="userSpaceOnUse" xlink:href="#id2" x1="93.19" y1="169.89" x2="97.86" y2="182.98">
  </linearGradient>
 </defs>
 <g id="Слой_x0020_1">
  <metadata id="CorelCorpID_0Corel-Layer"/>
  <g id="_2556726476784">
   <path class="fil0" d="M125 0c69.04,0 125,55.96 125,125 0,69.04 -55.96,125 -125,125 -69.04,0 -125,-55.96 -125,-125 0,-69.04 55.96,-125 125,-125z"/>
   <path class="fil1" d="M100 75c27.61,0 50,22.38 50,50 0,27.61 -22.39,50 -50,50 -27.61,0 -50,-22.39 -50,-50 0,-27.62 22.39,-50 50,-50z"/>
   <path class="fil2" d="M139.5 94.34c-0.44,-0.06 -0.91,-0.12 -1.41,-0.18 -11.53,-1.34 -12.98,1.39 -23.95,-4.5 -19.19,-10.28 -19.82,-1.55 -35.87,0.76 -4.14,0.6 -19.23,9.48 -19.61,14.28 -0.41,5.13 -0.29,11.65 5.13,13.51 2.55,0.88 1.51,2.06 7.59,3.88 4.74,1.41 1.38,4.94 12.75,5.48 4.89,0.24 11.27,6.89 13.55,10.55 2.45,3.9 3.6,1.79 6.66,6.51 3,4.63 16.75,12.73 21.67,5.31 4.65,-7.02 12.37,-0.57 14.1,-4.54 3.53,-8.06 6.1,-7.72 5.78,-16.52 -0.22,-6.15 1.31,-10.77 2.99,-14.45 -1.6,-7.45 -4.86,-14.28 -9.38,-20.09z"/>
   <path class="fil3" d="M88.62 135.76c0.57,0.09 6.96,3.77 6.96,5.61 0,7.07 -0.79,5.52 -6.24,10.95 -3.81,3.79 -0.18,2.55 -8.2,5.87 -2.59,1.08 -0.55,7.6 -2.51,12.02 -14.08,-6.67 -24.55,-19.72 -27.67,-35.42 0.69,-2.08 1.45,-3.4 1.45,-5.53 0,-4.81 5.41,-6.59 9.18,-6.59 9.32,0 8.56,3.38 13.88,8.18 3.97,3.58 9.71,0.54 13.15,4.91z"/>
   <path class="fil4" d="M73.33 82.7c3.17,0.37 6.42,0.7 9.16,-0.34 6.49,-2.47 14.88,1.06 17.07,-0.27 1.35,-0.82 8.21,-1.35 9.2,-0.66 3.56,2.45 8.5,-0.18 13.02,-1.45 -6.58,-3.19 -13.97,-4.98 -21.78,-4.98 -9.8,0 -18.95,2.82 -26.67,7.7z"/>
   <path class="fil5" d="M86.58 173.17c0.81,-0.69 1.6,-1.41 3.73,-1.87 1.66,-0.36 3.44,0.59 5.93,0.59 1.95,0 8.16,-0.72 9.67,0.29 1.63,1.09 0.45,1.16 2.57,2.1 -2.76,0.47 -5.59,0.72 -8.48,0.72 -4.65,0 -9.15,-0.64 -13.42,-1.83z"/>
   <path class="fil6" d="M181.88 73.76c5.07,-2.18 8.91,-5.14 13.19,-8.24 8.91,-6.47 4.98,-19.51 -5.7,-14.32 -6.88,3.34 -11.17,10.32 -15.48,16.82 -16.31,-9.42 -32.74,-9.43 -49.02,-0.03 -4.96,-6.73 -8.04,-13.18 -15.48,-16.79 -10.66,-5.18 -14.64,7.73 -5.72,14.32 4.51,3.33 7.97,5.73 13.18,8.27 -5.3,7 -7.99,17.28 -6.5,25.9 -2.63,3.05 -2.41,3.41 1.08,5.09 -1.34,9.26 -6.99,21.11 0.08,22.6 4.97,1.05 4.36,-1.38 6.51,-3.31 3.72,12.54 19.13,18.31 31.54,18.23 12.19,-0.07 27.58,-5.8 31.16,-18.23 2.15,1.99 1.79,4.56 6.83,3.24 6.62,-1.75 0.99,-13.56 -0.24,-22.53 3.4,-1.62 3.77,-2.06 1.11,-5.04 1.13,-11.13 -0.71,-16.7 -6.54,-25.98z"/>
   <path class="fil7" d="M145.21 96.07c-9.18,-1.36 -15.07,-2.1 -24.61,-1.31 -2.38,0.19 -3.41,0.37 -3.94,0.6 -0.86,0.37 -0.61,2.25 -0.48,3.03 0.21,1.24 1.6,1.53 2.05,3.11 1.23,4.34 0.76,10.32 5.61,12.75 2.99,1.49 8.71,1.67 11.96,1.17 7.01,-1.08 9.31,-7.69 11.36,-13.5 0.38,-1.08 0.58,-1.12 0.92,-1.16 0.92,-0.08 1.67,-0.08 2.59,0 0.34,0.04 0.54,0.08 0.92,1.16 2.05,5.81 4.35,12.42 11.36,13.5 3.25,0.5 8.97,0.32 11.96,-1.17 4.84,-2.43 4.38,-8.41 5.61,-12.75 0.45,-1.58 1.84,-1.87 2.05,-3.11 0.13,-0.78 0.38,-2.66 -0.48,-3.03 -0.53,-0.23 -1.56,-0.41 -3.94,-0.6 -9.54,-0.79 -15.43,-0.05 -24.61,1.31 -2.64,0.39 -5.69,0.39 -8.33,0z"/>
   <path class="fil8" d="M149.56 142.09c6.9,0 12.5,5.6 12.5,12.5 0,6.9 -5.6,12.5 -12.5,12.5 -6.91,0 -12.5,-5.6 -12.5,-12.5 0,-6.9 5.59,-12.5 12.5,-12.5z"/>
   <path class="fil9" d="M141.37 165l16.01 0c1.1,0 1.99,0.9 1.99,2l0 6c0,1.1 -0.89,2 -1.99,2l-16.01 0c-1.1,0 -1.99,-0.9 -1.99,-2l0 -6c0,-1.1 0.89,-2 1.99,-2z"/>
   <path class="fil10" d="M144.56 175l10 0 0 21c0,2.2 -1.8,4 -4,4l-2.01 0c-2.2,0 -3.99,-1.8 -3.99,-4l0 -21z"/>
   <path class="fil11" d="M148.72 169.31l-1.36 0c-0.05,0 -0.1,0.04 -0.1,0.1l0 3.49c0,0.05 0.05,0.1 0.1,0.1l1.36 0c0.06,0 0.1,-0.05 0.1,-0.1l0 -3.49c0,-0.06 -0.04,-0.1 -0.1,-0.1zm5.33 -2.31l-1.29 0c-0.05,0 -0.1,0.04 -0.1,0.1l0 5.8c0,0.05 0.05,0.1 0.1,0.1l1.29 0c0.06,0 0.1,-0.05 0.1,-0.1l0 -5.8c0,-0.06 -0.04,-0.1 -0.1,-0.1zm-4.42 0l-4.93 0c-0.06,0 -0.1,0.04 -0.1,0.1l0 5.8c0,0.05 0.04,0.1 0.1,0.1l1.29 0c0.05,0 0.1,-0.05 0.1,-0.1l0 -4.55c0,-0.05 0.05,-0.1 0.1,-0.1l2.79 0c0.78,0 1.01,0.59 1.01,0.97l0 3.68c0,0.05 0.04,0.1 0.1,0.1l1.29 0c0.05,0 0.1,-0.05 0.1,-0.1l0 -4.12c0,-0.34 -0.04,-0.82 -0.49,-1.25 -0.46,-0.46 -0.89,-0.53 -1.36,-0.53z"/>
  </g>
 </g>
</svg>
