<?xml version="1.0" encoding="UTF-8"?>
<!DOCTYPE svg PUBLIC "-//W3C//DTD SVG 1.1//EN" "http://www.w3.org/Graphics/SVG/1.1/DTD/svg11.dtd">
<!-- Creator: CorelDRAW -->
<svg xmlns="http://www.w3.org/2000/svg" xml:space="preserve" width="250px" height="250px" version="1.1" style="shape-rendering:geometricPrecision; text-rendering:geometricPrecision; image-rendering:optimizeQuality; fill-rule:evenodd; clip-rule:evenodd"
viewBox="0 0 250 250"
 xmlns:xlink="http://www.w3.org/1999/xlink"
 xmlns:xodm="http://www.corel.com/coreldraw/odm/2003">
 <defs>
  <style type="text/css">
   <![CDATA[
    .fil4 {fill:url(#id0)}
    .fil3 {fill:url(#id1)}
    .fil0 {fill:url(#id2)}
    .fil2 {fill:url(#id3)}
    .fil1 {fill:url(#id4)}
   ]]>
  </style>
  <linearGradient id="id0" gradientUnits="userSpaceOnUse" x1="94.87" y1="52.68" x2="155.13" y2="137.62">
   <stop offset="0" style="stop-opacity:1; stop-color:#F5F6FA"/>
   <stop offset="1" style="stop-opacity:1; stop-color:#DCDDE1"/>
  </linearGradient>
  <linearGradient id="id1" gradientUnits="userSpaceOnUse" x1="123.95" y1="158.21" x2="126.04" y2="137.31">
   <stop offset="0" style="stop-opacity:1; stop-color:#273C75"/>
   <stop offset="1" style="stop-opacity:1; stop-color:#192A56"/>
  </linearGradient>
  <linearGradient id="id2" gradientUnits="userSpaceOnUse" x1="45.27" y1="-61.54" x2="204.73" y2="311.54">
   <stop offset="0" style="stop-opacity:1; stop-color:#A29BFE"/>
   <stop offset="1" style="stop-opacity:1; stop-color:#6C5CE7"/>
  </linearGradient>
  <linearGradient id="id3" gradientUnits="userSpaceOnUse" xlink:href="#id0" x1="127.54" y1="173.08" x2="124.95" y2="152.3">
  </linearGradient>
  <linearGradient id="id4" gradientUnits="userSpaceOnUse" xlink:href="#id1" x1="119.91" y1="204.07" x2="132.57" y2="166.08">
  </linearGradient>
 </defs>
 <g id="Слой_x0020_1">
  <metadata id="CorelCorpID_0Corel-Layer"/>
  <g id="_2689496541664">
   <path class="fil0" d="M125 0c69.04,0 125,55.96 125,125 0,69.04 -55.96,125 -125,125 -69.04,0 -125,-55.96 -125,-125 0,-69.04 55.96,-125 125,-125z"/>
   <path class="fil1" d="M81.47 189.34l0 -19.19 89.55 0 0 19.19c0,5.86 -4.8,10.66 -10.66,10.66l-68.23 0c-5.87,0 -10.66,-4.8 -10.66,-10.66z"/>
   <polygon class="fil2" points="171.02,170.15 81.47,170.15 66.54,155.22 185.95,155.22 "/>
   <path class="fil3" d="M50.37 147.76l0 0c0,-4.1 3.36,-7.46 7.47,-7.46l136.81 0c2.74,0 4.98,2.24 4.98,4.97l0 4.98c0,2.74 -2.24,4.98 -4.98,4.98l-136.81 0c-4.11,0 -7.47,-3.36 -7.47,-7.47z"/>
   <path class="fil4" d="M125 140.3l-22.39 0c0,-12.36 10.03,-22.39 22.39,-22.39 12.36,0 22.39,10.03 22.39,22.39l-22.39 0zm-62.31 -59.75c-0.63,0.75 -1.77,-0.21 -1.14,-0.96 15.73,-18.75 38.97,-29.59 63.45,-29.59 24.49,0 47.72,10.84 63.46,29.59 0.62,0.75 -0.52,1.71 -1.15,0.96 -15.44,-18.42 -38.27,-29.05 -62.31,-29.05 -24.03,0 -46.86,10.63 -62.31,29.05zm13.72 11.51c-3.14,3.74 -8.86,-1.04 -5.71,-4.79 13.46,-16.05 33.34,-25.33 54.3,-25.33 20.96,0 40.84,9.28 54.31,25.33 3.14,3.75 -2.57,8.53 -5.71,4.79 -12.04,-14.36 -29.86,-22.66 -48.6,-22.66 -18.74,0 -36.55,8.3 -48.59,22.66zm17.72 14.86c-5.02,5.99 -14.17,-1.65 -9.14,-7.65 9.92,-11.84 24.56,-18.67 40.01,-18.67 15.45,0 30.09,6.83 40.02,18.67 5.03,6 -4.12,13.65 -9.15,7.65 -7.64,-9.12 -18.97,-14.38 -30.87,-14.38 -11.89,0 -23.23,5.26 -30.87,14.38z"/>
  </g>
 </g>
</svg>
