<?xml version="1.0" encoding="UTF-8"?>
<!DOCTYPE svg PUBLIC "-//W3C//DTD SVG 1.1//EN" "http://www.w3.org/Graphics/SVG/1.1/DTD/svg11.dtd">
<!-- Creator: CorelDRAW -->
<svg xmlns="http://www.w3.org/2000/svg" xml:space="preserve" width="250px" height="250px" version="1.1" style="shape-rendering:geometricPrecision; text-rendering:geometricPrecision; image-rendering:optimizeQuality; fill-rule:evenodd; clip-rule:evenodd"
viewBox="0 0 250 250"
 xmlns:xlink="http://www.w3.org/1999/xlink"
 xmlns:xodm="http://www.corel.com/coreldraw/odm/2003">
 <defs>
  <style type="text/css">
   <![CDATA[
    .fil2 {fill:url(#id0)}
    .fil3 {fill:url(#id1)}
    .fil7 {fill:url(#id2)}
    .fil1 {fill:url(#id3)}
    .fil5 {fill:url(#id4)}
    .fil0 {fill:url(#id5)}
    .fil6 {fill:url(#id6)}
    .fil8 {fill:url(#id7)}
    .fil4 {fill:url(#id8)}
   ]]>
  </style>
  <linearGradient id="id0" gradientUnits="userSpaceOnUse" x1="103.79" y1="106.29" x2="146.21" y2="148.71">
   <stop offset="0" style="stop-opacity:1; stop-color:#353B48"/>
   <stop offset="1" style="stop-opacity:1; stop-color:#2F3640"/>
  </linearGradient>
  <linearGradient id="id1" gradientUnits="userSpaceOnUse" x1="110.86" y1="113.36" x2="139.14" y2="141.64">
   <stop offset="0" style="stop-opacity:1; stop-color:#7F8FA6"/>
   <stop offset="1" style="stop-opacity:1; stop-color:#718093"/>
  </linearGradient>
  <linearGradient id="id2" gradientUnits="userSpaceOnUse" x1="66.44" y1="94.82" x2="68.56" y2="101.18">
   <stop offset="0" style="stop-opacity:1; stop-color:#F5F6FA"/>
   <stop offset="1" style="stop-opacity:1; stop-color:#DCDDE1"/>
  </linearGradient>
  <linearGradient id="id3" gradientUnits="userSpaceOnUse" x1="101.51" y1="83.46" x2="148.49" y2="171.54">
   <stop offset="0" style="stop-opacity:1; stop-color:#E84118"/>
   <stop offset="1" style="stop-opacity:1; stop-color:#C23616"/>
  </linearGradient>
  <linearGradient id="id4" gradientUnits="userSpaceOnUse" xlink:href="#id0" x1="173.46" y1="96.74" x2="186.54" y2="113.26">
  </linearGradient>
  <linearGradient id="id5" gradientUnits="userSpaceOnUse" x1="45.27" y1="-61.54" x2="204.73" y2="311.54">
   <stop offset="0" style="stop-opacity:1; stop-color:#FFEAA7"/>
   <stop offset="1" style="stop-opacity:1; stop-color:#FDCB6E"/>
  </linearGradient>
  <linearGradient id="id6" gradientUnits="userSpaceOnUse" xlink:href="#id1" x1="174.91" y1="98.21" x2="185.09" y2="111.79">
  </linearGradient>
  <linearGradient id="id7" gradientUnits="userSpaceOnUse" xlink:href="#id2" x1="113.74" y1="115.72" x2="120.81" y2="122.8">
  </linearGradient>
  <linearGradient id="id8" gradientUnits="userSpaceOnUse" xlink:href="#id3" x1="79.17" y1="81.67" x2="80.83" y2="88.33">
  </linearGradient>
 </defs>
 <g id="Слой_x0020_1">
  <metadata id="CorelCorpID_0Corel-Layer"/>
  <g id="_2256970723168">
   <path class="fil0" d="M125 0c69.04,0 125,55.96 125,125 0,69.04 -55.96,125 -125,125 -69.04,0 -125,-55.96 -125,-125 0,-69.04 55.96,-125 125,-125z"/>
   <path class="fil1" d="M62 87.5l126 0c6.6,0 12,5.4 12,12l0 56c0,6.6 -5.4,12 -12,12l-126 0c-6.6,0 -12,-5.4 -12,-12l0 -56c0,-6.6 5.4,-12 12,-12z"/>
   <path class="fil2" d="M125 97.5c16.57,0 30,13.43 30,30 0,16.57 -13.43,30 -30,30 -16.57,0 -30,-13.43 -30,-30 0,-16.57 13.43,-30 30,-30z"/>
   <path class="fil3" d="M125 107.5c11.05,0 20,8.95 20,20 0,11.04 -8.95,20 -20,20 -11.05,0 -20,-8.96 -20,-20 0,-11.05 8.95,-20 20,-20z"/>
   <path class="fil4" d="M70 87.5l20 0 0 -3c0,-1.1 -0.9,-2 -2,-2l-16 0c-1.1,0 -2,0.9 -2,2l0 3z"/>
   <path class="fil5" d="M173.07 95.5l13.86 0c2.79,0 5.07,2.28 5.07,5.06l0 8.87c0,2.79 -2.28,5.07 -5.07,5.07l-13.86 0c-2.79,0 -5.07,-2.28 -5.07,-5.07l0 -8.87c0,-2.78 2.28,-5.06 5.07,-5.06z"/>
   <path class="fil6" d="M173 97.5l14 0c1.65,0 3,1.35 3,3l0 9c0,1.65 -1.35,3 -3,3l-14 0c-1.65,0 -3,-1.35 -3,-3l0 -9c0,-1.65 1.35,-3 3,-3z"/>
   <path class="fil7" d="M62 95.5l11 0c1.1,0 2,0.9 2,2l0 1c0,1.1 -0.9,2 -2,2l-11 0c-1.1,0 -2,-0.9 -2,-2l0 -1c0,-1.1 0.9,-2 2,-2z"/>
   <path class="fil8" d="M117.28 114.26c2.76,0 5,2.24 5,5 0,2.76 -2.24,5 -5,5 -2.77,0 -5,-2.24 -5,-5 0,-2.76 2.23,-5 5,-5z"/>
  </g>
 </g>
</svg>
