<?xml version="1.0" encoding="UTF-8"?>
<!DOCTYPE svg PUBLIC "-//W3C//DTD SVG 1.1//EN" "http://www.w3.org/Graphics/SVG/1.1/DTD/svg11.dtd">
<!-- Creator: CorelDRAW -->
<svg xmlns="http://www.w3.org/2000/svg" xml:space="preserve" width="250px" height="250px" version="1.1" style="shape-rendering:geometricPrecision; text-rendering:geometricPrecision; image-rendering:optimizeQuality; fill-rule:evenodd; clip-rule:evenodd"
viewBox="0 0 250 250"
 xmlns:xlink="http://www.w3.org/1999/xlink"
 xmlns:xodm="http://www.corel.com/coreldraw/odm/2003">
 <defs>
  <style type="text/css">
   <![CDATA[
    .fil1 {fill:#192A56}
    .fil14 {fill:url(#id0)}
    .fil13 {fill:url(#id1)}
    .fil16 {fill:url(#id2)}
    .fil10 {fill:url(#id3)}
    .fil7 {fill:url(#id4)}
    .fil12 {fill:url(#id5)}
    .fil8 {fill:url(#id6)}
    .fil6 {fill:url(#id7)}
    .fil9 {fill:url(#id8)}
    .fil4 {fill:url(#id9)}
    .fil0 {fill:url(#id10)}
    .fil2 {fill:url(#id11)}
    .fil11 {fill:url(#id12)}
    .fil3 {fill:url(#id13)}
    .fil15 {fill:url(#id14)}
    .fil5 {fill:url(#id15)}
   ]]>
  </style>
  <linearGradient id="id0" gradientUnits="userSpaceOnUse" x1="86.65" y1="175.03" x2="89.31" y2="175.58">
   <stop offset="0" style="stop-opacity:1; stop-color:#7F8FA6"/>
   <stop offset="1" style="stop-opacity:1; stop-color:#718093"/>
  </linearGradient>
  <linearGradient id="id1" gradientUnits="userSpaceOnUse" x1="108.17" y1="174.93" x2="105.51" y2="175.48">
   <stop offset="0" style="stop-opacity:1; stop-color:#F5F6FA"/>
   <stop offset="1" style="stop-opacity:1; stop-color:#DCDDE1"/>
  </linearGradient>
  <linearGradient id="id2" gradientUnits="userSpaceOnUse" xlink:href="#id1" x1="95.65" y1="182.64" x2="98.69" y2="180.23">
  </linearGradient>
  <linearGradient id="id3" gradientUnits="objectBoundingBox" x1="14.6447%" y1="14.6447%" x2="85.3553%" y2="85.3553%">
   <stop offset="0" style="stop-opacity:1; stop-color:#00A8FF"/>
   <stop offset="1" style="stop-opacity:1; stop-color:#0097E6"/>
  </linearGradient>
  <linearGradient id="id4" gradientUnits="objectBoundingBox" x1="22.0608%" y1="7.22856%" x2="77.9392%" y2="92.7714%">
   <stop offset="0" style="stop-opacity:1; stop-color:#353B48"/>
   <stop offset="1" style="stop-opacity:1; stop-color:#2F3640"/>
  </linearGradient>
  <linearGradient id="id5" gradientUnits="userSpaceOnUse" xlink:href="#id0" x1="91.75" y1="172.38" x2="103.07" y2="178.03">
  </linearGradient>
  <linearGradient id="id6" gradientUnits="objectBoundingBox" x1="14.6447%" y1="14.6447%" x2="85.3553%" y2="85.3553%">
   <stop offset="0" style="stop-opacity:1; stop-color:#4CD137"/>
   <stop offset="1" style="stop-opacity:1; stop-color:#44BD32"/>
  </linearGradient>
  <linearGradient id="id7" gradientUnits="userSpaceOnUse" xlink:href="#id0" x1="96.63" y1="76.84" x2="117.2" y2="93.34">
  </linearGradient>
  <linearGradient id="id8" gradientUnits="objectBoundingBox" x1="14.6405%" y1="14.6488%" x2="85.3595%" y2="85.3512%">
   <stop offset="0" style="stop-opacity:1; stop-color:#E84118"/>
   <stop offset="1" style="stop-opacity:1; stop-color:#C23616"/>
  </linearGradient>
  <linearGradient id="id9" gradientUnits="objectBoundingBox" xlink:href="#id1" x1="0%" y1="44.1619%" x2="114.873%" y2="55.8381%">
  </linearGradient>
  <linearGradient id="id10" gradientUnits="userSpaceOnUse" x1="45.27" y1="-61.54" x2="204.73" y2="311.54">
   <stop offset="0" style="stop-opacity:1; stop-color:#55EFC4"/>
   <stop offset="1" style="stop-opacity:1; stop-color:#00B894"/>
  </linearGradient>
  <linearGradient id="id11" gradientUnits="objectBoundingBox" x1="14.6444%" y1="14.6448%" x2="85.3554%" y2="85.3559%">
   <stop offset="0" style="stop-opacity:1; stop-color:#273C75"/>
   <stop offset="1" style="stop-opacity:1; stop-color:#192A56"/>
  </linearGradient>
  <linearGradient id="id12" gradientUnits="userSpaceOnUse" xlink:href="#id10" x1="81.83" y1="162.78" x2="104.62" y2="185.57">
  </linearGradient>
  <linearGradient id="id13" gradientUnits="objectBoundingBox" xlink:href="#id10" x1="14.6447%" y1="14.6452%" x2="85.355%" y2="85.3556%">
  </linearGradient>
  <linearGradient id="id14" gradientUnits="userSpaceOnUse" xlink:href="#id1" x1="95.29" y1="173.08" x2="99.53" y2="177.33">
  </linearGradient>
  <linearGradient id="id15" gradientUnits="userSpaceOnUse" xlink:href="#id1" x1="135.55" y1="113.04" x2="176.37" y2="153.86">
  </linearGradient>
 </defs>
 <g id="Слой_x0020_1">
  <metadata id="CorelCorpID_0Corel-Layer"/>
  <g id="_2653702372240">
   <path class="fil0" d="M125 0c69.03,0 125,55.96 125,125 0,69.03 -55.97,125 -125,125 -69.03,0 -125,-55.97 -125,-125 0,-69.04 55.97,-125 125,-125z"/>
   <g>
    <g>
     <path class="fil1" d="M95 50l60 0c5.5,0 10,4.5 10,10l0 130c0,5.5 -4.5,10 -10,10l-60 0c-5.5,0 -10,-4.5 -10,-10l0 -130c0,-5.5 4.5,-10 10,-10zm60 1l-60 0c-2.48,0 -4.73,1.01 -6.36,2.64 0,0 0,0 0,0.01 -1.63,1.62 -2.64,3.87 -2.64,6.35l0 130c0,2.48 1.01,4.73 2.64,6.35 0,0.01 0,0.01 0,0.01 1.63,1.63 3.88,2.64 6.36,2.64l60 0c2.48,0 4.73,-1.01 6.36,-2.64 0,0 0,0 0,-0.01 1.63,-1.62 2.64,-3.87 2.64,-6.35l0 -130c0,-2.48 -1.01,-4.73 -2.64,-6.35 0,-0.01 0,-0.01 0,-0.01 -1.63,-1.63 -3.88,-2.64 -6.36,-2.64z"/>
    </g>
    <g>
     <path class="fil1" d="M95 55l60 0c2.75,0 5,2.25 5,5l0 130c0,2.75 -2.25,5 -5,5l-60 0c-2.75,0 -5,-2.25 -5,-5l0 -130c0,-2.75 2.25,-5 5,-5zm60 1l-60 0c-1.1,0 -2.1,0.45 -2.82,1.18l0 -0.01c-0.73,0.73 -1.18,1.73 -1.18,2.83l0 130c0,1.1 0.45,2.1 1.18,2.82 0.72,0.73 1.72,1.18 2.82,1.18l60 0c1.1,0 2.1,-0.45 2.82,-1.18 0.73,-0.72 1.18,-1.72 1.18,-2.82l0 -130c0,-1.08 -0.43,-2.06 -1.13,-2.78 -0.02,-0.02 -0.03,-0.03 -0.05,-0.04 -0.72,-0.73 -1.72,-1.18 -2.82,-1.18z"/>
    </g>
    <g>
     <path class="fil1" d="M97.96 61l0 0 -1 0 -0.03 0 -0.03 0 -0.01 0 -0.03 0 -0.02 0.01 -0.03 0 -0.02 0 -0.03 0.01 -0.03 0.01 -0.03 0 -0.01 0.01 -0.02 0 -0.03 0.01 -0.02 0.01 -0.03 0.01 -0.01 0.01 -0.03 0.01 -0.02 0.01 -0.02 0.01 -0.03 0.01 0.02 -0.01 0 0c-0.12,0.07 -0.25,0.08 -0.37,0.05 0.03,0.12 0.02,0.24 -0.04,0.35l0 0.01 -0.01 0 -0.01 0.03 -0.01 0.02 -0.01 0.02 -0.01 0.02 -0.01 0.02 -0.01 0.03 -0.01 0.02 0 0.02 -0.01 0.03 -0.01 0.01 0 0.02 -0.01 0.04 0 0.02 -0.01 0.03 0 0.02 0 0.03 -0.01 0.03 0 0.01 0 0.03 0 0.03 0 1.01 0 0c0,0.27 -0.22,0.5 -0.5,0.5 -0.27,0 -0.5,-0.23 -0.5,-0.5l0 0 0 -1.01c0,-0.35 0.09,-0.68 0.25,-0.97l0 0c0.11,-0.2 0.34,-0.29 0.55,-0.24 -0.04,-0.21 0.04,-0.43 0.24,-0.54 0.28,-0.16 0.61,-0.25 0.96,-0.25l1 0c0.28,0 0.5,0.22 0.5,0.5 0,0.27 -0.22,0.5 -0.5,0.5zm20 -1c0.35,0 0.68,0.09 0.97,0.25l0 0c0.2,0.11 0.29,0.34 0.24,0.55 0.21,-0.05 0.43,0.04 0.54,0.24 0.16,0.28 0.25,0.61 0.25,0.96l0 1c0,0.27 -0.22,0.5 -0.5,0.5 -0.27,0 -0.5,-0.23 -0.5,-0.5l0 0 0 -1 0 -0.03 0 -0.03 0 -0.01 0 -0.03 -0.01 -0.03 0 -0.02 0 -0.03 -0.01 -0.02 -0.01 -0.04 0 -0.02 -0.01 -0.01 0 -0.03 -0.01 -0.02 -0.01 -0.02 -0.01 -0.03 -0.01 -0.02 -0.01 -0.02 -0.01 -0.02 -0.01 -0.02 -0.01 -0.03 0.01 0.02 0 0c-0.07,-0.12 -0.08,-0.25 -0.05,-0.37 -0.12,0.03 -0.24,0.01 -0.36,-0.05l0 0 0 0 -0.03 -0.01 -0.02 -0.01 -0.02 -0.01 -0.02 -0.01 -0.02 -0.01 -0.03 -0.01 -0.02 -0.01 -0.02 -0.01 -0.03 0 -0.01 -0.01 -0.02 0 -0.04 -0.01 -0.02 -0.01 -0.03 0 -0.02 0 -0.03 -0.01 -0.03 0 -0.01 0 -0.03 0 -0.03 0 -1 0 0 0c-0.28,0 -0.5,-0.23 -0.5,-0.5 0,-0.28 0.22,-0.5 0.5,-0.5l0 0 1 0zm2 38c0,0.35 -0.09,0.68 -0.25,0.97l0 0c-0.11,0.19 -0.34,0.29 -0.55,0.23 0.05,0.21 -0.04,0.44 -0.24,0.55 -0.28,0.16 -0.61,0.25 -0.96,0.25l-1 0c-0.27,0 -0.5,-0.23 -0.5,-0.5 0,-0.28 0.23,-0.5 0.5,-0.5l0 0 1 0 0.03 0 0.03 0 0.01 0 0.03 -0.01 0.03 0 0.02 0 0.03 -0.01 0.02 0 0.04 -0.01 0.02 0 0.01 -0.01 0.03 -0.01 0.02 0 0.02 -0.01 0.03 -0.01 0.02 -0.01 0.02 -0.01 0.02 -0.01 0.02 -0.01 0.03 -0.01 -0.02 0.01 0 0c0.12,-0.07 0.25,-0.09 0.37,-0.06 -0.03,-0.11 -0.01,-0.24 0.05,-0.35l0 0 0 -0.01 0.01 -0.02 0.01 -0.02 0.01 -0.02 0.01 -0.03 0.01 -0.01 0.01 -0.03 0.01 -0.02 0.01 -0.03 0 -0.02 0.01 -0.01 0 -0.03 0.01 -0.03 0.01 -0.03 0 -0.02 0 -0.03 0.01 -0.02 0 -0.03 0 -0.01 0 -0.03 0 -0.03 0 -1.01 0 0c0,-0.27 0.23,-0.5 0.5,-0.5 0.28,0 0.5,0.23 0.5,0.5l0 0 0 1.01zm-23 2c-0.35,0 -0.68,-0.09 -0.97,-0.25l0 0c-0.19,-0.12 -0.29,-0.34 -0.24,-0.55 -0.2,0.04 -0.43,-0.04 -0.54,-0.24 -0.16,-0.28 -0.25,-0.61 -0.25,-0.96l0 -1c0,-0.28 0.23,-0.5 0.5,-0.5 0.28,0 0.5,0.22 0.5,0.5l0 0 0 1 0 0.03 0 0.03 0 0.01 0.01 0.03 0 0.02 0 0.03 0.01 0.02 0 0.03 0.01 0.03 0 0.03 0.01 0.01 0.01 0.02 0 0.03 0.01 0.02 0.01 0.03 0.01 0.01 0.01 0.03 0.01 0.02 0.01 0.02 0.01 0.02 -0.01 -0.01 0 0c0.07,0.12 0.09,0.25 0.06,0.37 0.11,-0.03 0.24,-0.02 0.35,0.04l0 0 0 0.01 0.03 0.01 0.02 0.01 0.02 0.01 0.03 0.01 0.01 0.01 0.03 0.01 0.02 0.01 0.03 0 0.02 0.01 0.01 0.01 0.03 0 0.03 0.01 0.03 0 0.02 0.01 0.03 0 0.02 0 0.03 0.01 0.01 0 0.03 0 0.03 0 1.01 0 0 0c0.27,0 0.5,0.22 0.5,0.5 0,0.27 -0.23,0.5 -0.5,0.5l0 0 -1.01 0zm3.11 -39c-0.27,0 -0.5,-0.23 -0.5,-0.5 0,-0.28 0.23,-0.5 0.5,-0.5l0 0 2.11 0 0 0c0.28,0 0.5,0.22 0.5,0.5 0,0.27 -0.22,0.5 -0.5,0.5l0 0 -2.11 0 0 0zm4.22 0c-0.27,0 -0.5,-0.23 -0.5,-0.5 0,-0.28 0.23,-0.5 0.5,-0.5l0 0 2.11 0 0 0c0.28,0 0.5,0.22 0.5,0.5 0,0.27 -0.22,0.5 -0.5,0.5l0 0 -2.11 0 0 0zm4.22 0c-0.27,0 -0.5,-0.23 -0.5,-0.5 0,-0.28 0.23,-0.5 0.5,-0.5l0 0 2.11 0 0 0c0.28,0 0.5,0.22 0.5,0.5 0,0.27 -0.22,0.5 -0.5,0.5l0 0 -2.11 0 0 0zm4.22 0c-0.27,0 -0.5,-0.23 -0.5,-0.5 0,-0.28 0.23,-0.5 0.5,-0.5l0.01 0 2.1 0 0 0c0.28,0 0.5,0.22 0.5,0.5 0,0.27 -0.22,0.5 -0.5,0.5l0 0 -2.11 0 0 0zm6.23 4c0,-0.28 0.23,-0.5 0.5,-0.5 0.28,0 0.5,0.22 0.5,0.5l0 0 0 2 0 0c0,0.27 -0.22,0.5 -0.5,0.5 -0.27,0 -0.5,-0.23 -0.5,-0.5l0 0 0 -2 0 0zm0 4c0,-0.28 0.23,-0.5 0.5,-0.5 0.28,0 0.5,0.22 0.5,0.5l0 0 0 1.99 0 0.01c0,0.27 -0.22,0.5 -0.5,0.5 -0.27,0 -0.5,-0.23 -0.5,-0.5l0 0 0 -2 0 0zm0 4c0,-0.28 0.23,-0.5 0.5,-0.5 0.28,0 0.5,0.22 0.5,0.5l0 0 0 1.99 0 0c0,0.28 -0.22,0.5 -0.5,0.5 -0.27,0 -0.5,-0.22 -0.5,-0.5l0 0 0 -1.99 0 0zm0 3.99c0,-0.27 0.23,-0.5 0.5,-0.5 0.28,0 0.5,0.23 0.5,0.5l0 0.01 0 1.99 0 0c0,0.28 -0.22,0.5 -0.5,0.5 -0.27,0 -0.5,-0.22 -0.5,-0.5l0 0 0 -2 0 0zm0 4c0,-0.27 0.23,-0.5 0.5,-0.5 0.28,0 0.5,0.23 0.5,0.5l0 0 0 2 0 0c0,0.28 -0.22,0.5 -0.5,0.5 -0.27,0 -0.5,-0.22 -0.5,-0.5l0 0 0 -2 0 0zm0 4c0,-0.27 0.23,-0.5 0.5,-0.5 0.28,0 0.5,0.23 0.5,0.5l0 0 0 2 0 0c0,0.28 -0.22,0.5 -0.5,0.5 -0.27,0 -0.5,-0.22 -0.5,-0.5l0 0 0 -2 0 0zm0 4c0,-0.27 0.23,-0.5 0.5,-0.5 0.28,0 0.5,0.23 0.5,0.5l0 0 0 2 0 0c0,0.28 -0.22,0.5 -0.5,0.5 -0.27,0 -0.5,-0.22 -0.5,-0.5l0 0 0 -2 0 0zm0 4c0,-0.27 0.23,-0.5 0.5,-0.5 0.28,0 0.5,0.23 0.5,0.5l0 0 0 2 0 0c0,0.28 -0.22,0.5 -0.5,0.5 -0.27,0 -0.5,-0.22 -0.5,-0.5l0 0 0 -2 0 0zm-4.11 6.01c0.28,0 0.5,0.22 0.5,0.5 0,0.27 -0.22,0.5 -0.5,0.5l0 0 -2.11 0 0 0c-0.27,0 -0.5,-0.23 -0.5,-0.5 0,-0.28 0.23,-0.5 0.5,-0.5l0 0 2.11 0 0 0zm-4.22 0c0.27,0 0.5,0.22 0.5,0.5 0,0.27 -0.23,0.5 -0.5,0.5l0 0 -2.11 0 0 0c-0.28,0 -0.5,-0.23 -0.5,-0.5 0,-0.28 0.22,-0.5 0.5,-0.5l0 0 2.11 0 0 0zm-4.22 0c0.27,0 0.5,0.22 0.5,0.5 0,0.27 -0.23,0.5 -0.5,0.5l0 0 -2.11 0 0 0c-0.28,0 -0.5,-0.23 -0.5,-0.5 0,-0.28 0.22,-0.5 0.5,-0.5l0 0 2.11 0 0 0zm-4.22 0c0.27,0 0.5,0.22 0.5,0.5 0,0.27 -0.23,0.5 -0.5,0.5l0 0 -2.11 0 0 0c-0.28,0 -0.5,-0.23 -0.5,-0.5 0,-0.28 0.22,-0.5 0.5,-0.5l0 0 2.11 0 0 0zm-6.23 -4c0,0.27 -0.22,0.5 -0.5,0.5 -0.27,0 -0.5,-0.23 -0.5,-0.5l0 0 0 -2 0 0c0,-0.28 0.23,-0.5 0.5,-0.5 0.28,0 0.5,0.22 0.5,0.5l0 0 0 2 0 0zm0 -4c0,0.28 -0.22,0.5 -0.5,0.5 -0.27,0 -0.5,-0.22 -0.5,-0.5l0 0 0 -2 0 0c0,-0.27 0.23,-0.5 0.5,-0.5 0.28,0 0.5,0.23 0.5,0.5l0 0 0 2 0 0zm0 -4c0,0.28 -0.22,0.5 -0.5,0.5 -0.27,0 -0.5,-0.22 -0.5,-0.5l0 0 0 -2 0 0c0,-0.27 0.23,-0.5 0.5,-0.5 0.28,0 0.5,0.23 0.5,0.5l0 0 0 2 0 0zm0 -4c0,0.28 -0.22,0.5 -0.5,0.5 -0.27,0 -0.5,-0.22 -0.5,-0.5l0 0 0 -2 0 0c0,-0.27 0.23,-0.5 0.5,-0.5 0.28,0 0.5,0.23 0.5,0.5l0 0 0 2 0 0zm0 -4c0,0.28 -0.22,0.5 -0.5,0.5 -0.27,0 -0.5,-0.22 -0.5,-0.5l0 0 0 -1.99 0 -0.01c0,-0.27 0.23,-0.5 0.5,-0.5 0.28,0 0.5,0.23 0.5,0.5l0 0 0 2 0 0zm0 -4c0,0.28 -0.22,0.5 -0.5,0.5 -0.27,0 -0.5,-0.22 -0.5,-0.5l0 0 0 -1.99 0 -0.01c0,-0.27 0.23,-0.49 0.5,-0.49 0.28,0 0.5,0.22 0.5,0.49l0 0 0 2 0 0zm0 -3.99c0,0.27 -0.22,0.49 -0.5,0.49 -0.27,0 -0.5,-0.22 -0.5,-0.49l0 -0.01 0 -1.99 0 0c0,-0.28 0.23,-0.5 0.5,-0.5 0.28,0 0.5,0.22 0.5,0.5l0 0 0 2 0 0zm0 -4c0,0.27 -0.22,0.5 -0.5,0.5 -0.27,0 -0.5,-0.23 -0.5,-0.5l0 -0.01 0 -1.99 0 0c0,-0.28 0.23,-0.5 0.5,-0.5 0.28,0 0.5,0.22 0.5,0.5l0 0 0 2 0 0z"/>
    </g>
    <g>
     <path class="fil1" d="M108.42 64.94c0.25,0.05 0.42,0.28 0.4,0.54 -0.03,0.28 -0.27,0.48 -0.55,0.45l0 0 -0.08 -0.01 -0.11 -0.01 -0.1 -0.01 -0.1 0 -0.09 -0.01 -0.11 0 -0.1 -0.01 -0.1 0 -0.11 0 -0.1 0 -0.1 0 -0.1 0.01 -0.11 0 -0.1 0.01 -0.09 0 -0.11 0.01 -0.1 0.01 -0.07 0.01 0 0c-0.27,0.03 -0.52,-0.17 -0.55,-0.44 -0.03,-0.27 0.17,-0.52 0.44,-0.55l0 0c0.32,-0.04 0.66,-0.06 0.99,-0.06 0.36,0 0.71,0.02 1.05,0.06zm1.87 0.43c0.66,0.23 1.28,0.53 1.86,0.89 0.21,0.16 0.27,0.45 0.13,0.68 -0.14,0.23 -0.45,0.3 -0.69,0.16l0 0 -0.02 -0.02 -0.09 -0.05 -0.08 -0.05 -0.08 -0.05 -0.09 -0.05 -0.08 -0.04 -0.08 -0.05 -0.09 -0.04 -0.09 -0.05 -0.08 -0.04 -0.09 -0.04 -0.09 -0.04 -0.08 -0.04 -0.09 -0.04 -0.09 -0.04 -0.09 -0.03 -0.09 -0.03 -0.09 -0.04 -0.1 -0.03 0 0 0 0c-0.26,-0.09 -0.4,-0.38 -0.31,-0.64 0.08,-0.25 0.35,-0.39 0.6,-0.32zm3.38 2.11c0.48,0.48 0.91,1.02 1.27,1.59 0.13,0.23 0.07,0.53 -0.16,0.68 -0.23,0.14 -0.54,0.08 -0.69,-0.16l0 0.01 -0.04 -0.07 -0.05 -0.07 -0.06 -0.08 -0.05 -0.08 -0.05 -0.08 -0.06 -0.08 -0.05 -0.07 -0.06 -0.08 -0.06 -0.08 -0.06 -0.07 -0.06 -0.07 -0.06 -0.08 -0.07 -0.07 -0.06 -0.07 -0.06 -0.07 -0.07 -0.07 -0.06 -0.07 -0.07 -0.07 -0.06 -0.07 0 0.01c-0.19,-0.19 -0.2,-0.51 0,-0.71 0.18,-0.19 0.49,-0.2 0.69,-0.02zm2.12 3.35c0.22,0.63 0.38,1.3 0.45,2 0.02,0.26 -0.17,0.5 -0.44,0.53 -0.27,0.03 -0.52,-0.17 -0.55,-0.44l0 0 0 -0.02 -0.02 -0.1 -0.01 -0.11 -0.01 -0.09 -0.02 -0.1 -0.02 -0.1 -0.01 -0.09 -0.02 -0.1 -0.02 -0.1 -0.03 -0.1 -0.02 -0.09 -0.02 -0.09 -0.03 -0.1 -0.02 -0.09 -0.03 -0.1 -0.03 -0.09 -0.03 -0.09 -0.03 -0.1 -0.02 -0.07 0 0c-0.09,-0.26 0.04,-0.55 0.3,-0.64 0.25,-0.09 0.53,0.04 0.63,0.28zm0.46 3.94c-0.08,0.7 -0.24,1.37 -0.46,2.02 -0.1,0.24 -0.37,0.36 -0.62,0.28 -0.26,-0.09 -0.41,-0.37 -0.32,-0.63l0 0 0 0 0.03 -0.09 0.03 -0.09 0.03 -0.1 0.03 -0.09 0.03 -0.09 0.02 -0.1 0.03 -0.1 0.02 -0.09 0.02 -0.09 0.03 -0.1 0.02 -0.1 0.02 -0.1 0.01 -0.09 0.02 -0.1 0.02 -0.1 0.01 -0.09 0.01 -0.1 0.02 -0.11 0 0 0 0c0.03,-0.28 0.27,-0.48 0.55,-0.45 0.26,0.02 0.45,0.25 0.45,0.51zm-1.3 3.76c-0.37,0.58 -0.8,1.12 -1.28,1.6 -0.2,0.18 -0.5,0.18 -0.69,-0.01 -0.2,-0.2 -0.2,-0.52 0,-0.71l0 0 0.06 -0.07 0.07 -0.07 0.06 -0.06 0.07 -0.08 0.06 -0.07 0.06 -0.07 0.07 -0.07 0.06 -0.08 0.06 -0.07 0.06 -0.07 0.06 -0.08 0.06 -0.08 0.05 -0.07 0.06 -0.08 0.05 -0.08 0.05 -0.07 0.06 -0.08 0.05 -0.08 0.03 -0.05c0.15,-0.24 0.46,-0.31 0.69,-0.16 0.22,0.14 0.3,0.43 0.18,0.66zm-2.81 2.82c-0.57,0.36 -1.19,0.66 -1.83,0.89 -0.26,0.08 -0.54,-0.06 -0.63,-0.31 -0.09,-0.26 0.05,-0.55 0.31,-0.64l0.01 -0.01 0.1 -0.03 0.09 -0.04 0.09 -0.03 0.09 -0.03 0.09 -0.04 0.09 -0.04 0.08 -0.04 0.09 -0.04 0.09 -0.04 0.08 -0.04 0.09 -0.05 0.09 -0.04 0.08 -0.05 0.08 -0.04 0.09 -0.05 0.08 -0.05 0.08 -0.05 0.09 -0.05 0.01 -0.01 0 0c0.23,-0.15 0.54,-0.08 0.69,0.15 0.15,0.23 0.09,0.53 -0.13,0.68zm-3.75 1.32c-0.34,0.04 -0.67,0.06 -1.02,0.06 -0.35,0 -0.7,-0.02 -1.05,-0.06 -0.24,-0.05 -0.42,-0.28 -0.39,-0.54 0.02,-0.28 0.27,-0.48 0.54,-0.45l0 0 0.09 0.01 0.1 0.01 0.11 0.01 0.09 0 0.1 0.01 0.11 0 0.1 0.01 0.1 0 0.1 0 0.11 0 0.1 0 0.1 -0.01 0.11 0 0.09 -0.01 0.1 0 0.1 -0.01 0.11 -0.01 0.07 -0.01 0 0c0.27,-0.03 0.52,0.17 0.55,0.44 0.03,0.27 -0.16,0.51 -0.42,0.55zm-3.94 -0.43c-0.65,-0.23 -1.28,-0.53 -1.85,-0.89 -0.22,-0.16 -0.28,-0.45 -0.14,-0.68 0.15,-0.23 0.46,-0.3 0.69,-0.16l0 0 0.03 0.02 0.09 0.05 0.08 0.05 0.08 0.05 0.08 0.05 0.09 0.04 0.08 0.05 0.09 0.04 0.08 0.05 0.09 0.04 0.09 0.04 0.08 0.04 0.09 0.04 0.09 0.04 0.09 0.04 0.09 0.03 0.08 0.03 0.1 0.04 0.09 0.03 0 0 0 0c0.26,0.09 0.4,0.37 0.31,0.64 -0.08,0.25 -0.34,0.39 -0.6,0.32zm-3.37 -2.11c-0.49,-0.49 -0.92,-1.02 -1.28,-1.61 -0.13,-0.23 -0.06,-0.52 0.17,-0.66 0.23,-0.15 0.54,-0.08 0.69,0.15l0 0 0.04 0.07 0.05 0.08 0.05 0.08 0.05 0.07 0.06 0.08 0.06 0.08 0.05 0.07 0.06 0.08 0.06 0.08 0.06 0.07 0.06 0.07 0.06 0.08 0.06 0.07 0.06 0.07 0.07 0.07 0.06 0.08 0.07 0.06 0.06 0.07 0.07 0.07 0 0c0.19,0.19 0.19,0.51 0,0.7 -0.19,0.2 -0.5,0.2 -0.69,0.02zm-2.13 -3.38c-0.22,-0.62 -0.37,-1.28 -0.45,-1.96 -0.02,-0.27 0.17,-0.51 0.44,-0.54 0.28,-0.03 0.52,0.16 0.56,0.44l0 0 0 0.02 0.01 0.11 0.02 0.1 0.01 0.09 0.02 0.1 0.01 0.1 0.02 0.09 0.02 0.1 0.02 0.1 0.02 0.1 0.02 0.09 0.03 0.09 0.02 0.1 0.03 0.1 0.03 0.09 0.03 0.09 0.03 0.1 0.03 0.09 0.02 0.07 0 0c0.09,0.26 -0.04,0.54 -0.3,0.64 -0.26,0.09 -0.55,-0.05 -0.64,-0.31l0 0zm-0.45 -3.92c0.08,-0.7 0.23,-1.37 0.46,-2.01 0.1,-0.24 0.37,-0.37 0.62,-0.28 0.26,0.09 0.4,0.37 0.32,0.63l0 0 0 0 -0.03 0.09 -0.03 0.1 -0.03 0.09 -0.03 0.09 -0.03 0.1 -0.03 0.09 -0.02 0.1 -0.03 0.09 -0.02 0.09 -0.02 0.1 -0.02 0.1 -0.02 0.1 -0.02 0.09 -0.01 0.1 -0.02 0.1 -0.01 0.09 -0.02 0.11 -0.01 0.1 0 0 0 0c-0.03,0.28 -0.27,0.48 -0.55,0.45 -0.26,-0.03 -0.46,-0.26 -0.45,-0.52zm1.31 -3.76c0.36,-0.58 0.79,-1.11 1.27,-1.59 0.2,-0.18 0.5,-0.18 0.69,0.01 0.2,0.2 0.2,0.51 0,0.71l0 0 0 0 -0.07 0.07 -0.06 0.07 -0.07 0.07 -0.06 0.07 -0.07 0.07 -0.06 0.07 -0.06 0.07 -0.06 0.08 -0.06 0.07 -0.06 0.07 -0.06 0.08 -0.06 0.08 -0.05 0.07 -0.06 0.08 -0.06 0.08 -0.05 0.08 -0.05 0.08 -0.05 0.07 -0.03 0.05c-0.15,0.23 -0.46,0.31 -0.69,0.16 -0.23,-0.14 -0.3,-0.44 -0.17,-0.67zm2.81 -2.82c0.57,-0.36 1.18,-0.65 1.83,-0.88 0.25,-0.07 0.53,0.06 0.62,0.31 0.09,0.26 -0.05,0.55 -0.31,0.64l-0.02 0.01 -0.09 0.03 -0.1 0.04 -0.08 0.03 -0.09 0.03 -0.09 0.04 -0.09 0.04 -0.09 0.04 -0.08 0.04 -0.09 0.04 -0.09 0.04 -0.08 0.05 -0.09 0.04 -0.08 0.05 -0.09 0.04 -0.08 0.05 -0.08 0.05 -0.08 0.05 -0.09 0.05 -0.01 0.01 0 0c-0.24,0.15 -0.55,0.08 -0.69,-0.15 -0.15,-0.23 -0.09,-0.54 0.14,-0.69z"/>
    </g>
    <g>
     <path class="fil1" d="M164 76l1 0c1.1,0 2,0.9 2,2l0 26c0,1.1 -0.9,2 -2,2l-1 0 0 -30zm1.71 1.29c-0.19,-0.18 -0.44,-0.29 -0.71,-0.29l0 28c0.27,0 0.52,-0.12 0.71,-0.3 0.18,-0.18 0.29,-0.43 0.29,-0.7l0 -26c0,-0.28 -0.11,-0.53 -0.29,-0.71z"/>
    </g>
   </g>
   <path class="fil2" d="M155.96 98.81c19.13,0 34.64,15.51 34.64,34.64 0,19.13 -15.51,34.64 -34.64,34.64 -19.13,0 -34.64,-15.51 -34.64,-34.64 0,-19.13 15.51,-34.64 34.64,-34.64z"/>
   <path class="fil3" d="M155.96 104.58c15.95,0 28.87,12.93 28.87,28.87 0,15.95 -12.92,28.87 -28.87,28.87 -15.94,0 -28.86,-12.92 -28.86,-28.87 0,-15.94 12.92,-28.87 28.86,-28.87z"/>
   <path class="fil4" d="M164 110l1 0c1.1,0 2,0.9 2,2l0 6c0,1.1 -0.9,2 -2,2l-1 0 0 -10z"/>
   <path class="fil4" d="M155.96 104.58c3.16,0 6.2,0.51 9.04,1.45l0 54.84c-2.84,0.94 -5.88,1.45 -9.04,1.45 -15.94,0 -28.86,-12.92 -28.86,-28.87 0,-15.94 12.92,-28.87 28.86,-28.87z"/>
   <path class="fil5" d="M155.96 104.58c1.37,0 2.72,0.1 4.04,0.28l0 57.18c-1.32,0.18 -2.67,0.28 -4.04,0.28 -15.94,0 -28.86,-12.92 -28.86,-28.87 0,-15.94 12.92,-28.87 28.86,-28.87z"/>
   <path class="fil2" d="M90 63.98c19.13,0 34.64,15.51 34.64,34.64 0,19.14 -15.51,34.65 -34.64,34.65 -19.13,0 -34.64,-15.51 -34.64,-34.65 0,-19.13 15.51,-34.64 34.64,-34.64z"/>
   <path class="fil3" d="M90 69.76c15.94,0 28.87,12.92 28.87,28.86 0,15.95 -12.93,28.87 -28.87,28.87 -15.94,0 -28.87,-12.92 -28.87,-28.87 0,-15.94 12.93,-28.86 28.87,-28.86z"/>
   <g>
    <path class="fil4" d="M85 127.06l0 -56.87c1.62,-0.28 3.3,-0.43 5,-0.43 15.94,0 28.87,12.92 28.87,28.86 0,15.95 -12.93,28.87 -28.87,28.87 -1.7,0 -3.38,-0.15 -5,-0.43z"/>
    <path class="fil6" d="M118.84 99.79c-0.26,0.14 -0.56,0.21 -0.88,0.21l-21 0c-1.1,0 -2,-0.9 -2,-2l0 -27.82c13.58,2.35 23.91,14.19 23.91,28.44 0,0.4 -0.01,0.79 -0.03,1.17z"/>
    <path class="fil7" d="M112.79 80.9c-1.5,1.15 -3.38,1.83 -5.42,1.83 -4.93,0 -8.92,-4 -8.92,-8.92 0,-0.93 0.14,-1.83 0.4,-2.67 5.58,1.8 10.42,5.24 13.94,9.76z"/>
    <path class="fil7" d="M111.5 87c2.49,0 4.5,2.02 4.5,4.5 0,2.49 -2.01,4.5 -4.5,4.5 -2.49,0 -4.5,-2.01 -4.5,-4.5 0,-2.48 2.01,-4.5 4.5,-4.5z"/>
    <path class="fil7" d="M99.45 87l4 0c0.55,0 1,0.45 1,1l0 7c0,0.55 -0.45,1 -1,1l-4 0c-0.55,0 -1,-0.45 -1,-1l0 -7c0,-0.55 0.45,-1 1,-1z"/>
   </g>
   <g>
    <polygon class="fil8" points="160,117.09 150,117.09 150,127.09 160,127.09 "/>
    <polygon class="fil9" points="160,127.09 150,127.09 150,137.09 160,137.09 "/>
    <polygon class="fil8" points="160,137.09 150,137.09 150,147.09 160,147.09 "/>
    <polygon class="fil9" points="160,147.09 150,147.09 150,157.09 160,157.09 "/>
    <polygon class="fil8" points="150,142.09 140,142.09 140,152.09 150,152.09 "/>
    <polygon class="fil10" points="150,132.09 140,132.09 140,142.09 150,142.09 "/>
    <polygon class="fil8" points="150,122.09 140,122.09 140,132.09 150,132.09 "/>
    <polygon class="fil10" points="150,112.09 140,112.09 140,122.09 150,122.09 "/>
    <polygon class="fil9" points="160,107.09 150,107.09 150,117.09 160,117.09 "/>
    <path class="fil8" d="M160 157.09l-10 0 0 4.61c1.92,0.41 3.92,0.62 5.96,0.62 1.37,0 2.72,-0.1 4.04,-0.28l0 -4.95z"/>
    <path class="fil10" d="M150 152.09l-10 0 0 5.42c2.99,1.98 6.37,3.43 10,4.19l0 -9.61z"/>
    <path class="fil8" d="M140 109.4l0 2.69 10 0 0 -6.89c-3.63,0.77 -7.01,2.21 -10,4.2z"/>
    <path class="fil9" d="M140 117.09l-7.82 0c-0.82,1.18 -1.54,2.43 -2.18,3.73l0 6.27 10 0 0 -10z"/>
    <path class="fil8" d="M132.18 117.09l7.82 0 0 -7.69c-3.07,2.04 -5.73,4.65 -7.82,7.69z"/>
    <polygon class="fil8" points="140,127.09 130,127.09 130,137.09 140,137.09 "/>
    <path class="fil9" d="M140 137.09l-10 0 0 9c0.16,0.33 0.34,0.67 0.51,1l9.49 0 0 -10z"/>
    <path class="fil8" d="M140 147.09l-9.49 0c2.14,3.98 5.19,7.41 8.87,10l0.62 0 0 -10z"/>
    <path class="fil10" d="M130 122.09l-0.58 0c-1.33,3.09 -2.13,6.46 -2.29,10l2.87 0 0 -10z"/>
    <path class="fil8" d="M130 132.09l-2.87 0c-0.02,0.45 -0.03,0.9 -0.03,1.36 0,3.01 0.46,5.91 1.31,8.64l1.59 0 0 -10z"/>
    <path class="fil10" d="M130 142.09l-1.59 0c0.43,1.38 0.96,2.71 1.59,4l0 -4z"/>
    <path class="fil8" d="M150 105.2l0 1.89 10 0 0 -2.23c-1.32,-0.18 -2.67,-0.28 -4.04,-0.28 -2.04,0 -4.04,0.22 -5.96,0.62z"/>
    <path class="fil8" d="M130 122.09l-0.58 0c0.18,-0.43 0.38,-0.85 0.58,-1.27l0 1.27z"/>
   </g>
   <path class="fil2" d="M93.22 154.84c10.68,0 19.34,8.66 19.34,19.34 0,10.68 -8.66,19.34 -19.34,19.34 -10.68,0 -19.34,-8.66 -19.34,-19.34 0,-10.68 8.66,-19.34 19.34,-19.34z"/>
   <path class="fil11" d="M93.22 158.06c8.9,0 16.12,7.22 16.12,16.12 0,8.9 -7.22,16.11 -16.12,16.11 -8.9,0 -16.11,-7.21 -16.11,-16.11 0,-8.9 7.21,-16.12 16.11,-16.12z"/>
   <g>
    <path class="fil4" d="M85 188.04l0 -27.73c2.41,-1.43 5.22,-2.25 8.22,-2.25 8.9,0 16.12,7.22 16.12,16.12 0,8.9 -7.22,16.11 -16.12,16.11 -3,0 -5.81,-0.82 -8.22,-2.25z"/>
    <path class="fil7" d="M90 189.97l0 -31.59c1.04,-0.21 2.12,-0.32 3.22,-0.32 8.9,0 16.12,7.22 16.12,16.12 0,8.9 -7.22,16.11 -16.12,16.11 -1.1,0 -2.18,-0.11 -3.22,-0.32z"/>
   </g>
   <path class="fil12" d="M94.41 165.21l6 0c1.1,0 2,0.89 2,2l0 16c0,1.1 -0.9,2 -2,2l-6 0c-1.1,0 -2,-0.9 -2,-2l0 -16c0,-1.11 0.9,-2 2,-2z"/>
   <path class="fil13" d="M106.15 179.22c-0.17,0.17 -0.17,0.44 0,0.61 0.17,0.17 0.44,0.17 0.61,0l0.76 -0.76c0.2,-0.2 0.3,-0.45 0.3,-0.71 0,-0.26 -0.1,-0.52 -0.3,-0.72l-0.76 -0.76c-0.02,-0.02 -0.04,-0.06 -0.04,-0.1 0,-0.04 0.02,-0.07 0.04,-0.1l0.76 -0.76c0.2,-0.2 0.3,-0.46 0.3,-0.71 0,-0.26 -0.1,-0.52 -0.3,-0.72l-0.76 -0.76c-0.02,-0.03 -0.04,-0.06 -0.04,-0.1 0,-0.04 0.02,-0.08 0.04,-0.1l0.76 -0.76c0.2,-0.2 0.3,-0.46 0.3,-0.72 0,-0.25 -0.1,-0.51 -0.3,-0.71l-0.76 -0.76c-0.17,-0.17 -0.44,-0.17 -0.61,0 -0.17,0.17 -0.17,0.44 0,0.61l0.76 0.76c0.03,0.03 0.04,0.07 0.04,0.1 0,0.04 -0.01,0.08 -0.04,0.11l-0.76 0.76c-0.19,0.19 -0.29,0.45 -0.29,0.71 0,0.26 0.1,0.52 0.29,0.71l0.76 0.76c0.03,0.03 0.04,0.07 0.04,0.11 0,0.03 -0.01,0.07 -0.04,0.1l-0.76 0.76c-0.19,0.19 -0.29,0.45 -0.29,0.71 0,0.26 0.1,0.52 0.29,0.71l0.76 0.77c0.03,0.02 0.04,0.06 0.04,0.1 0,0.04 -0.01,0.07 -0.04,0.1l-0.76 0.76z"/>
   <path class="fil14" d="M88.66 179.32c0.17,0.17 0.17,0.45 0,0.61 -0.16,0.17 -0.44,0.17 -0.61,0l-0.76 -0.76c-0.19,-0.19 -0.29,-0.45 -0.29,-0.71 0,-0.26 0.1,-0.52 0.29,-0.71l0.76 -0.76c0.03,-0.03 0.05,-0.07 0.05,-0.11 0,-0.03 -0.02,-0.07 -0.05,-0.1l-0.76 -0.76c-0.19,-0.19 -0.29,-0.45 -0.29,-0.71 0,-0.26 0.1,-0.52 0.29,-0.71l0.76 -0.76c0.03,-0.03 0.05,-0.07 0.05,-0.11 0,-0.03 -0.02,-0.07 -0.05,-0.1l-0.76 -0.76c-0.19,-0.2 -0.29,-0.45 -0.29,-0.71 0,-0.26 0.1,-0.52 0.29,-0.72l0.76 -0.76c0.17,-0.17 0.45,-0.17 0.61,0 0.17,0.17 0.17,0.45 0,0.61l-0.75 0.76c-0.03,0.03 -0.05,0.07 -0.05,0.11 0,0.03 0.02,0.07 0.05,0.1l0.75 0.76c0.2,0.2 0.3,0.45 0.3,0.71 0,0.26 -0.1,0.52 -0.3,0.72l-0.75 0.76c-0.03,0.02 -0.05,0.06 -0.05,0.1 0,0.04 0.02,0.07 0.05,0.1l0.75 0.76c0.2,0.2 0.3,0.46 0.3,0.71 0,0.26 -0.1,0.52 -0.3,0.72l-0.75 0.76c-0.03,0.03 -0.05,0.06 -0.05,0.1 0,0.04 0.02,0.08 0.05,0.1l0.75 0.76z"/>
   <path class="fil15" d="M95.41 172.21l4 0c0.55,0 1,0.44 1,1l0 4c0,0.55 -0.45,1 -1,1l-4 0c-0.55,0 -1,-0.45 -1,-1l0 -4c0,-0.56 0.45,-1 1,-1z"/>
   <path class="fil4" d="M96.51 168.88c-0.19,0.19 -0.51,0.19 -0.7,0 -0.2,-0.2 -0.2,-0.51 0,-0.71l1.21 -1.22 0.02 -0.01c0.04,-0.05 0.1,-0.09 0.16,-0.12l0.01 0 0.02 -0.01 0.01 -0.01 0.05 -0.01 0.01 0 0.01 -0.01 0 0 0.02 0 0.07 -0.01 0.01 0 0 0 0 0 0.01 0 0.07 0.01 0.02 0 0 0 0.01 0.01 0.01 0 0.05 0.01 0.01 0.01 0.02 0.01 0.01 0c0.06,0.03 0.12,0.07 0.16,0.12l0.02 0.01 1.21 1.22c0.2,0.2 0.2,0.51 0,0.71 -0.19,0.19 -0.51,0.19 -0.7,0l-0.4 -0.4 0 2.2c0,0.27 -0.22,0.5 -0.5,0.5 -0.28,0 -0.5,-0.23 -0.5,-0.5l0 -2.2 -0.4 0.4z"/>
   <path class="fil16" d="M96.27 181.54c-0.19,-0.2 -0.51,-0.2 -0.7,0 -0.2,0.19 -0.2,0.51 0,0.7l1.21 1.22 0.02 0.01c0.04,0.05 0.1,0.09 0.16,0.12l0.01 0.01 0.02 0.01 0.01 0 0.05 0.01 0.01 0.01 0.01 0 0 0 0.02 0 0.07 0.01 0.01 0 0 0 0 0 0.01 0 0.07 -0.01 0.02 0 0 0 0.01 0 0.01 -0.01 0.05 -0.01 0.01 0 0.02 -0.01 0.01 -0.01c0.06,-0.03 0.12,-0.07 0.16,-0.12l0.02 -0.01 1.21 -1.22c0.2,-0.19 0.2,-0.51 0,-0.7 -0.19,-0.2 -0.51,-0.2 -0.7,0l-0.4 0.39 0 -2.19c0,-0.28 -0.22,-0.51 -0.5,-0.51 -0.28,0 -0.5,0.23 -0.5,0.51l0 2.19 -0.4 -0.39z"/>
  </g>
 </g>
</svg>
