<?xml version="1.0" encoding="UTF-8"?>
<!DOCTYPE svg PUBLIC "-//W3C//DTD SVG 1.1//EN" "http://www.w3.org/Graphics/SVG/1.1/DTD/svg11.dtd">
<!-- Creator: CorelDRAW -->
<svg xmlns="http://www.w3.org/2000/svg" xml:space="preserve" width="250px" height="250px" version="1.1" style="shape-rendering:geometricPrecision; text-rendering:geometricPrecision; image-rendering:optimizeQuality; fill-rule:evenodd; clip-rule:evenodd"
viewBox="0 0 250 250"
 xmlns:xlink="http://www.w3.org/1999/xlink"
 xmlns:xodm="http://www.corel.com/coreldraw/odm/2003">
 <defs>
  <style type="text/css">
   <![CDATA[
    .fil1 {fill:url(#id0)}
    .fil3 {fill:url(#id1)}
    .fil2 {fill:url(#id2)}
    .fil5 {fill:url(#id3)}
    .fil0 {fill:url(#id4)}
    .fil4 {fill:url(#id5)}
   ]]>
  </style>
  <linearGradient id="id0" gradientUnits="userSpaceOnUse" x1="80.96" y1="101.51" x2="169.04" y2="148.49">
   <stop offset="0" style="stop-opacity:1; stop-color:#273C75"/>
   <stop offset="1" style="stop-opacity:1; stop-color:#192A56"/>
  </linearGradient>
  <linearGradient id="id1" gradientUnits="userSpaceOnUse" x1="107.32" y1="107.32" x2="142.68" y2="142.68">
   <stop offset="0" style="stop-opacity:1; stop-color:#4CD137"/>
   <stop offset="1" style="stop-opacity:1; stop-color:#44BD32"/>
  </linearGradient>
  <linearGradient id="id2" gradientUnits="userSpaceOnUse" x1="85.4" y1="105.2" x2="164.6" y2="144.8">
   <stop offset="0" style="stop-opacity:1; stop-color:#487EB0"/>
   <stop offset="1" style="stop-opacity:1; stop-color:#40739E"/>
  </linearGradient>
  <linearGradient id="id3" gradientUnits="objectBoundingBox" x1="0%" y1="47.1158%" x2="117.826%" y2="52.8842%">
   <stop offset="0" style="stop-opacity:1; stop-color:#F5F6FA"/>
   <stop offset="1" style="stop-opacity:1; stop-color:#DCDDE1"/>
  </linearGradient>
  <linearGradient id="id4" gradientUnits="userSpaceOnUse" x1="45.27" y1="-61.54" x2="204.73" y2="311.54">
   <stop offset="0" style="stop-opacity:1; stop-color:#81ECEC"/>
   <stop offset="1" style="stop-opacity:1; stop-color:#00CEC9"/>
  </linearGradient>
  <linearGradient id="id5" gradientUnits="userSpaceOnUse" xlink:href="#id3" x1="127.93" y1="119.16" x2="120.93" y2="132.16">
  </linearGradient>
 </defs>
 <g id="Слой_x0020_1">
  <metadata id="CorelCorpID_0Corel-Layer"/>
  <g id="_2256968919824">
   <path class="fil0" d="M125 0c69.04,0 125,55.96 125,125 0,69.04 -55.96,125 -125,125 -69.04,0 -125,-55.96 -125,-125 0,-69.04 55.96,-125 125,-125z"/>
   <path class="fil1" d="M95 50l60 0c5.5,0 10,4.5 10,10l0 130c0,5.5 -4.5,10 -10,10l-60 0c-5.5,0 -10,-4.5 -10,-10l0 -130c0,-5.5 4.5,-10 10,-10z"/>
   <path class="fil2" d="M95 55l60 0c2.75,0 5,2.25 5,5l0 130c0,2.75 -2.25,5 -5,5l-60 0c-2.75,0 -5,-2.25 -5,-5l0 -130c0,-2.75 2.25,-5 5,-5z"/>
   <path class="fil3" d="M125 100c13.81,0 25,11.19 25,25 0,13.81 -11.19,25 -25,25 -13.81,0 -25,-11.19 -25,-25 0,-13.81 11.19,-25 25,-25z"/>
   <path class="fil4" d="M118.01 119.24l1.93 -1.93c1.06,-1.06 1.06,-2.79 0,-3.85l-2.89 -2.89c-0.88,-0.89 -2.33,-0.89 -3.21,0l-2.25 2.25c-2.12,2.12 -2.12,5.58 0,7.7l17.98 17.98c2.12,2.12 5.59,2.12 7.71,0l0 0 1.93 -1.92c1.05,-1.06 1.05,-2.79 0,-3.85l-2.9 -2.89c-0.88,-0.89 -2.32,-0.89 -3.21,0l-2.24 2.24 -12.85 -12.84z"/>
   <path class="fil5" d="M184.24 167.83c-1.56,1.56 -4.1,1.56 -5.66,0 -1.56,-1.57 -1.56,-4.1 0,-5.66l7.04 -7.04c0.25,-0.25 0.38,-0.6 0.38,-0.95 0,-0.35 -0.13,-0.69 -0.38,-0.95l-7.04 -7.03c-1.82,-1.82 -2.73,-4.22 -2.73,-6.61 0,-2.39 0.91,-4.79 2.73,-6.61l7.04 -7.03c0.25,-0.25 0.38,-0.6 0.38,-0.95 0,-0.35 -0.13,-0.7 -0.38,-0.95l-7.04 -7.04c-1.82,-1.82 -2.73,-4.22 -2.73,-6.6 0,-2.4 0.91,-4.79 2.73,-6.61l7.04 -7.04c0.25,-0.25 0.38,-0.6 0.38,-0.95 0,-0.35 -0.13,-0.7 -0.38,-0.95l-7.04 -7.04c-1.56,-1.56 -1.56,-4.09 0,-5.65 1.56,-1.56 4.1,-1.56 5.66,0l7.03 7.04c1.82,1.81 2.73,4.21 2.73,6.6 0,2.39 -0.91,4.79 -2.73,6.61l-7.03 7.03c-0.26,0.26 -0.39,0.6 -0.39,0.96 0,0.34 0.13,0.69 0.39,0.95l7.03 7.03c1.82,1.82 2.73,4.22 2.73,6.61 0,2.39 -0.91,4.79 -2.73,6.6l-7.03 7.04c-0.26,0.25 -0.39,0.6 -0.39,0.95 0,0.35 0.13,0.7 0.39,0.95l7.03 7.04c1.82,1.81 2.73,4.21 2.73,6.6 0,2.39 -0.91,4.79 -2.73,6.61l-7.03 7.04z"/>
   <path class="fil5" d="M71.42 162.17c1.56,1.56 1.56,4.09 0,5.66 -1.56,1.56 -4.1,1.56 -5.66,0l-7.03 -7.04c-1.82,-1.82 -2.73,-4.22 -2.73,-6.61 0,-2.39 0.91,-4.79 2.73,-6.6l7.03 -7.04c0.26,-0.25 0.39,-0.6 0.39,-0.95 0,-0.35 -0.13,-0.7 -0.39,-0.95l-7.03 -7.04c-1.82,-1.81 -2.73,-4.21 -2.73,-6.6 0,-2.39 0.91,-4.79 2.73,-6.61l7.03 -7.03c0.26,-0.26 0.39,-0.61 0.39,-0.96 0,-0.35 -0.13,-0.69 -0.39,-0.95l-7.03 -7.03c-1.82,-1.82 -2.73,-4.22 -2.73,-6.61 0,-2.39 0.91,-4.79 2.73,-6.6l7.03 -7.04c1.56,-1.56 4.1,-1.56 5.66,0 1.56,1.56 1.56,4.09 0,5.65l-7.04 7.04c-0.25,0.25 -0.38,0.6 -0.38,0.95 0,0.35 0.13,0.7 0.38,0.95l7.04 7.04c1.82,1.82 2.73,4.21 2.73,6.6 0,2.39 -0.91,4.79 -2.73,6.61l-7.04 7.04c-0.25,0.25 -0.38,0.6 -0.38,0.95 0,0.35 0.13,0.7 0.38,0.95l7.04 7.03c1.82,1.82 2.73,4.22 2.73,6.61 0,2.39 -0.91,4.79 -2.73,6.61l-7.04 7.03c-0.25,0.26 -0.38,0.6 -0.38,0.95 0,0.35 0.13,0.7 0.38,0.95l7.04 7.04z"/>
  </g>
 </g>
</svg>
