<?xml version="1.0" encoding="UTF-8"?>
<!DOCTYPE svg PUBLIC "-//W3C//DTD SVG 1.1//EN" "http://www.w3.org/Graphics/SVG/1.1/DTD/svg11.dtd">
<!-- Creator: CorelDRAW -->
<svg xmlns="http://www.w3.org/2000/svg" xml:space="preserve" width="250px" height="250px" version="1.1" style="shape-rendering:geometricPrecision; text-rendering:geometricPrecision; image-rendering:optimizeQuality; fill-rule:evenodd; clip-rule:evenodd"
viewBox="0 0 250 250"
 xmlns:xlink="http://www.w3.org/1999/xlink"
 xmlns:xodm="http://www.corel.com/coreldraw/odm/2003">
 <defs>
  <style type="text/css">
   <![CDATA[
    .fil1 {fill:#DCDDE1}
    .fil6 {fill:#FBC531}
    .fil7 {fill:url(#id0)}
    .fil0 {fill:url(#id1)}
    .fil5 {fill:url(#id2)}
    .fil2 {fill:url(#id3)}
    .fil8 {fill:url(#id4)}
    .fil4 {fill:url(#id5)}
    .fil3 {fill:url(#id6)}
   ]]>
  </style>
  <linearGradient id="id0" gradientUnits="userSpaceOnUse" x1="93.18" y1="63.18" x2="156.82" y2="126.82">
   <stop offset="0" style="stop-opacity:1; stop-color:#FBC531"/>
   <stop offset="1" style="stop-opacity:1; stop-color:#E1B12C"/>
  </linearGradient>
  <linearGradient id="id1" gradientUnits="userSpaceOnUse" x1="45.27" y1="-61.54" x2="204.73" y2="311.54">
   <stop offset="0" style="stop-opacity:1; stop-color:#55EFC4"/>
   <stop offset="1" style="stop-opacity:1; stop-color:#00B894"/>
  </linearGradient>
  <linearGradient id="id2" gradientUnits="userSpaceOnUse" x1="115.25" y1="172.06" x2="134.74" y2="198.94">
   <stop offset="0" style="stop-opacity:1; stop-color:#7F8FA6"/>
   <stop offset="1" style="stop-opacity:1; stop-color:#718093"/>
  </linearGradient>
  <linearGradient id="id3" gradientUnits="userSpaceOnUse" xlink:href="#id2" x1="131.67" y1="138.61" x2="147.5" y2="149.07">
  </linearGradient>
  <linearGradient id="id4" gradientUnits="userSpaceOnUse" x1="108.56" y1="121.84" x2="141.45" y2="170.16">
   <stop offset="0" style="stop-opacity:1; stop-color:#F5F6FA"/>
   <stop offset="1" style="stop-opacity:1; stop-color:#DCDDE1"/>
  </linearGradient>
  <linearGradient id="id5" gradientUnits="userSpaceOnUse" xlink:href="#id2" x1="135.86" y1="66.71" x2="164.14" y2="123.28">
  </linearGradient>
  <linearGradient id="id6" gradientUnits="userSpaceOnUse" xlink:href="#id2" x1="138.49" y1="113.23" x2="159.47" y2="136.89">
  </linearGradient>
 </defs>
 <g id="Слой_x0020_1">
  <metadata id="CorelCorpID_0Corel-Layer"/>
  <path class="fil0" d="M125 0c69.04,0 125,55.96 125,125 0,69.04 -55.96,125 -125,125 -69.04,0 -125,-55.96 -125,-125 0,-69.04 55.96,-125 125,-125z"/>
  <path class="fil1" d="M125 163l17 0c0.03,-7.54 0.26,-13.59 1.84,-20.43 0.98,-4.25 2.47,-8.61 4.72,-13.57l-23.56 0 0 -8 36.73 0c-11.32,19.6 -11.73,28 -11.73,44 0,3.3 -2.7,6 -6,6l-19 0 0 -8z"/>
  <path class="fil2" d="M131.49 141.81c0.54,-0.15 1.1,-0.22 1.65,-0.22l0.21 -0.76c0.13,-0.48 0.63,-0.77 1.1,-0.64l1.16 0.31c0.48,0.13 0.77,0.63 0.64,1.1l-0.21 0.77c0.49,0.27 0.94,0.61 1.33,1.02l0.69 -0.4c0.43,-0.25 0.98,-0.1 1.23,0.33l0.6 1.04c0.24,0.43 0.1,0.98 -0.33,1.23l-0.69 0.4c0.16,0.54 0.23,1.1 0.22,1.66l0.76 0.2c0.48,0.13 0.77,0.63 0.64,1.1l-0.31 1.16c-0.13,0.48 -0.62,0.77 -1.1,0.64l-0.76 -0.2c-0.28,0.48 -0.62,0.93 -1.02,1.32l0.39 0.69c0.25,0.43 0.1,0.98 -0.33,1.23l-1.04 0.6c-0.43,0.25 -0.98,0.1 -1.23,-0.33l-0.39 -0.68c-0.55,0.15 -1.11,0.22 -1.66,0.21l-0.21 0.77c-0.13,0.48 -0.62,0.76 -1.1,0.63l-1.16 -0.31c-0.48,-0.13 -0.77,-0.62 -0.64,-1.1l0.21 -0.76c-0.49,-0.28 -0.93,-0.62 -1.33,-1.02l-0.69 0.39c-0.42,0.25 -0.98,0.1 -1.23,-0.33l-0.6 -1.04c-0.24,-0.43 -0.09,-0.98 0.33,-1.23l0.69 -0.39c-0.15,-0.55 -0.23,-1.11 -0.22,-1.66l-0.76 -0.21c-0.48,-0.13 -0.77,-0.62 -0.64,-1.1l0.31 -1.16c0.13,-0.48 0.62,-0.76 1.1,-0.63l0.77 0.2c0.27,-0.48 0.61,-0.93 1.02,-1.33l-0.4 -0.68c-0.25,-0.43 -0.1,-0.99 0.33,-1.23l1.04 -0.61c0.43,-0.24 0.98,-0.09 1.23,0.34l0.4 0.68zm0.1 3.18c1.44,-0.82 3.27,-0.33 4.1,1.1 0.83,1.44 0.34,3.27 -1.1,4.1 -1.43,0.83 -3.27,0.34 -4.1,-1.1 -0.82,-1.43 -0.33,-3.27 1.1,-4.1z"/>
  <path class="fil3" d="M136.81 118.3c0.95,-0.01 1.88,0.11 2.77,0.36l0.66 -1.14c0.41,-0.71 1.33,-0.96 2.05,-0.55l1.73 1c0.72,0.41 0.96,1.34 0.55,2.05l-0.66 1.14c0.66,0.65 1.23,1.39 1.7,2.21l1.27 -0.33c0.8,-0.22 1.63,0.26 1.84,1.06l0.52 1.93c0.21,0.8 -0.27,1.62 -1.06,1.84l-1.28 0.33c0.01,0.95 -0.11,1.88 -0.36,2.77l1.14 0.66c0.71,0.42 0.96,1.34 0.55,2.05l-1 1.73c-0.41,0.72 -1.34,0.97 -2.05,0.55l-1.14 -0.65c-0.65,0.65 -1.39,1.23 -2.22,1.7l0.34 1.27c0.22,0.79 -0.26,1.62 -1.06,1.83l-1.93 0.52c-0.8,0.21 -1.62,-0.26 -1.84,-1.06l-0.33 -1.27c-0.95,0.01 -1.89,-0.12 -2.78,-0.37l-0.65 1.15c-0.42,0.71 -1.34,0.96 -2.05,0.54l-1.74 -1c-0.71,-0.41 -0.96,-1.33 -0.54,-2.05l0.65 -1.14c-0.65,-0.64 -1.23,-1.39 -1.7,-2.21l-1.27 0.34c-0.79,0.21 -1.62,-0.27 -1.83,-1.06l-0.52 -1.93c-0.21,-0.8 0.26,-1.63 1.06,-1.84l1.27 -0.34c-0.01,-0.95 0.12,-1.88 0.37,-2.77l-1.15 -0.66c-0.71,-0.41 -0.96,-1.33 -0.54,-2.05l1 -1.73c0.41,-0.71 1.33,-0.96 2.05,-0.55l1.14 0.66c0.64,-0.66 1.39,-1.23 2.21,-1.7l-0.34 -1.27c-0.21,-0.8 0.27,-1.62 1.06,-1.84l1.93 -0.52c0.8,-0.21 1.63,0.27 1.84,1.07l0.34 1.27zm-1.2 5.17c2.67,-0.72 5.41,0.87 6.12,3.53 0.72,2.67 -0.87,5.41 -3.53,6.13 -2.67,0.71 -5.41,-0.87 -6.13,-3.54 -0.71,-2.67 0.87,-5.41 3.54,-6.12z"/>
  <path class="fil4" d="M130 75.63c1.84,0.47 3.57,1.2 5.16,2.14l1.86 -1.87c1.17,-1.16 3.08,-1.16 4.24,0l2.83 2.83c1.17,1.17 1.17,3.08 0,4.25l-1.86 1.86c0.94,1.59 1.67,3.32 2.14,5.16l2.63 0c1.65,0 3,1.35 3,3l0 4c0,1.65 -1.35,3 -3,3l-2.63 0c-0.47,1.83 -1.2,3.57 -2.14,5.16l1.86 1.86c1.17,1.17 1.17,3.07 0,4.24l-2.83 2.83c-1.16,1.17 -3.07,1.17 -4.24,0l-1.86 -1.86c-1.59,0.94 -3.33,1.67 -5.16,2.14l0 2.63c0,1.65 -1.35,3 -3,3l-4 0c-1.65,0 -3,-1.35 -3,-3l0 -2.63c-1.84,-0.48 -3.57,-1.2 -5.16,-2.14l-1.86 1.86c-1.17,1.17 -3.08,1.17 -4.25,0l-2.83 -2.83c-1.16,-1.17 -1.16,-3.08 0,-4.24l1.87 -1.87c-0.94,-1.59 -1.67,-3.32 -2.14,-5.15l-2.63 0c-1.65,0 -3,-1.35 -3,-3l0 -4.01c0,-1.65 1.35,-2.99 3,-2.99l2.63 0c0.47,-1.84 1.2,-3.57 2.14,-5.16l-1.86 -1.87c-1.17,-1.16 -1.17,-3.07 0,-4.24l2.83 -2.83c1.16,-1.16 3.07,-1.16 4.24,0l1.86 1.87c1.59,-0.94 3.32,-1.67 5.16,-2.14l0 -2.64c0,-1.65 1.35,-2.99 3,-2.99l4 0c1.65,0 3,1.34 3,2.99l0 2.64zm-5 9.37c5.52,0 10,4.47 10,10 0,5.52 -4.48,10 -10,10 -5.52,0 -10,-4.48 -10,-10 0,-5.53 4.48,-10 10,-10z"/>
  <path class="fil5" d="M114 200l11 0 11 0c4.95,0 9,-3.91 9,-8.7l0 -20.3 -20 0 -20 0 0 20.3c0,4.79 4.05,8.7 9,8.7z"/>
  <path class="fil6" d="M125 50c24.85,0 45,20.14 45,45 0,9.68 -3.06,18.66 -8.27,26l-10.41 0c6.6,-6.68 10.68,-15.87 10.68,-26 0,-10.22 -4.14,-19.47 -10.84,-26.17 -6.69,-6.69 -15.94,-10.83 -26.16,-10.83l0 -8z"/>
  <path class="fil7" d="M125 140c-24.85,0 -45,-20.15 -45,-45 0,-24.86 20.15,-45 45,-45l0 90z"/>
  <path class="fil8" d="M106 171l19 0 0 -50 -36.73 0c11.18,19.37 11.73,27.6 11.73,44 0,3.3 2.7,6 6,6z"/>
 </g>
</svg>
