<?xml version="1.0" encoding="UTF-8"?>
<!DOCTYPE svg PUBLIC "-//W3C//DTD SVG 1.1//EN" "http://www.w3.org/Graphics/SVG/1.1/DTD/svg11.dtd">
<!-- Creator: CorelDRAW -->
<svg xmlns="http://www.w3.org/2000/svg" xml:space="preserve" width="250px" height="250px" version="1.1" style="shape-rendering:geometricPrecision; text-rendering:geometricPrecision; image-rendering:optimizeQuality; fill-rule:evenodd; clip-rule:evenodd"
viewBox="0 0 250 250"
 xmlns:xlink="http://www.w3.org/1999/xlink"
 xmlns:xodm="http://www.corel.com/coreldraw/odm/2003">
 <defs>
  <style type="text/css">
   <![CDATA[
    .fil1 {fill:url(#id0)}
    .fil8 {fill:url(#id1)}
    .fil9 {fill:url(#id2)}
    .fil0 {fill:url(#id3)}
    .fil2 {fill:url(#id4)}
    .fil4 {fill:url(#id5)}
    .fil3 {fill:url(#id6)}
    .fil7 {fill:url(#id7)}
    .fil6 {fill:url(#id8)}
    .fil5 {fill:url(#id9)}
   ]]>
  </style>
  <linearGradient id="id0" gradientUnits="userSpaceOnUse" x1="71.97" y1="71.97" x2="178.03" y2="178.03">
   <stop offset="0" style="stop-opacity:1; stop-color:#004DB8"/>
   <stop offset="1" style="stop-opacity:1; stop-color:#002C91"/>
  </linearGradient>
  <linearGradient id="id1" gradientUnits="userSpaceOnUse" x1="164.72" y1="115.46" x2="188.24" y2="138.52">
   <stop offset="0" style="stop-opacity:1; stop-color:#00A8FF"/>
   <stop offset="1" style="stop-opacity:1; stop-color:#0097E6"/>
  </linearGradient>
  <linearGradient id="id2" gradientUnits="userSpaceOnUse" x1="165.69" y1="116.2" x2="181.7" y2="128.14">
   <stop offset="0" style="stop-opacity:1; stop-color:#FBC531"/>
   <stop offset="1" style="stop-opacity:1; stop-color:#E1B12C"/>
  </linearGradient>
  <linearGradient id="id3" gradientUnits="userSpaceOnUse" x1="45.27" y1="-61.54" x2="204.73" y2="311.54">
   <stop offset="0" style="stop-opacity:1; stop-color:#74B9FF"/>
   <stop offset="1" style="stop-opacity:1; stop-color:#0984E3"/>
  </linearGradient>
  <linearGradient id="id4" gradientUnits="userSpaceOnUse" x1="71.91" y1="93.12" x2="156.76" y2="177.97">
   <stop offset="0" style="stop-opacity:1; stop-color:#E84118"/>
   <stop offset="1" style="stop-opacity:1; stop-color:#C23616"/>
  </linearGradient>
  <linearGradient id="id5" gradientUnits="userSpaceOnUse" x1="72.08" y1="135.71" x2="114.51" y2="178.14">
   <stop offset="0" style="stop-opacity:1; stop-color:#4CD137"/>
   <stop offset="1" style="stop-opacity:1; stop-color:#44BD32"/>
  </linearGradient>
  <linearGradient id="id6" gradientUnits="userSpaceOnUse" xlink:href="#id2" x1="72.55" y1="107.91" x2="143.26" y2="178.62">
  </linearGradient>
  <linearGradient id="id7" gradientUnits="userSpaceOnUse" xlink:href="#id2" x1="179.45" y1="117.67" x2="170.63" y2="152.97">
  </linearGradient>
  <linearGradient id="id8" gradientUnits="userSpaceOnUse" x1="162.53" y1="140.93" x2="152.19" y2="165.06">
   <stop offset="0" style="stop-opacity:1; stop-color:#C9C9C9"/>
   <stop offset="1" style="stop-opacity:1; stop-color:#9E9E9E"/>
  </linearGradient>
  <linearGradient id="id9" gradientUnits="userSpaceOnUse" x1="127.44" y1="165.67" x2="137.78" y2="189.81">
   <stop offset="0" style="stop-opacity:1; stop-color:#273C75"/>
   <stop offset="1" style="stop-opacity:1; stop-color:#192A56"/>
  </linearGradient>
 </defs>
 <g id="Слой_x0020_1">
  <metadata id="CorelCorpID_0Corel-Layer"/>
  <g id="_2653709201312">
   <path class="fil0" d="M125 0c69.04,0 125,55.96 125,125 0,69.04 -55.96,125 -125,125 -69.04,0 -125,-55.96 -125,-125 0,-69.04 55.96,-125 125,-125z"/>
   <path class="fil1" d="M125 50c41.42,0 75,33.58 75,75 0,41.42 -33.58,75 -75,75 -41.42,0 -75,-33.58 -75,-75 0,-41.42 33.58,-75 75,-75z"/>
   <path class="fil2" d="M114.33 75.54c33.14,0 60,26.87 60,60 0,33.14 -26.86,60.01 -60,60.01 -33.13,0 -60,-26.87 -60,-60.01 0,-33.13 26.87,-60 60,-60z"/>
   <path class="fil3" d="M107.9 93.26c27.62,0 50,22.39 50,50 0,27.62 -22.38,50 -50,50 -27.61,0 -50,-22.38 -50,-50 0,-27.61 22.39,-50 50,-50z"/>
   <path class="fil4" d="M93.29 126.93c16.57,0 30,13.43 30,30 0,16.57 -13.43,30 -30,30 -16.57,0 -30,-13.43 -30,-30 0,-16.57 13.43,-30 30,-30z"/>
   <g>
    <path class="fil5" d="M143.22 153l14.14 14.14 -31.11 31.11c-2.34,2.33 -6.15,2.33 -8.49,0l-5.66 -5.66c-2.33,-2.33 -2.33,-6.15 0,-8.48l31.12 -31.11z"/>
    <path class="fil6" d="M146.75 128.25l35.36 35.35 -8.49 8.49c-3.11,3.11 -8.2,3.11 -11.31,0l-24.04 -24.04c-3.11,-3.12 -3.11,-8.21 0,-11.32l8.48 -8.48z"/>
    <path class="fil7" d="M173.62 112.69l24.05 24.04c3.11,3.11 3.11,8.2 0,11.32l-15.56 15.55 -35.36 -35.35 15.56 -15.56c3.11,-3.11 8.2,-3.11 11.31,0z"/>
    <path class="fil8" d="M161.74 113.26c0.42,0.56 0.69,1.23 0.72,1.99 0.1,2.09 -1.53,4.87 -2.08,7.35 -0.54,2.47 -0.01,4.63 1.31,4.98 1.32,0.35 3.44,-1.11 5.1,-0.78 1.66,0.34 2.86,2.48 3.2,5.14 0.34,2.65 -0.19,5.83 0.5,8.11 0.69,2.29 2.6,3.69 4.16,3.57 1.57,-0.13 2.78,-1.76 4.19,-2.36 1.4,-0.6 2.99,-0.17 4.57,-0.03 1.59,0.15 3.18,0 4.24,-1.01 1.06,-1.01 1.59,-2.88 2.62,-4.66 0.72,-1.24 1.68,-2.43 2.51,-3.71l-19.16 -19.16c-3.11,-3.11 -8.2,-3.11 -11.31,0l-0.57 0.57z"/>
    <path class="fil9" d="M164.89 110.97c2.97,4.16 -0.95,7.82 0.99,10.42 2.55,3.41 3.83,-0.69 6.36,8.88 1.57,5.97 5.77,4.44 7.17,-2.47 0.57,-2.79 1.98,-2.97 2.96,-5.85l0.13 -0.38 -8.88 -8.88c-2.35,-2.35 -5.83,-2.93 -8.73,-1.72z"/>
   </g>
  </g>
 </g>
</svg>
