<?xml version="1.0" encoding="UTF-8"?>
<!DOCTYPE svg PUBLIC "-//W3C//DTD SVG 1.1//EN" "http://www.w3.org/Graphics/SVG/1.1/DTD/svg11.dtd">
<!-- Creator: CorelDRAW -->
<svg xmlns="http://www.w3.org/2000/svg" xml:space="preserve" width="250px" height="250px" version="1.1" style="shape-rendering:geometricPrecision; text-rendering:geometricPrecision; image-rendering:optimizeQuality; fill-rule:evenodd; clip-rule:evenodd"
viewBox="0 0 250 250"
 xmlns:xlink="http://www.w3.org/1999/xlink"
 xmlns:xodm="http://www.corel.com/coreldraw/odm/2003">
 <defs>
  <style type="text/css">
   <![CDATA[
    .fil1 {fill:url(#id0)}
    .fil8 {fill:url(#id1)}
    .fil0 {fill:url(#id2)}
    .fil7 {fill:url(#id3)}
    .fil3 {fill:url(#id4)}
    .fil5 {fill:url(#id5)}
    .fil6 {fill:url(#id6)}
    .fil2 {fill:url(#id7)}
    .fil4 {fill:url(#id8)}
   ]]>
  </style>
  <linearGradient id="id0" gradientUnits="userSpaceOnUse" x1="76.87" y1="72.2" x2="173.14" y2="177.8">
   <stop offset="0" style="stop-opacity:1; stop-color:#00A8FF"/>
   <stop offset="1" style="stop-opacity:1; stop-color:#0097E6"/>
  </linearGradient>
  <linearGradient id="id1" gradientUnits="userSpaceOnUse" x1="99.52" y1="131.15" x2="106.49" y2="135.12">
   <stop offset="0" style="stop-opacity:1; stop-color:#DFE6E9"/>
   <stop offset="1" style="stop-opacity:1; stop-color:#B2BEC3"/>
  </linearGradient>
  <linearGradient id="id2" gradientUnits="userSpaceOnUse" x1="45.27" y1="-61.54" x2="204.73" y2="311.54">
   <stop offset="0" style="stop-opacity:1; stop-color:#96FFFF"/>
   <stop offset="1" style="stop-opacity:1; stop-color:#00E6E2"/>
  </linearGradient>
  <linearGradient id="id3" gradientUnits="userSpaceOnUse" xlink:href="#id1" x1="94.53" y1="131.79" x2="100.77" y2="136.53">
  </linearGradient>
  <linearGradient id="id4" gradientUnits="userSpaceOnUse" x1="39.89" y1="189.44" x2="219.35" y2="282.26">
   <stop offset="0" style="stop-opacity:1; stop-color:#4CD137"/>
   <stop offset="1" style="stop-opacity:1; stop-color:#44BD32"/>
  </linearGradient>
  <linearGradient id="id5" gradientUnits="userSpaceOnUse" x1="169.25" y1="346.17" x2="146.09" y2="145.46">
   <stop offset="0" style="stop-opacity:1; stop-color:#149600"/>
   <stop offset="1" style="stop-opacity:1; stop-color:#18B500"/>
  </linearGradient>
  <linearGradient id="id6" gradientUnits="userSpaceOnUse" x1="-1.04" y1="273.4" x2="201.01" y2="273.4">
   <stop offset="0" style="stop-opacity:1; stop-color:#1DD600"/>
   <stop offset="1" style="stop-opacity:1; stop-color:#17AB00"/>
  </linearGradient>
  <linearGradient id="id7" gradientUnits="userSpaceOnUse" x1="48.79" y1="251.61" x2="237.21" y2="178.68">
   <stop offset="0" style="stop-opacity:1; stop-color:#7EE0AC"/>
   <stop offset="1" style="stop-opacity:1; stop-color:#5BDE8B"/>
  </linearGradient>
  <linearGradient id="id8" gradientUnits="userSpaceOnUse" x1="-24.27" y1="162.12" x2="151.83" y2="261.17">
   <stop offset="0" style="stop-opacity:1; stop-color:#22FF00"/>
   <stop offset="1" style="stop-opacity:1; stop-color:#17AB00"/>
  </linearGradient>
 </defs>
 <g id="Слой_x0020_1">
  <metadata id="CorelCorpID_0Corel-Layer"/>
  <g id="_2556849470304">
   <path class="fil0" d="M125 0c69.04,0 125,55.96 125,125 0,69.04 -55.96,125 -125,125 -69.04,0 -125,-55.96 -125,-125 0,-69.04 55.96,-125 125,-125z"/>
   <path class="fil1" d="M173.16 91.83c7.51,-3.24 13.2,-7.61 19.54,-12.22 13.19,-9.57 7.38,-28.9 -8.45,-21.21 -10.2,4.96 -16.55,15.29 -22.93,24.92 -24.17,-13.95 -48.5,-13.96 -72.62,-0.04 -7.34,-9.98 -11.91,-19.53 -22.93,-24.88 -15.78,-7.67 -21.69,11.46 -8.47,21.23 6.68,4.93 11.81,8.49 19.52,12.24 -7.85,10.36 -11.84,25.61 -9.63,38.37 -3.89,4.52 -3.56,5.05 1.61,7.54 -1.99,13.71 -10.36,31.27 0.12,33.48 7.35,1.55 6.45,-2.04 9.63,-4.91 5.52,18.58 28.34,27.13 46.72,27.02 18.06,-0.11 40.87,-8.59 46.16,-27.02 3.2,2.95 2.66,6.76 10.12,4.8 9.81,-2.58 1.47,-20.08 -0.34,-33.37 5.02,-2.41 5.57,-3.05 1.64,-7.46 1.67,-16.5 -1.05,-24.75 -9.69,-38.49z"/>
   <path class="fil2" d="M66.41 148.86l65.27 -65.27c6.23,-6.23 16.41,-6.23 22.63,0l27.92 27.92c1.23,5.42 1.38,11.25 0.62,18.81 3.93,4.41 3.38,5.05 -1.64,7.46 1.81,13.29 10.15,30.79 0.34,33.37 -7.46,1.96 -6.92,-1.85 -10.12,-4.8 -5.29,18.43 -28.1,26.91 -46.16,27.02 -18.38,0.11 -41.2,-8.44 -46.72,-27.02 -3.18,2.87 -2.28,6.46 -9.63,4.91 -7.77,-1.64 -5.18,-11.71 -2.51,-22.4z"/>
   <path class="fil3" d="M64.26 158.34l54.05 -54.05c6.22,-6.22 16.4,-6.22 22.63,0l41.98 41.99c2.75,11.31 6.44,22.82 -1.37,24.87 -7.46,1.96 -6.92,-1.85 -10.12,-4.8 -5.29,18.43 -28.1,26.91 -46.16,27.02 -18.38,0.11 -41.2,-8.44 -46.72,-27.02 -3.18,2.87 -2.28,6.46 -9.63,4.91 -5.38,-1.13 -5.79,-6.3 -4.66,-12.92z"/>
   <path class="fil4" d="M55.23 77.88c6.18,-3.9 14.49,-3.16 19.86,2.21l93.25 93.25c-8.34,13.59 -27.47,19.94 -43.07,20.03 -18.38,0.11 -41.2,-8.44 -46.72,-27.02 -3.18,2.87 -2.28,6.46 -9.63,4.91 -10.48,-2.21 -2.11,-19.77 -0.12,-33.48 -5.17,-2.49 -5.5,-3.02 -1.61,-7.54 -2.21,-12.76 1.78,-28.01 9.63,-38.37 -7.71,-3.75 -12.84,-7.31 -19.52,-12.24 -0.75,-0.56 -1.44,-1.14 -2.07,-1.75z"/>
   <path class="fil5" d="M84 176.61l62.35 -62.35c6.23,-6.22 16.41,-6.22 22.63,0l14.05 14.05c-0.05,0.66 -0.11,1.32 -0.18,2.01 3.93,4.41 3.38,5.05 -1.64,7.46 1.81,13.29 10.15,30.79 0.34,33.37 -7.46,1.96 -6.92,-1.85 -10.12,-4.8 -5.29,18.43 -28.1,26.91 -46.16,27.02 -14.58,0.08 -31.95,-5.27 -41.27,-16.76z"/>
   <path class="fil6" d="M64.05 166.47l24.62 -24.62c6.23,-6.23 16.41,-6.23 22.63,0l43.81 43.81c-9,5.16 -20.11,7.65 -29.84,7.71 -18.38,0.11 -41.2,-8.44 -46.72,-27.02 -3.18,2.87 -2.28,6.46 -9.63,4.91 -2.84,-0.6 -4.29,-2.33 -4.87,-4.79z"/>
   <path class="fil7" d="M99.38 138.59c0.91,-0.01 1.09,-0.26 1.17,-1.33 0.05,-0.73 -0.34,-0.59 -0.42,-0.81 0.22,-0.07 0.48,0.05 0.72,-0.1 0.18,-0.12 0.2,-0.33 0.26,-0.6 0.14,-0.6 -0.53,-0.52 -0.65,-0.53 -0.27,-0.04 -0.09,-0.02 -0.3,0.02 -0.19,-0.33 -0.3,-0.4 -0.28,-0.56 0.4,-0.29 0.32,0.22 0.91,-0.39 0.38,-0.38 0.23,-1.28 0.08,-1.76 -0.1,-0.33 0,-0.28 -0.02,-0.58 -0.02,-0.25 -0.17,-0.88 -0.29,-1.06 -0.19,-0.28 -0.52,-0.35 -0.88,-0.52 -0.61,-0.29 -0.91,-0.26 -1.05,-0.33 -0.3,-0.16 -0.42,-0.43 -0.95,-0.46 -0.8,-0.03 -0.55,0.56 -0.55,0.73 -0.51,0.32 -0.49,-0.2 -1.1,-0.33 -0.47,-0.11 -1.14,-0.1 -1.47,0.15 -0.31,0.23 -0.65,0.75 -0.11,1.04 0.44,0.24 1.15,-0.04 1.5,0.11 -0.01,0.21 -0.14,0.33 -0.19,0.56 -0.05,0.23 0.01,0.44 -0.07,0.66 -0.04,0.1 -0.19,0.32 -0.26,0.47 -0.07,0.12 -0.17,0.46 -0.21,0.52 -0.09,0.11 -0.27,0.26 -0.35,0.38 -0.2,0.27 0.1,0.75 0.48,0.84 0.19,0.04 0.38,-0.07 0.59,0.01 -0.01,0.24 -0.32,0.11 -0.9,0.63 -0.38,0.33 -0.46,0.99 -0.4,1.11 0.11,0.22 0.75,0.2 0.96,0.18 0.31,-0.54 0.17,-0.34 0.15,-0.62 0.19,-0.14 0.17,-0.29 0.46,-0.28 0.01,0.08 -0.37,1.02 -0.43,1.17 -0.21,0.02 -0.17,-0.11 -0.36,0.01 -0.08,0.06 -0.14,0.18 -0.18,0.29 -0.12,0.42 0.12,0.37 0.27,0.55 -0.07,0.31 -0.43,0.68 0.05,0.9 0.44,0.2 1.36,0.01 1.64,-0.18 0.26,-0.18 0.23,-0.54 0.65,-0.66 0.13,-0.04 0.36,-0.09 0.5,-0.07 0.14,0.39 -0.53,0.84 1.03,0.84z"/>
   <path class="fil8" d="M100.12 136.98c0.37,-1.78 1.12,-5.33 1.49,-7.14 0.38,-1.8 0.39,-1.87 0.37,-1.95 -0.01,-0.09 -0.05,-0.2 -0.01,-0.3 0.04,-0.1 0.15,-0.18 0.26,-0.19 0.11,-0.01 0.22,0.07 0.26,0.16 0.03,0.09 0,0.19 -0.04,0.26 -0.05,0.07 -0.09,0.1 -0.12,0.15 -0.02,0.05 -0.02,0.11 0.33,0.14 0.35,0.03 1.07,0.01 1.49,0.01 0.43,-0.01 0.57,0 0.52,0.09 -0.05,0.09 -0.28,0.28 -0.31,0.41 -0.02,0.13 0.18,0.22 0.5,0.26 0.32,0.05 0.77,0.06 1.04,0.09 0.26,0.04 0.36,0.09 0.36,0.16 0.01,0.07 -0.06,0.14 -0.18,0.31 -0.12,0.17 -0.29,0.43 -0.36,0.62 -0.06,0.18 -0.02,0.27 0.04,0.5 0.05,0.23 0.13,0.59 0.11,0.79 -0.01,0.2 -0.13,0.25 -0.42,0.28 -0.3,0.03 -0.78,0.04 -1.09,-0.03 -0.3,-0.06 -0.43,-0.21 -0.46,-0.34 -0.03,-0.12 0.03,-0.23 -0.01,-0.3 -0.05,-0.07 -0.21,-0.1 -0.59,-0.12 -0.38,-0.02 -0.98,-0.02 -1.29,-0.01 -0.31,0 -0.32,0.02 -0.34,0.03 -0.02,0.02 -0.03,0.05 -0.31,1.36 -0.28,1.32 -0.83,3.92 -1.1,5.24 -0.27,1.31 -0.28,1.34 -0.29,1.36 -0.02,0.02 -0.04,0.05 -0.08,0.05 -0.03,0.01 -0.09,0 -0.11,-0.02 -0.03,-0.01 -0.04,-0.03 -0.04,-0.05 0,-0.02 0.01,-0.04 0.38,-1.82z"/>
  </g>
 </g>
</svg>
