<?xml version="1.0" encoding="UTF-8"?>
<!DOCTYPE svg PUBLIC "-//W3C//DTD SVG 1.1//EN" "http://www.w3.org/Graphics/SVG/1.1/DTD/svg11.dtd">
<!-- Creator: CorelDRAW -->
<svg xmlns="http://www.w3.org/2000/svg" xml:space="preserve" width="250px" height="250px" version="1.1" style="shape-rendering:geometricPrecision; text-rendering:geometricPrecision; image-rendering:optimizeQuality; fill-rule:evenodd; clip-rule:evenodd"
viewBox="0 0 250 250"
 xmlns:xlink="http://www.w3.org/1999/xlink"
 xmlns:xodm="http://www.corel.com/coreldraw/odm/2003">
 <defs>
  <style type="text/css">
   <![CDATA[
    .fil4 {fill:url(#id0)}
    .fil3 {fill:url(#id1)}
    .fil5 {fill:url(#id2)}
    .fil2 {fill:url(#id3)}
    .fil9 {fill:url(#id4)}
    .fil1 {fill:url(#id5)}
    .fil10 {fill:url(#id6)}
    .fil0 {fill:url(#id7)}
    .fil8 {fill:url(#id8)}
    .fil7 {fill:url(#id9)}
    .fil6 {fill:url(#id10)}
   ]]>
  </style>
  <linearGradient id="id0" gradientUnits="userSpaceOnUse" x1="89.64" y1="89.64" x2="160.36" y2="160.36">
   <stop offset="0" style="stop-opacity:1; stop-color:#E84118"/>
   <stop offset="1" style="stop-opacity:1; stop-color:#C23616"/>
  </linearGradient>
  <linearGradient id="id1" gradientUnits="userSpaceOnUse" x1="82.57" y1="82.57" x2="167.43" y2="167.43">
   <stop offset="0" style="stop-opacity:1; stop-color:#7F8FA6"/>
   <stop offset="1" style="stop-opacity:1; stop-color:#718093"/>
  </linearGradient>
  <linearGradient id="id2" gradientUnits="userSpaceOnUse" x1="91.42" y1="115.64" x2="136.36" y2="169.71">
   <stop offset="0" style="stop-opacity:1; stop-color:#FBC531"/>
   <stop offset="1" style="stop-opacity:1; stop-color:#E1B12C"/>
  </linearGradient>
  <linearGradient id="id3" gradientUnits="userSpaceOnUse" x1="80.96" y1="101.51" x2="169.04" y2="148.49">
   <stop offset="0" style="stop-opacity:1; stop-color:#353B48"/>
   <stop offset="1" style="stop-opacity:1; stop-color:#2F3640"/>
  </linearGradient>
  <linearGradient id="id4" gradientUnits="userSpaceOnUse" xlink:href="#id0" x1="164.72" y1="115.46" x2="188.24" y2="138.52">
  </linearGradient>
  <linearGradient id="id5" gradientUnits="userSpaceOnUse" xlink:href="#id3" x1="184.34" y1="119.34" x2="195.66" y2="125">
  </linearGradient>
  <linearGradient id="id6" gradientUnits="userSpaceOnUse" xlink:href="#id2" x1="165.69" y1="116.2" x2="181.7" y2="128.14">
  </linearGradient>
  <linearGradient id="id7" gradientUnits="userSpaceOnUse" x1="45.27" y1="-61.54" x2="204.73" y2="311.54">
   <stop offset="0" style="stop-opacity:1; stop-color:#FFEAA7"/>
   <stop offset="1" style="stop-opacity:1; stop-color:#FDCB6E"/>
  </linearGradient>
  <linearGradient id="id8" gradientUnits="userSpaceOnUse" xlink:href="#id2" x1="179.45" y1="117.67" x2="170.63" y2="152.97">
  </linearGradient>
  <linearGradient id="id9" gradientUnits="userSpaceOnUse" x1="162.53" y1="140.93" x2="152.19" y2="165.06">
   <stop offset="0" style="stop-opacity:1; stop-color:#DCDDE1"/>
   <stop offset="1" style="stop-opacity:1; stop-color:#B0B0B0"/>
  </linearGradient>
  <linearGradient id="id10" gradientUnits="userSpaceOnUse" x1="127.44" y1="165.67" x2="137.78" y2="189.81">
   <stop offset="0" style="stop-opacity:1; stop-color:#273C75"/>
   <stop offset="1" style="stop-opacity:1; stop-color:#192A56"/>
  </linearGradient>
 </defs>
 <g id="Слой_x0020_1">
  <metadata id="CorelCorpID_0Corel-Layer"/>
  <path class="fil0" d="M125 0c69.04,0 125,55.96 125,125 0,69.04 -55.96,125 -125,125 -69.04,0 -125,-55.96 -125,-125 0,-69.04 55.96,-125 125,-125z"/>
  <path class="fil1" d="M185 112.17l6 0c2.2,0 4,1.8 4,4l0 12c0,2.2 -1.8,4 -4,4l-6 0 0 -20z"/>
  <path class="fil2" d="M95 50l60 0c5.5,0 10,4.5 10,10l0 130c0,5.5 -4.5,10 -10,10l-60 0c-5.5,0 -10,-4.5 -10,-10l0 -130c0,-5.5 4.5,-10 10,-10z"/>
  <path class="fil3" d="M89 65l72 0c13.2,0 24,10.8 24,24l0 72c0,13.2 -10.8,24 -24,24l-72 0c-13.2,0 -24,-10.8 -24,-24l0 -72c0,-13.2 10.8,-24 24,-24z"/>
  <path class="fil4" d="M87 75l76 0c6.6,0 12,5.4 12,12l0 76c0,6.6 -5.4,12 -12,12l-76 0c-6.6,0 -12,-5.4 -12,-12l0 -76c0,-6.6 5.4,-12 12,-12z"/>
  <path class="fil5" d="M99.05 110.36c29.67,0 53.72,24.05 53.72,53.72 0,3.74 -0.38,7.39 -1.11,10.92l-64.66 0c-6.6,0 -12,-5.4 -12,-12l0 -46.97c7.24,-3.63 15.4,-5.67 24.05,-5.67z"/>
  <path class="fil6" d="M143.22 153l14.14 14.14 -31.11 31.11c-2.34,2.33 -6.15,2.33 -8.49,0l-5.66 -5.66c-2.33,-2.33 -2.33,-6.15 0,-8.48l31.12 -31.11z"/>
  <path class="fil7" d="M146.75 128.25l35.36 35.35 -8.49 8.49c-3.11,3.11 -8.2,3.11 -11.31,0l-24.04 -24.04c-3.11,-3.12 -3.11,-8.21 0,-11.32l8.48 -8.48z"/>
  <path class="fil8" d="M173.62 112.69l24.05 24.04c3.11,3.11 3.11,8.2 0,11.32l-15.56 15.55 -35.36 -35.35 15.56 -15.56c3.11,-3.11 8.2,-3.11 11.31,0z"/>
  <path class="fil9" d="M161.74 113.26c0.42,0.56 0.69,1.23 0.72,1.99 0.1,2.09 -1.53,4.87 -2.08,7.35 -0.54,2.47 -0.01,4.63 1.31,4.98 1.32,0.35 3.44,-1.11 5.1,-0.78 1.66,0.34 2.86,2.48 3.2,5.14 0.34,2.65 -0.19,5.83 0.5,8.11 0.69,2.29 2.6,3.69 4.16,3.57 1.57,-0.13 2.78,-1.76 4.19,-2.36 1.4,-0.6 2.99,-0.17 4.57,-0.03 1.59,0.15 3.18,0 4.24,-1.01 1.06,-1.01 1.59,-2.88 2.62,-4.66 0.72,-1.24 1.68,-2.43 2.51,-3.71l-19.16 -19.16c-3.11,-3.11 -8.2,-3.11 -11.31,0l-0.57 0.57z"/>
  <path class="fil10" d="M164.89 110.97c2.97,4.16 -0.95,7.82 0.99,10.42 2.55,3.41 3.83,-0.69 6.36,8.88 1.57,5.97 5.77,4.44 7.17,-2.47 0.57,-2.79 1.98,-2.97 2.96,-5.85l0.13 -0.38 -8.88 -8.88c-2.35,-2.35 -5.83,-2.93 -8.73,-1.72z"/>
 </g>
</svg>
