<?xml version="1.0" encoding="UTF-8"?>
<!DOCTYPE svg PUBLIC "-//W3C//DTD SVG 1.1//EN" "http://www.w3.org/Graphics/SVG/1.1/DTD/svg11.dtd">
<!-- Creator: CorelDRAW -->
<svg xmlns="http://www.w3.org/2000/svg" xml:space="preserve" width="250px" height="250px" version="1.1" style="shape-rendering:geometricPrecision; text-rendering:geometricPrecision; image-rendering:optimizeQuality; fill-rule:evenodd; clip-rule:evenodd"
viewBox="0 0 250 250"
 xmlns:xlink="http://www.w3.org/1999/xlink"
 xmlns:xodm="http://www.corel.com/coreldraw/odm/2003">
 <defs>
  <style type="text/css">
   <![CDATA[
    .fil1 {fill:url(#id0)}
    .fil6 {fill:url(#id1)}
    .fil5 {fill:url(#id2)}
    .fil2 {fill:url(#id3)}
    .fil0 {fill:url(#id4)}
    .fil4 {fill:url(#id5)}
    .fil3 {fill:url(#id6)}
   ]]>
  </style>
  <linearGradient id="id0" gradientUnits="userSpaceOnUse" x1="97.57" y1="67.57" x2="182.43" y2="152.43">
   <stop offset="0" style="stop-opacity:1; stop-color:#9C88FF"/>
   <stop offset="1" style="stop-opacity:1; stop-color:#8C7AE6"/>
  </linearGradient>
  <linearGradient id="id1" gradientUnits="userSpaceOnUse" x1="58.46" y1="81.19" x2="82.54" y2="91.51">
   <stop offset="0" style="stop-opacity:1; stop-color:#E84118"/>
   <stop offset="1" style="stop-opacity:1; stop-color:#C23616"/>
  </linearGradient>
  <linearGradient id="id2" gradientUnits="userSpaceOnUse" x1="66.19" y1="108.89" x2="74.81" y2="125.96">
   <stop offset="0" style="stop-opacity:1; stop-color:#FBC531"/>
   <stop offset="1" style="stop-opacity:1; stop-color:#E1B12C"/>
  </linearGradient>
  <linearGradient id="id3" gradientUnits="userSpaceOnUse" x1="104.64" y1="74.64" x2="175.36" y2="145.36">
   <stop offset="0" style="stop-opacity:1; stop-color:#F5F6FA"/>
   <stop offset="1" style="stop-opacity:1; stop-color:#DCDDE1"/>
  </linearGradient>
  <linearGradient id="id4" gradientUnits="userSpaceOnUse" x1="45.27" y1="-61.54" x2="204.73" y2="311.54">
   <stop offset="0" style="stop-opacity:1; stop-color:#FAB1A0"/>
   <stop offset="1" style="stop-opacity:1; stop-color:#E17055"/>
  </linearGradient>
  <linearGradient id="id5" gradientUnits="userSpaceOnUse" xlink:href="#id2" x1="48.18" y1="150.3" x2="92.82" y2="174.7">
  </linearGradient>
  <linearGradient id="id6" gradientUnits="userSpaceOnUse" xlink:href="#id0" x1="136.47" y1="160.28" x2="143.53" y2="194.17">
  </linearGradient>
 </defs>
 <g id="Слой_x0020_1">
  <metadata id="CorelCorpID_0Corel-Layer"/>
  <g id="_2256970984128">
   <path class="fil0" d="M125 0c69.04,0 125,55.96 125,125 0,69.04 -55.96,125 -125,125 -69.04,0 -125,-55.96 -125,-125 0,-69.04 55.96,-125 125,-125z"/>
   <path class="fil1" d="M140 50c33.14,0 60,26.86 60,60 0,33.14 -26.86,60 -60,60 -33.14,0 -60,-26.86 -60,-60 0,-33.14 26.86,-60 60,-60z"/>
   <path class="fil2" d="M140 60c27.61,0 50,22.39 50,50 0,27.61 -22.39,50 -50,50 -27.61,0 -50,-22.39 -50,-50 0,-27.61 22.39,-50 50,-50z"/>
   <path class="fil3" d="M80 164.72l120 0 0 5c0,11 -9,20 -20,20l-80 0c-11,0 -20,-9 -20,-20l0 -5z"/>
   <path class="fil4" d="M55 125l31 0c2.75,0 5,2.25 5,5l0 65c0,2.75 -2.25,5 -5,5l-31 0c-2.75,0 -5,-2.25 -5,-5l0 -65c0,-2.75 2.25,-5 5,-5z"/>
   <path class="fil5" d="M55.5 125l30 0 0 -10.14c0,-2.76 -2.25,-5 -5,-5l-20 0c-2.75,0 -5,2.24 -5,5l0 10.14z"/>
   <path class="fil6" d="M60.42 109.86l20.16 0 0 -36.32c0,-3.19 -0.6,-3.94 -3.22,-5.04 -4.35,-1.82 -8.18,-3.43 -12.52,-5.25 -2.66,-1.12 -4.42,0.1 -4.42,3.48l0 43.13z"/>
  </g>
 </g>
</svg>
