<?xml version="1.0" encoding="UTF-8"?>
<!DOCTYPE svg PUBLIC "-//W3C//DTD SVG 1.1//EN" "http://www.w3.org/Graphics/SVG/1.1/DTD/svg11.dtd">
<!-- Creator: CorelDRAW -->
<svg xmlns="http://www.w3.org/2000/svg" xml:space="preserve" width="250px" height="250px" version="1.1" style="shape-rendering:geometricPrecision; text-rendering:geometricPrecision; image-rendering:optimizeQuality; fill-rule:evenodd; clip-rule:evenodd"
viewBox="0 0 250 250"
 xmlns:xlink="http://www.w3.org/1999/xlink"
 xmlns:xodm="http://www.corel.com/coreldraw/odm/2003">
 <defs>
  <style type="text/css">
   <![CDATA[
    .fil4 {fill:url(#id0)}
    .fil1 {fill:url(#id1)}
    .fil3 {fill:url(#id2)}
    .fil2 {fill:url(#id3)}
    .fil0 {fill:url(#id4)}
   ]]>
  </style>
  <linearGradient id="id0" gradientUnits="userSpaceOnUse" x1="133.31" y1="119.9" x2="170.48" y2="167.69">
   <stop offset="0" style="stop-opacity:1; stop-color:#FBC531"/>
   <stop offset="1" style="stop-opacity:1; stop-color:#E1B12C"/>
  </linearGradient>
  <linearGradient id="id1" gradientUnits="userSpaceOnUse" x1="92" y1="85.07" x2="167.57" y2="181.25">
   <stop offset="0" style="stop-opacity:1; stop-color:#273C75"/>
   <stop offset="1" style="stop-opacity:1; stop-color:#192A56"/>
  </linearGradient>
  <linearGradient id="id2" gradientUnits="objectBoundingBox" xlink:href="#id0" x1="14.6447%" y1="14.6447%" x2="85.3553%" y2="85.3553%">
  </linearGradient>
  <linearGradient id="id3" gradientUnits="userSpaceOnUse" x1="82" y1="67.82" x2="157.57" y2="164.01">
   <stop offset="0" style="stop-opacity:1; stop-color:#E84118"/>
   <stop offset="1" style="stop-opacity:1; stop-color:#C23616"/>
  </linearGradient>
  <linearGradient id="id4" gradientUnits="userSpaceOnUse" x1="45.27" y1="-61.54" x2="204.73" y2="311.54">
   <stop offset="0" style="stop-opacity:1; stop-color:#FAB1A0"/>
   <stop offset="1" style="stop-opacity:1; stop-color:#E17055"/>
  </linearGradient>
 </defs>
 <g id="Слой_x0020_1">
  <metadata id="CorelCorpID_0Corel-Layer"/>
  <g id="_2689495699888">
   <path class="fil0" d="M125 0c69.04,0 125,55.96 125,125 0,69.04 -55.96,125 -125,125 -69.04,0 -125,-55.96 -125,-125 0,-69.04 55.96,-125 125,-125z"/>
   <path class="fil1" d="M69.78 78.16l120 0c5.5,0 10,4.5 10,10l0 90c0,5.5 -4.5,10 -10,10l-120 0c-5.5,0 -10,-4.5 -10,-10l0 -90c0,-5.5 4.5,-10 10,-10z"/>
   <path class="fil2" d="M59.78 60.91l120 0c5.5,0 10,4.5 10,10l0 90.01c0,5.5 -4.5,9.99 -10,9.99l-120 0c-5.5,0 -10,-4.49 -10,-9.99l0 -90.01c0,-5.5 4.5,-10 10,-10z"/>
   <path class="fil3" d="M157.78 78.16c8.7,0 15.75,7.05 15.75,15.75 0,8.69 -7.05,15.75 -15.75,15.75 -8.69,0 -15.75,-7.06 -15.75,-15.75 0,-8.7 7.06,-15.75 15.75,-15.75z"/>
   <path class="fil3" d="M53.26 168.48l41.94 -71.47c3.39,-5.78 9.34,-5.09 13.23,1.53l41.1 70.03c0.44,0.74 0.83,1.53 1.17,2.34l-90.92 0c-2.49,0 -4.77,-0.92 -6.52,-2.43z"/>
   <path class="fil4" d="M117.03 170.91l29.53 -50.32c3.4,-5.78 9.35,-5.09 13.24,1.53l26.96 45.94c-1.8,1.76 -4.27,2.85 -6.98,2.85l-62.75 0z"/>
  </g>
 </g>
</svg>
